NunitoSans-M0opszSlantedItalic.ufo
<glyph name="exclam" format="2">
  <advance width="248"/>
  <unicode hex="0021"/>
  <outline>
    <contour>
      <point x="93" y="178" type="line"/>
      <point x="133" y="178" type="line"/>
      <point x="229" y="705" type="line"/>
      <point x="165" y="705" type="line"/>
    </contour>
    <contour>
      <point x="45" y="0" type="line"/>
      <point x="125" y="0" type="line"/>
      <point x="137" y="78" type="line"/>
      <point x="57" y="78" type="line"/>
    </contour>
  </outline>
</glyph>
<glyph name="numbersign" format="2">
  <advance width="600"/>
  <unicode hex="0023"/>
  <outline>
    <contour>
      <point x="45" y="0" type="line"/>
      <point x="97" y="0" type="line"/>
      <point x="164" y="191" type="line"/>
      <point x="335" y="191" type="line"/>
      <point x="268" y="0" type="line"/>
      <point x="318" y="0" type="line"/>
      <point x="386" y="191" type="line"/>
      <point x="520" y="191" type="line"/>
      <point x="528" y="238" type="line"/>
      <point x="402" y="238" type="line"/>
      <point x="487" y="475" type="line"/>
      <point x="604" y="475" type="line"/>
      <point x="612" y="522" type="line"/>
      <point x="503" y="522" type="line"/>
      <point x="567" y="705" type="line"/>
      <point x="516" y="705" type="line"/>
      <point x="452" y="522" type="line"/>
      <point x="281" y="522" type="line"/>
      <point x="345" y="705" type="line"/>
      <point x="294" y="705" type="line"/>
      <point x="230" y="522" type="line"/>
      <point x="95" y="522" type="line"/>
      <point x="87" y="475" type="line"/>
      <point x="214" y="475" type="line"/>
      <point x="129" y="238" type="line"/>
      <point x="11" y="238" type="line"/>
      <point x="3" y="191" type="line"/>
      <point x="113" y="191" type="line"/>
    </contour>
    <contour>
      <point x="180" y="238" type="line"/>
      <point x="265" y="475" type="line"/>
      <point x="436" y="475" type="line"/>
      <point x="351" y="238" type="line"/>
    </contour>
  </outline>
</glyph>
<glyph name="dollar" format="2">
  <advance width="600"/>
  <unicode hex="0024"/>
  <outline>
    <contour>
      <point x="227" y="-115" type="line"/>
      <point x="277" y="-115" type="line"/>
      <point x="300" y="31" type="line"/>
      <point x="283" y="16" type="line"/>
      <point x="413" y="22"/>
      <point x="516" y="82"/>
      <point x="532" y="184" type="curve" smooth="yes"/>
      <point x="547" y="284"/>
      <point x="499" y="350"/>
      <point x="368" y="367" type="curve" smooth="yes"/>
      <point x="274" y="379" type="line" smooth="yes"/>
      <point x="181" y="391"/>
      <point x="150" y="427"/>
      <point x="161" y="500" type="curve" smooth="yes"/>
      <point x="174" y="580"/>
      <point x="254" y="639"/>
      <point x="364" y="639" type="curve" smooth="yes"/>
      <point x="448" y="639"/>
      <point x="506" y="613"/>
      <point x="551" y="555" type="curve"/>
      <point x="578" y="599" type="line"/>
      <point x="535" y="657"/>
      <point x="461" y="686"/>
      <point x="389" y="688" type="curve"/>
      <point x="402" y="676" type="line"/>
      <point x="425" y="820" type="line"/>
      <point x="375" y="820" type="line"/>
      <point x="352" y="676" type="line"/>
      <point x="363" y="689" type="line"/>
      <point x="229" y="686"/>
      <point x="128" y="613"/>
      <point x="111" y="509" type="curve" smooth="yes"/>
      <point x="93" y="399"/>
      <point x="148" y="346"/>
      <point x="260" y="332" type="curve" smooth="yes"/>
      <point x="354" y="320" type="line" smooth="yes"/>
      <point x="444" y="309"/>
      <point x="493" y="269"/>
      <point x="481" y="193" type="curve" smooth="yes"/>
      <point x="469" y="121"/>
      <point x="397" y="66"/>
      <point x="273" y="66" type="curve" smooth="yes"/>
      <point x="174" y="66"/>
      <point x="118" y="92"/>
      <point x="62" y="147" type="curve"/>
      <point x="35" y="102" type="line"/>
      <point x="91" y="42"/>
      <point x="175" y="18"/>
      <point x="269" y="16" type="curve"/>
      <point x="250" y="30" type="line"/>
    </contour>
  </outline>
</glyph>
<glyph name="percent" format="2">
  <advance width="964"/>
  <unicode hex="0025"/>
  <outline>
    <contour>
      <point x="251" y="-23" type="line"/>
      <point x="783" y="705" type="line"/>
      <point x="746" y="728" type="line"/>
      <point x="216" y="0" type="line"/>
    </contour>
    <contour>
      <point x="252" y="282" type="curve" smooth="yes"/>
      <point x="349" y="282"/>
      <point x="433" y="351"/>
      <point x="456" y="498" type="curve" smooth="yes"/>
      <point x="476" y="624"/>
      <point x="416" y="713"/>
      <point x="310" y="713" type="curve" smooth="yes"/>
      <point x="214" y="713"/>
      <point x="130" y="645"/>
      <point x="106" y="498" type="curve" smooth="yes"/>
      <point x="86" y="370"/>
      <point x="145" y="282"/>
    </contour>
    <contour>
      <point x="254" y="326" type="curve" smooth="yes"/>
      <point x="183" y="326"/>
      <point x="138" y="385"/>
      <point x="156" y="498" type="curve" smooth="yes"/>
      <point x="174" y="611"/>
      <point x="237" y="669"/>
      <point x="308" y="669" type="curve" smooth="yes"/>
      <point x="379" y="669"/>
      <point x="424" y="610"/>
      <point x="406" y="498" type="curve" smooth="yes"/>
      <point x="388" y="384"/>
      <point x="324" y="326"/>
    </contour>
    <contour>
      <point x="688" y="-8" type="curve" smooth="yes"/>
      <point x="785" y="-8"/>
      <point x="869" y="61"/>
      <point x="892" y="208" type="curve" smooth="yes"/>
      <point x="912" y="334"/>
      <point x="852" y="423"/>
      <point x="746" y="423" type="curve" smooth="yes"/>
      <point x="650" y="423"/>
      <point x="565" y="355"/>
      <point x="542" y="208" type="curve" smooth="yes"/>
      <point x="522" y="80"/>
      <point x="581" y="-8"/>
    </contour>
    <contour>
      <point x="690" y="36" type="curve" smooth="yes"/>
      <point x="619" y="36"/>
      <point x="574" y="95"/>
      <point x="592" y="208" type="curve" smooth="yes"/>
      <point x="610" y="321"/>
      <point x="673" y="379"/>
      <point x="744" y="379" type="curve" smooth="yes"/>
      <point x="815" y="379"/>
      <point x="860" y="320"/>
      <point x="842" y="208" type="curve" smooth="yes"/>
      <point x="824" y="94"/>
      <point x="760" y="36"/>
    </contour>
  </outline>
</glyph>
<glyph name="parenright" format="2">
  <advance width="312"/>
  <unicode hex="0029"/>
  <outline>
    <contour>
      <point x="12" y="-190" type="line"/>
      <point x="128" y="-39"/>
      <point x="194" y="108"/>
      <point x="219" y="263" type="curve" smooth="yes"/>
      <point x="243" y="419"/>
      <point x="224" y="567"/>
      <point x="155" y="716" type="curve"/>
      <point x="111" y="704" type="line"/>
      <point x="173" y="559"/>
      <point x="190" y="411"/>
      <point x="167" y="263" type="curve" smooth="yes"/>
      <point x="143" y="115"/>
      <point x="79" y="-33"/>
      <point x="-29" y="-178" type="curve"/>
    </contour>
  </outline>
</glyph>
<glyph name="asterisk" format="2">
  <advance width="471"/>
  <unicode hex="002A"/>
  <outline>
    <contour>
      <point x="202" y="346" type="line"/>
      <point x="279" y="495" type="line"/>
      <point x="283" y="495" type="line"/>
      <point x="358" y="347" type="line"/>
      <point x="398" y="371" type="line"/>
      <point x="313" y="509" type="line"/>
      <point x="315" y="513" type="line"/>
      <point x="480" y="505" type="line"/>
      <point x="480" y="553" type="line"/>
      <point x="314" y="546" type="line"/>
      <point x="313" y="550" type="line"/>
      <point x="398" y="687" type="line"/>
      <point x="356" y="712" type="line"/>
      <point x="283" y="563" type="line"/>
      <point x="279" y="563" type="line"/>
      <point x="204" y="712" type="line"/>
      <point x="162" y="687" type="line"/>
      <point x="247" y="550" type="line"/>
      <point x="246" y="546" type="line"/>
      <point x="81" y="553" type="line"/>
      <point x="81" y="505" type="line"/>
      <point x="246" y="513" type="line"/>
      <point x="248" y="509" type="line"/>
      <point x="162" y="371" type="line"/>
    </contour>
  </outline>
</glyph>
<glyph name="plus" format="2">
  <advance width="600"/>
  <unicode hex="002B"/>
  <outline>
    <contour>
      <point x="244" y="40" type="line"/>
      <point x="290" y="40" type="line"/>
      <point x="326" y="265" type="line"/>
      <point x="547" y="265" type="line"/>
      <point x="554" y="310" type="line"/>
      <point x="333" y="310" type="line"/>
      <point x="368" y="528" type="line"/>
      <point x="322" y="528" type="line"/>
      <point x="287" y="310" type="line"/>
      <point x="66" y="310" type="line"/>
      <point x="59" y="265" type="line"/>
      <point x="280" y="265" type="line"/>
    </contour>
  </outline>
</glyph>
<glyph name="hyphen" format="2">
  <advance width="416"/>
  <unicode hex="002D"/>
  <outline>
    <contour>
      <point x="76" y="244" type="line"/>
      <point x="340" y="244" type="line"/>
      <point x="347" y="290" type="line"/>
      <point x="83" y="290" type="line"/>
    </contour>
  </outline>
</glyph>
<glyph name="period" format="2">
  <advance width="252"/>
  <unicode hex="002E"/>
  <outline>
    <contour>
      <point x="47" y="0" type="line"/>
      <point x="127" y="0" type="line"/>
      <point x="139" y="78" type="line"/>
      <point x="59" y="78" type="line"/>
    </contour>
  </outline>
</glyph>
<glyph name="slash" format="2">
  <advance width="276"/>
  <unicode hex="002F"/>
  <outline>
    <contour>
      <point x="-13" y="-55" type="line"/>
      <point x="363" y="734" type="line"/>
      <point x="320" y="744" type="line"/>
      <point x="-56" y="-45" type="line"/>
    </contour>
  </outline>
</glyph>
<glyph name="zero" format="2">
  <advance width="600"/>
  <unicode hex="0030"/>
  <outline>
    <contour>
      <point x="265" y="-8" type="curve" smooth="yes"/>
      <point x="415" y="-8"/>
      <point x="519" y="97"/>
      <point x="556" y="335" type="curve" smooth="yes"/>
      <point x="596" y="588"/>
      <point x="532" y="713"/>
      <point x="370" y="713" type="curve" smooth="yes"/>
      <point x="218" y="713"/>
      <point x="116" y="608"/>
      <point x="76" y="362" type="curve" smooth="yes"/>
      <point x="38" y="117"/>
      <point x="104" y="-8"/>
    </contour>
    <contour>
      <point x="268" y="43" type="curve" smooth="yes"/>
      <point x="141" y="43"/>
      <point x="96" y="143"/>
      <point x="129" y="353" type="curve" smooth="yes"/>
      <point x="162" y="564"/>
      <point x="239" y="662"/>
      <point x="367" y="662" type="curve" smooth="yes"/>
      <point x="494" y="662"/>
      <point x="538" y="565"/>
      <point x="505" y="354" type="curve" smooth="yes"/>
      <point x="471" y="142"/>
      <point x="395" y="43"/>
    </contour>
  </outline>
</glyph>
<glyph name="one" format="2">
  <advance width="600"/>
  <unicode hex="0031"/>
  <outline>
    <contour>
      <point x="35" y="0" type="line"/>
      <point x="520" y="0" type="line"/>
      <point x="528" y="48" type="line"/>
      <point x="322" y="48" type="line"/>
      <point x="426" y="705" type="line"/>
      <point x="384" y="705" type="line"/>
      <point x="126" y="548" type="line"/>
      <point x="147" y="506" type="line"/>
      <point x="398" y="658" type="line"/>
      <point x="368" y="667" type="line"/>
      <point x="270" y="48" type="line"/>
      <point x="43" y="48" type="line"/>
    </contour>
  </outline>
</glyph>
<glyph name="two" format="2">
  <advance width="600"/>
  <unicode hex="0032"/>
  <outline>
    <contour>
      <point x="46" y="0" type="line"/>
      <point x="493" y="0" type="line"/>
      <point x="501" y="50" type="line"/>
      <point x="136" y="50" type="line"/>
      <point x="137" y="54" type="line"/>
      <point x="393" y="282" type="line" smooth="yes"/>
      <point x="496" y="374"/>
      <point x="531" y="442"/>
      <point x="543" y="519" type="curve" smooth="yes"/>
      <point x="562" y="639"/>
      <point x="489" y="713"/>
      <point x="360" y="713" type="curve" smooth="yes"/>
      <point x="275" y="713"/>
      <point x="193" y="682"/>
      <point x="121" y="619" type="curve"/>
      <point x="144" y="574" type="line"/>
      <point x="214" y="637"/>
      <point x="288" y="662"/>
      <point x="358" y="662" type="curve" smooth="yes"/>
      <point x="452" y="662"/>
      <point x="504" y="610"/>
      <point x="490" y="522" type="curve" smooth="yes"/>
      <point x="479" y="455"/>
      <point x="451" y="400"/>
      <point x="357" y="315" type="curve" smooth="yes"/>
      <point x="53" y="42" type="line"/>
    </contour>
  </outline>
</glyph>
<glyph name="three" format="2">
  <advance width="600"/>
  <unicode hex="0033"/>
  <outline>
    <contour>
      <point x="258" y="-8" type="curve" smooth="yes"/>
      <point x="388" y="-8"/>
      <point x="496" y="60"/>
      <point x="515" y="180" type="curve" smooth="yes"/>
      <point x="531" y="286"/>
      <point x="474" y="345"/>
      <point x="397" y="358" type="curve"/>
      <point x="398" y="362" type="line"/>
      <point x="481" y="388"/>
      <point x="544" y="457"/>
      <point x="556" y="531" type="curve" smooth="yes"/>
      <point x="574" y="645"/>
      <point x="500" y="713"/>
      <point x="375" y="713" type="curve" smooth="yes"/>
      <point x="287" y="713"/>
      <point x="198" y="685"/>
      <point x="132" y="620" type="curve"/>
      <point x="153" y="575" type="line"/>
      <point x="221" y="641"/>
      <point x="302" y="662"/>
      <point x="373" y="662" type="curve" smooth="yes"/>
      <point x="456" y="662"/>
      <point x="517" y="622"/>
      <point x="503" y="537" type="curve" smooth="yes"/>
      <point x="487" y="433"/>
      <point x="398" y="384"/>
      <point x="292" y="384" type="curve" smooth="yes"/>
      <point x="213" y="384" type="line"/>
      <point x="205" y="334" type="line"/>
      <point x="299" y="334" type="line" smooth="yes"/>
      <point x="420" y="334"/>
      <point x="477" y="282"/>
      <point x="462" y="187" type="curve" smooth="yes"/>
      <point x="445" y="83"/>
      <point x="354" y="43"/>
      <point x="264" y="43" type="curve" smooth="yes"/>
      <point x="196" y="43"/>
      <point x="125" y="63"/>
      <point x="71" y="124" type="curve"/>
      <point x="42" y="79" type="line"/>
      <point x="99" y="16"/>
      <point x="175" y="-8"/>
    </contour>
  </outline>
</glyph>
<glyph name="four" format="2">
  <advance width="600"/>
  <unicode hex="0034"/>
  <outline>
    <contour>
      <point x="363" y="0" type="line"/>
      <point x="415" y="0" type="line"/>
      <point x="440" y="155" type="line"/>
      <point x="541" y="155" type="line"/>
      <point x="548" y="205" type="line"/>
      <point x="447" y="205" type="line"/>
      <point x="527" y="705" type="line"/>
      <point x="460" y="705" type="line"/>
      <point x="50" y="199" type="line"/>
      <point x="43" y="155" type="line"/>
      <point x="388" y="155" type="line"/>
    </contour>
    <contour>
      <point x="395" y="205" type="line"/>
      <point x="98" y="205" type="line"/>
      <point x="105" y="193" type="line"/>
      <point x="459" y="631" type="line"/>
      <point x="463" y="631" type="line"/>
    </contour>
  </outline>
</glyph>
<glyph name="five" format="2">
  <advance width="600"/>
  <unicode hex="0035"/>
  <outline>
    <contour>
      <point x="275" y="-8" type="curve" smooth="yes"/>
      <point x="409" y="-8"/>
      <point x="512" y="62"/>
      <point x="535" y="208" type="curve" smooth="yes"/>
      <point x="556" y="345"/>
      <point x="488" y="441"/>
      <point x="352" y="441" type="curve" smooth="yes"/>
      <point x="279" y="441"/>
      <point x="215" y="409"/>
      <point x="174" y="353" type="curve"/>
      <point x="170" y="353" type="line"/>
      <point x="218" y="655" type="line"/>
      <point x="581" y="655" type="line"/>
      <point x="589" y="705" type="line"/>
      <point x="174" y="705" type="line"/>
      <point x="109" y="294" type="line"/>
      <point x="162" y="294" type="line"/>
      <point x="222" y="369"/>
      <point x="282" y="390"/>
      <point x="348" y="390" type="curve" smooth="yes"/>
      <point x="450" y="390"/>
      <point x="499" y="320"/>
      <point x="482" y="214" type="curve" smooth="yes"/>
      <point x="464" y="104"/>
      <point x="390" y="43"/>
      <point x="280" y="43" type="curve" smooth="yes"/>
      <point x="200" y="43"/>
      <point x="141" y="67"/>
      <point x="91" y="130" type="curve"/>
      <point x="60" y="85" type="line"/>
      <point x="112" y="22"/>
      <point x="180" y="-8"/>
    </contour>
  </outline>
</glyph>
<glyph name="eight" format="2">
  <advance width="600"/>
  <unicode hex="0038"/>
  <outline>
    <contour>
      <point x="266" y="-8" type="curve" smooth="yes"/>
      <point x="414" y="-8"/>
      <point x="518" y="58"/>
      <point x="538" y="183" type="curve" smooth="yes"/>
      <point x="552" y="271"/>
      <point x="498" y="338"/>
      <point x="416" y="356" type="curve"/>
      <point x="416" y="360" type="line"/>
      <point x="497" y="380"/>
      <point x="564" y="447"/>
      <point x="576" y="527" type="curve" smooth="yes"/>
      <point x="593" y="642"/>
      <point x="514" y="713"/>
      <point x="370" y="713" type="curve" smooth="yes"/>
      <point x="236" y="713"/>
      <point x="133" y="647"/>
      <point x="115" y="532" type="curve" smooth="yes"/>
      <point x="102" y="450"/>
      <point x="146" y="384"/>
      <point x="221" y="364" type="curve"/>
      <point x="221" y="360" type="line"/>
      <point x="125" y="340"/>
      <point x="59" y="276"/>
      <point x="45" y="188" type="curve" smooth="yes"/>
      <point x="26" y="68"/>
      <point x="109" y="-8"/>
    </contour>
    <contour>
      <point x="268" y="41" type="curve" smooth="yes"/>
      <point x="144" y="41"/>
      <point x="83" y="90"/>
      <point x="98" y="186" type="curve" smooth="yes"/>
      <point x="113" y="282"/>
      <point x="191" y="334"/>
      <point x="315" y="334" type="curve" smooth="yes"/>
      <point x="439" y="334"/>
      <point x="500" y="282"/>
      <point x="484" y="186" type="curve" smooth="yes"/>
      <point x="468" y="90"/>
      <point x="392" y="41"/>
    </contour>
    <contour>
      <point x="323" y="383" type="curve" smooth="yes"/>
      <point x="214" y="383"/>
      <point x="154" y="436"/>
      <point x="168" y="526" type="curve" smooth="yes"/>
      <point x="182" y="614"/>
      <point x="258" y="665"/>
      <point x="367" y="665" type="curve" smooth="yes"/>
      <point x="476" y="665"/>
      <point x="536" y="614"/>
      <point x="522" y="526" type="curve" smooth="yes"/>
      <point x="508" y="436"/>
      <point x="432" y="383"/>
    </contour>
  </outline>
</glyph>
<glyph name="nine" format="2">
  <advance width="600"/>
  <unicode hex="0039"/>
  <outline>
    <contour>
      <point x="225" y="-8" type="curve" smooth="yes"/>
      <point x="395" y="-8"/>
      <point x="512" y="108"/>
      <point x="550" y="350" type="curve" smooth="yes"/>
      <point x="588" y="588"/>
      <point x="524" y="713"/>
      <point x="345" y="713" type="curve" smooth="yes"/>
      <point x="220" y="713"/>
      <point x="119" y="628"/>
      <point x="98" y="500" type="curve" smooth="yes"/>
      <point x="76" y="363"/>
      <point x="151" y="267"/>
      <point x="285" y="267" type="curve" smooth="yes"/>
      <point x="380" y="267"/>
      <point x="473" y="322"/>
      <point x="506" y="422" type="curve"/>
      <point x="510" y="422" type="line"/>
      <point x="502" y="371" type="line" smooth="yes"/>
      <point x="468" y="161"/>
      <point x="376" y="43"/>
      <point x="233" y="43" type="curve" smooth="yes"/>
      <point x="167" y="43"/>
      <point x="114" y="55"/>
      <point x="66" y="119" type="curve"/>
      <point x="33" y="76" type="line"/>
      <point x="82" y="16"/>
      <point x="141" y="-8"/>
    </contour>
    <contour>
      <point x="292" y="318" type="curve" smooth="yes"/>
      <point x="192" y="318"/>
      <point x="135" y="387"/>
      <point x="151" y="489" type="curve" smooth="yes"/>
      <point x="168" y="592"/>
      <point x="245" y="662"/>
      <point x="345" y="662" type="curve" smooth="yes"/>
      <point x="453" y="662"/>
      <point x="511" y="597"/>
      <point x="493" y="489" type="curve" smooth="yes"/>
      <point x="478" y="390"/>
      <point x="394" y="318"/>
    </contour>
  </outline>
</glyph>
<glyph name="colon" format="2">
  <advance width="252"/>
  <unicode hex="003A"/>
  <outline>
    <contour>
      <point x="113" y="416" type="line"/>
      <point x="193" y="416" type="line"/>
      <point x="205" y="494" type="line"/>
      <point x="125" y="494" type="line"/>
    </contour>
    <contour>
      <point x="47" y="0" type="line"/>
      <point x="127" y="0" type="line"/>
      <point x="139" y="77" type="line"/>
      <point x="59" y="77" type="line"/>
    </contour>
  </outline>
</glyph>
<glyph name="less" format="2">
  <advance width="600"/>
  <unicode hex="003C"/>
  <outline>
    <contour>
      <point x="510" y="33" type="line"/>
      <point x="518" y="80" type="line"/>
      <point x="131" y="278" type="line"/>
      <point x="131" y="282" type="line"/>
      <point x="582" y="481" type="line"/>
      <point x="589" y="533" type="line"/>
      <point x="65" y="301" type="line"/>
      <point x="59" y="265" type="line"/>
    </contour>
  </outline>
</glyph>
<glyph name="equal" format="2">
  <advance width="600"/>
  <unicode hex="003D"/>
  <outline>
    <contour>
      <point x="74" y="361" type="line"/>
      <point x="562" y="361" type="line"/>
      <point x="569" y="406" type="line"/>
      <point x="81" y="406" type="line"/>
    </contour>
    <contour>
      <point x="42" y="161" type="line"/>
      <point x="530" y="161" type="line"/>
      <point x="538" y="206" type="line"/>
      <point x="50" y="206" type="line"/>
    </contour>
  </outline>
</glyph>
<glyph name="greater" format="2">
  <advance width="600"/>
  <unicode hex="003E"/>
  <outline>
    <contour>
      <point x="22" y="33" type="line"/>
      <point x="547" y="265" type="line"/>
      <point x="553" y="301" type="line"/>
      <point x="101" y="533" type="line"/>
      <point x="94" y="487" type="line"/>
      <point x="481" y="288" type="line"/>
      <point x="481" y="284" type="line"/>
      <point x="30" y="86" type="line"/>
    </contour>
  </outline>
</glyph>
<glyph name="question" format="2">
  <advance width="470"/>
  <unicode hex="003F"/>
  <outline>
    <contour>
      <point x="171" y="178" type="line"/>
      <point x="213" y="178" type="line"/>
      <point x="217" y="193" type="line" smooth="yes"/>
      <point x="234" y="273"/>
      <point x="256" y="307"/>
      <point x="331" y="361" type="curve" smooth="yes"/>
      <point x="392" y="405"/>
      <point x="473" y="466"/>
      <point x="487" y="553" type="curve" smooth="yes"/>
      <point x="503" y="659"/>
      <point x="429" y="713"/>
      <point x="304" y="713" type="curve" smooth="yes"/>
      <point x="227" y="713"/>
      <point x="135" y="677"/>
      <point x="69" y="621" type="curve"/>
      <point x="86" y="577" type="line"/>
      <point x="155" y="634"/>
      <point x="225" y="662"/>
      <point x="297" y="662" type="curve" smooth="yes"/>
      <point x="374" y="662"/>
      <point x="448" y="639"/>
      <point x="435" y="553" type="curve" smooth="yes"/>
      <point x="423" y="483"/>
      <point x="362" y="438"/>
      <point x="305" y="398" type="curve" smooth="yes"/>
      <point x="225" y="342"/>
      <point x="188" y="284"/>
      <point x="174" y="194" type="curve" smooth="yes"/>
    </contour>
    <contour>
      <point x="125" y="0" type="line"/>
      <point x="205" y="0" type="line"/>
      <point x="217" y="78" type="line"/>
      <point x="137" y="78" type="line"/>
    </contour>
  </outline>
</glyph>
<glyph name="at" format="2">
  <advance width="987"/>
  <unicode hex="0040"/>
  <outline>
    <contour>
      <point x="516" y="-148" type="curve" smooth="yes"/>
      <point x="636" y="-148"/>
      <point x="743" y="-106"/>
      <point x="808" y="-33" type="curve"/>
      <point x="778" y="2" type="line"/>
      <point x="722" y="-64"/>
      <point x="628" y="-100"/>
      <point x="516" y="-100" type="curve" smooth="yes"/>
      <point x="288" y="-100"/>
      <point x="149" y="43"/>
      <point x="149" y="276" type="curve" smooth="yes"/>
      <point x="149" y="507"/>
      <point x="299" y="665"/>
      <point x="526" y="665" type="curve" smooth="yes"/>
      <point x="727" y="665"/>
      <point x="860" y="534"/>
      <point x="860" y="345" type="curve" smooth="yes"/>
      <point x="860" y="203"/>
      <point x="809" y="105"/>
      <point x="724" y="105" type="curve" smooth="yes"/>
      <point x="681" y="105"/>
      <point x="659" y="129"/>
      <point x="659" y="178" type="curve" smooth="yes"/>
      <point x="659" y="190"/>
      <point x="659" y="201"/>
      <point x="666" y="239" type="curve" smooth="yes"/>
      <point x="708" y="485" type="line"/>
      <point x="660" y="485" type="line"/>
      <point x="650" y="414" type="line"/>
      <point x="646" y="414" type="line"/>
      <point x="626" y="465"/>
      <point x="579" y="498"/>
      <point x="519" y="498" type="curve" smooth="yes"/>
      <point x="393" y="498"/>
      <point x="300" y="390"/>
      <point x="300" y="242" type="curve" smooth="yes"/>
      <point x="300" y="130"/>
      <point x="359" y="64"/>
      <point x="458" y="64" type="curve" smooth="yes"/>
      <point x="516" y="64"/>
      <point x="570" y="97"/>
      <point x="607" y="153" type="curve"/>
      <point x="611" y="153" type="line"/>
      <point x="617" y="98"/>
      <point x="656" y="64"/>
      <point x="718" y="64" type="curve" smooth="yes"/>
      <point x="833" y="64"/>
      <point x="908" y="176"/>
      <point x="908" y="345" type="curve" smooth="yes"/>
      <point x="908" y="561"/>
      <point x="754" y="713"/>
      <point x="526" y="713" type="curve" smooth="yes"/>
      <point x="274" y="713"/>
      <point x="99" y="531"/>
      <point x="99" y="276" type="curve" smooth="yes"/>
      <point x="99" y="20"/>
      <point x="262" y="-148"/>
    </contour>
    <contour>
      <point x="462" y="110" type="curve" smooth="yes"/>
      <point x="390" y="110"/>
      <point x="351" y="156"/>
      <point x="351" y="242" type="curve" smooth="yes"/>
      <point x="351" y="364"/>
      <point x="423" y="452"/>
      <point x="519" y="452" type="curve" smooth="yes"/>
      <point x="595" y="452"/>
      <point x="632" y="414"/>
      <point x="632" y="331" type="curve" smooth="yes"/>
      <point x="632" y="203"/>
      <point x="559" y="110"/>
    </contour>
  </outline>
</glyph>
<glyph name="A" format="2">
  <advance width="764"/>
  <unicode hex="0041"/>
  <anchor x="344" y="0" name="bottom"/>
  <anchor x="671" y="0" name="ogonek"/>
  <anchor x="456" y="705" name="top"/>
  <outline>
    <contour>
      <point x="15" y="0" type="line"/>
      <point x="73" y="0" type="line"/>
      <point x="192" y="204" type="line"/>
      <point x="158" y="190" type="line"/>
      <point x="594" y="190" type="line"/>
      <point x="562" y="204" type="line"/>
      <point x="617" y="0" type="line"/>
      <point x="671" y="0" type="line"/>
      <point x="480" y="705" type="line"/>
      <point x="430" y="705" type="line"/>
    </contour>
    <contour>
      <point x="443" y="633" type="line"/>
      <point x="447" y="633" type="line"/>
      <point x="555" y="228" type="line"/>
      <point x="585" y="240" type="line"/>
      <point x="183" y="240" type="line"/>
      <point x="206" y="228" type="line"/>
    </contour>
  </outline>
</glyph>
<glyph name="C" format="2">
  <advance width="717"/>
  <unicode hex="0043"/>
  <anchor x="363" y="0" name="bottom"/>
  <anchor x="477" y="705" name="top"/>
  <outline>
    <contour>
      <point x="368" y="-8" type="curve" smooth="yes"/>
      <point x="466" y="-8"/>
      <point x="552" y="24"/>
      <point x="623" y="87" type="curve"/>
      <point x="598" y="127" type="line"/>
      <point x="525" y="68"/>
      <point x="456" y="43"/>
      <point x="370" y="43" type="curve" smooth="yes"/>
      <point x="209" y="43"/>
      <point x="129" y="150"/>
      <point x="161" y="353" type="curve" smooth="yes"/>
      <point x="193" y="555"/>
      <point x="306" y="662"/>
      <point x="468" y="662" type="curve" smooth="yes"/>
      <point x="554" y="662"/>
      <point x="615" y="637"/>
      <point x="670" y="578" type="curve"/>
      <point x="697" y="618" type="line"/>
      <point x="646" y="681"/>
      <point x="570" y="713"/>
      <point x="472" y="713" type="curve" smooth="yes"/>
      <point x="281" y="713"/>
      <point x="142" y="587"/>
      <point x="107" y="363" type="curve" smooth="yes"/>
      <point x="72" y="138"/>
      <point x="168" y="-8"/>
    </contour>
  </outline>
</glyph>
<glyph name="D" format="2">
  <advance width="783"/>
  <unicode hex="0044"/>
  <anchor x="360" y="0" name="bottom"/>
  <anchor x="227" y="358" name="center"/>
  <anchor x="471" y="705" name="top"/>
  <outline>
    <contour>
      <point x="83" y="0" type="line"/>
      <point x="310" y="0" type="line" smooth="yes"/>
      <point x="530" y="0"/>
      <point x="674" y="117"/>
      <point x="709" y="343" type="curve" smooth="yes"/>
      <point x="747" y="579"/>
      <point x="644" y="705"/>
      <point x="412" y="705" type="curve" smooth="yes"/>
      <point x="195" y="705" type="line"/>
    </contour>
    <contour>
      <point x="143" y="50" type="line"/>
      <point x="239" y="655" type="line"/>
      <point x="413" y="655" type="line" smooth="yes"/>
      <point x="603" y="655"/>
      <point x="689" y="561"/>
      <point x="656" y="353" type="curve" smooth="yes"/>
      <point x="623" y="145"/>
      <point x="506" y="50"/>
      <point x="317" y="50" type="curve" smooth="yes"/>
    </contour>
  </outline>
</glyph>
<glyph name="E" format="2">
  <advance width="656"/>
  <unicode hex="0045"/>
  <guideline x="701" y="353" angle="270"/>
  <anchor x="311" y="0" name="bottom"/>
  <anchor x="481" y="0" name="ogonek"/>
  <anchor x="423" y="705" name="top"/>
  <anchor x="130" y="705" name="topleft"/>
  <outline>
    <contour>
      <point x="83" y="0" type="line"/>
      <point x="527" y="0" type="line"/>
      <point x="535" y="50" type="line"/>
      <point x="143" y="50" type="line"/>
      <point x="188" y="332" type="line"/>
      <point x="560" y="332" type="line"/>
      <point x="568" y="382" type="line"/>
      <point x="196" y="382" type="line"/>
      <point x="239" y="655" type="line"/>
      <point x="631" y="655" type="line"/>
      <point x="639" y="705" type="line"/>
      <point x="195" y="705" type="line"/>
    </contour>
  </outline>
</glyph>
<glyph name="G" format="2">
  <advance width="787"/>
  <unicode hex="0047"/>
  <anchor x="384" y="0" name="bottom"/>
  <anchor x="489" y="705" name="top"/>
  <outline>
    <contour>
      <point x="390" y="-8" type="curve" smooth="yes"/>
      <point x="480" y="-8"/>
      <point x="588" y="13"/>
      <point x="643" y="40" type="curve"/>
      <point x="693" y="355" type="line"/>
      <point x="449" y="355" type="line"/>
      <point x="441" y="305" type="line"/>
      <point x="635" y="305" type="line"/>
      <point x="593" y="35" type="line"/>
      <point x="622" y="82" type="line"/>
      <point x="561" y="56"/>
      <point x="481" y="42"/>
      <point x="397" y="42" type="curve" smooth="yes"/>
      <point x="216" y="42"/>
      <point x="127" y="142"/>
      <point x="161" y="353" type="curve" smooth="yes"/>
      <point x="193" y="555"/>
      <point x="308" y="662"/>
      <point x="477" y="662" type="curve" smooth="yes"/>
      <point x="574" y="662"/>
      <point x="647" y="636"/>
      <point x="698" y="578" type="curve"/>
      <point x="725" y="618" type="line"/>
      <point x="678" y="680"/>
      <point x="590" y="713"/>
      <point x="483" y="713" type="curve" smooth="yes"/>
      <point x="286" y="713"/>
      <point x="143" y="589"/>
      <point x="108" y="363" type="curve" smooth="yes"/>
      <point x="71" y="131"/>
      <point x="175" y="-8"/>
    </contour>
  </outline>
</glyph>
<glyph name="H" format="2">
  <advance width="807"/>
  <unicode hex="0048"/>
  <anchor x="365" y="0" name="bottom"/>
  <anchor x="451" y="546" name="center"/>
  <anchor x="476" y="705" name="top"/>
  <anchor x="128" y="705" name="topleft"/>
  <outline>
    <contour>
      <point x="83" y="0" type="line"/>
      <point x="135" y="0" type="line"/>
      <point x="188" y="334" type="line"/>
      <point x="647" y="334" type="line"/>
      <point x="594" y="0" type="line"/>
      <point x="646" y="0" type="line"/>
      <point x="758" y="705" type="line"/>
      <point x="706" y="705" type="line"/>
      <point x="655" y="384" type="line"/>
      <point x="196" y="384" type="line"/>
      <point x="247" y="705" type="line"/>
      <point x="195" y="705" type="line"/>
    </contour>
  </outline>
</glyph>
<glyph name="I" format="2">
  <advance width="296"/>
  <unicode hex="0049"/>
  <anchor x="109" y="0" name="bottom"/>
  <anchor x="135" y="0" name="ogonek"/>
  <anchor x="221" y="705" name="top"/>
  <anchor x="132" y="705" name="topleft"/>
  <outline>
    <contour>
      <point x="83" y="0" type="line"/>
      <point x="135" y="0" type="line"/>
      <point x="247" y="705" type="line"/>
      <point x="195" y="705" type="line"/>
    </contour>
  </outline>
</glyph>
<glyph name="J" format="2">
  <advance width="403"/>
  <unicode hex="004A"/>
  <anchor x="212" y="0" name="bottom"/>
  <anchor x="328" y="705" name="top"/>
  <outline>
    <contour>
      <point x="-26" y="-6" type="line"/>
      <point x="55" y="-2" type="line" smooth="yes"/>
      <point x="156" y="3"/>
      <point x="255" y="84"/>
      <point x="272" y="187" type="curve" smooth="yes"/>
      <point x="354" y="705" type="line"/>
      <point x="302" y="705" type="line"/>
      <point x="220" y="189" type="line" smooth="yes"/>
      <point x="207" y="106"/>
      <point x="135" y="52"/>
      <point x="60" y="48" type="curve" smooth="yes"/>
      <point x="-22" y="44" type="line"/>
    </contour>
  </outline>
</glyph>
<glyph name="K" format="2">
  <advance width="649"/>
  <unicode hex="004B"/>
  <anchor x="303" y="0" name="bottom"/>
  <anchor x="414" y="705" name="top"/>
  <anchor x="130" y="705" name="topleft"/>
  <outline>
    <contour>
      <point x="83" y="0" type="line"/>
      <point x="135" y="0" type="line"/>
      <point x="189" y="338" type="line"/>
      <point x="193" y="338" type="line"/>
      <point x="525" y="0" type="line"/>
      <point x="596" y="0" type="line"/>
      <point x="227" y="376" type="line"/>
      <point x="234" y="341" type="line"/>
      <point x="683" y="705" type="line"/>
      <point x="601" y="705" type="line"/>
      <point x="199" y="377" type="line"/>
      <point x="195" y="377" type="line"/>
      <point x="247" y="705" type="line"/>
      <point x="195" y="705" type="line"/>
    </contour>
  </outline>
</glyph>
<glyph name="M" format="2">
  <advance width="918"/>
  <unicode hex="004D"/>
  <anchor x="414" y="0" name="bottom"/>
  <anchor x="526" y="705" name="top"/>
  <outline>
    <contour>
      <point x="85" y="0" type="line"/>
      <point x="135" y="0" type="line"/>
      <point x="236" y="635" type="line"/>
      <point x="240" y="635" type="line"/>
      <point x="416" y="110" type="line"/>
      <point x="460" y="110" type="line"/>
      <point x="802" y="635" type="line"/>
      <point x="806" y="635" type="line"/>
      <point x="705" y="0" type="line"/>
      <point x="755" y="0" type="line"/>
      <point x="867" y="705" type="line"/>
      <point x="793" y="705" type="line"/>
      <point x="447" y="173" type="line"/>
      <point x="443" y="173" type="line"/>
      <point x="265" y="705" type="line"/>
      <point x="197" y="705" type="line"/>
    </contour>
  </outline>
</glyph>
<glyph name="N" format="2">
  <advance width="824"/>
  <unicode hex="004E"/>
  <anchor x="377" y="0" name="bottom"/>
  <anchor x="489" y="705" name="top"/>
  <outline>
    <contour>
      <point x="83" y="0" type="line"/>
      <point x="133" y="0" type="line"/>
      <point x="233" y="631" type="line"/>
      <point x="237" y="631" type="line"/>
      <point x="611" y="0" type="line"/>
      <point x="663" y="0" type="line"/>
      <point x="775" y="705" type="line"/>
      <point x="725" y="705" type="line"/>
      <point x="624" y="74" type="line"/>
      <point x="620" y="74" type="line"/>
      <point x="248" y="705" type="line"/>
      <point x="195" y="705" type="line"/>
    </contour>
  </outline>
</glyph>
<glyph name="O" format="2">
  <advance width="809"/>
  <unicode hex="004F"/>
  <anchor x="375" y="-8" name="Qtail"/>
  <anchor x="365" y="0" name="bottom"/>
  <anchor x="434" y="359" name="center"/>
  <anchor x="435" y="0" name="ogonek"/>
  <anchor x="477" y="705" name="top"/>
  <anchor x="111" y="705" name="topleft"/>
  <anchor x="550" y="705" name="topright"/>
  <outline>
    <contour>
      <point x="369" y="-8" type="curve" smooth="yes"/>
      <point x="563" y="-8"/>
      <point x="700" y="116"/>
      <point x="736" y="343" type="curve" smooth="yes"/>
      <point x="771" y="569"/>
      <point x="678" y="713"/>
      <point x="473" y="713" type="curve" smooth="yes"/>
      <point x="278" y="713"/>
      <point x="143" y="589"/>
      <point x="107" y="362" type="curve" smooth="yes"/>
      <point x="72" y="136"/>
      <point x="166" y="-8"/>
    </contour>
    <contour>
      <point x="372" y="43" type="curve" smooth="yes"/>
      <point x="208" y="43"/>
      <point x="128" y="148"/>
      <point x="161" y="353" type="curve" smooth="yes"/>
      <point x="193" y="558"/>
      <point x="306" y="662"/>
      <point x="470" y="662" type="curve" smooth="yes"/>
      <point x="636" y="662"/>
      <point x="715" y="559"/>
      <point x="682" y="353" type="curve" smooth="yes"/>
      <point x="649" y="147"/>
      <point x="537" y="43"/>
    </contour>
  </outline>
</glyph>
<glyph name="P" format="2">
  <advance width="698"/>
  <unicode hex="0050"/>
  <anchor x="307" y="0" name="bottom"/>
  <anchor x="419" y="705" name="top"/>
  <outline>
    <contour>
      <point x="83" y="0" type="line"/>
      <point x="135" y="0" type="line"/>
      <point x="181" y="293" type="line"/>
      <point x="399" y="293" type="line" smooth="yes"/>
      <point x="546" y="293"/>
      <point x="645" y="361"/>
      <point x="665" y="490" type="curve" smooth="yes"/>
      <point x="687" y="629"/>
      <point x="613" y="705"/>
      <point x="455" y="705" type="curve" smooth="yes"/>
      <point x="195" y="705" type="line"/>
    </contour>
    <contour>
      <point x="189" y="343" type="line"/>
      <point x="239" y="655" type="line"/>
      <point x="451" y="655" type="line" smooth="yes"/>
      <point x="573" y="655"/>
      <point x="629" y="606"/>
      <point x="612" y="500" type="curve" smooth="yes"/>
      <point x="595" y="394"/>
      <point x="523" y="343"/>
      <point x="401" y="343" type="curve" smooth="yes"/>
    </contour>
  </outline>
</glyph>
<glyph name="R" format="2">
  <advance width="728"/>
  <unicode hex="0052"/>
  <anchor x="325" y="0" name="bottom"/>
  <anchor x="437" y="705" name="top"/>
  <outline>
    <contour>
      <point x="83" y="0" type="line"/>
      <point x="135" y="0" type="line"/>
      <point x="184" y="307" type="line"/>
      <point x="346" y="307" type="line" smooth="yes"/>
      <point x="424" y="307"/>
      <point x="460" y="291"/>
      <point x="484" y="226" type="curve" smooth="yes"/>
      <point x="567" y="0" type="line"/>
      <point x="621" y="0" type="line"/>
      <point x="531" y="242" type="line" smooth="yes"/>
      <point x="516" y="283"/>
      <point x="503" y="300"/>
      <point x="480" y="310" type="curve" smooth="yes"/>
      <point x="475" y="312" type="line"/>
      <point x="476" y="316" type="line"/>
      <point x="579" y="335"/>
      <point x="649" y="402"/>
      <point x="664" y="500" type="curve" smooth="yes"/>
      <point x="686" y="639"/>
      <point x="613" y="705"/>
      <point x="459" y="705" type="curve" smooth="yes"/>
      <point x="195" y="705" type="line"/>
    </contour>
    <contour>
      <point x="191" y="356" type="line"/>
      <point x="239" y="655" type="line"/>
      <point x="457" y="655" type="line" smooth="yes"/>
      <point x="581" y="655"/>
      <point x="628" y="615"/>
      <point x="612" y="511" type="curve" smooth="yes"/>
      <point x="595" y="405"/>
      <point x="538" y="356"/>
      <point x="417" y="356" type="curve" smooth="yes"/>
    </contour>
  </outline>
</glyph>
<glyph name="S" format="2">
  <advance width="657"/>
  <unicode hex="0053"/>
  <anchor x="286" y="0" name="bottom"/>
  <anchor x="420" y="705" name="top"/>
  <outline>
    <contour>
      <point x="310" y="-8" type="curve" smooth="yes"/>
      <point x="453" y="-8"/>
      <point x="559" y="59"/>
      <point x="577" y="173" type="curve" smooth="yes"/>
      <point x="595" y="283"/>
      <point x="543" y="339"/>
      <point x="409" y="367" type="curve" smooth="yes"/>
      <point x="294" y="391" type="line" smooth="yes"/>
      <point x="198" y="411"/>
      <point x="168" y="450"/>
      <point x="180" y="527" type="curve" smooth="yes"/>
      <point x="194" y="612"/>
      <point x="293" y="662"/>
      <point x="413" y="662" type="curve" smooth="yes"/>
      <point x="497" y="662"/>
      <point x="559" y="641"/>
      <point x="606" y="577" type="curve"/>
      <point x="635" y="622" type="line"/>
      <point x="586" y="682"/>
      <point x="518" y="713"/>
      <point x="416" y="713" type="curve" smooth="yes"/>
      <point x="268" y="713"/>
      <point x="148" y="647"/>
      <point x="129" y="529" type="curve" smooth="yes"/>
      <point x="114" y="439"/>
      <point x="149" y="369"/>
      <point x="273" y="342" type="curve" smooth="yes"/>
      <point x="389" y="317" type="line" smooth="yes"/>
      <point x="495" y="294"/>
      <point x="540" y="264"/>
      <point x="525" y="172" type="curve" smooth="yes"/>
      <point x="514" y="100"/>
      <point x="432" y="43"/>
      <point x="316" y="43" type="curve" smooth="yes"/>
      <point x="213" y="43"/>
      <point x="133" y="59"/>
      <point x="73" y="124" type="curve"/>
      <point x="46" y="79" type="line"/>
      <point x="98" y="18"/>
      <point x="193" y="-8"/>
    </contour>
  </outline>
</glyph>
<glyph name="T" format="2">
  <advance width="640"/>
  <unicode hex="0054"/>
  <anchor x="281" y="0" name="bottom"/>
  <anchor x="338" y="358" name="center"/>
  <anchor x="393" y="705" name="top"/>
  <outline>
    <contour>
      <point x="255" y="0" type="line"/>
      <point x="307" y="0" type="line"/>
      <point x="411" y="655" type="line"/>
      <point x="675" y="655" type="line"/>
      <point x="683" y="705" type="line"/>
      <point x="103" y="705" type="line"/>
      <point x="95" y="655" type="line"/>
      <point x="359" y="655" type="line"/>
    </contour>
  </outline>
</glyph>
<glyph name="V" format="2">
  <advance width="672"/>
  <unicode hex="0056"/>
  <anchor x="298" y="0" name="bottom"/>
  <anchor x="409" y="705" name="top"/>
  <outline>
    <contour>
      <point x="273" y="0" type="line"/>
      <point x="321" y="0" type="line"/>
      <point x="733" y="705" type="line"/>
      <point x="674" y="705" type="line"/>
      <point x="308" y="73" type="line"/>
      <point x="304" y="73" type="line"/>
      <point x="138" y="705" type="line"/>
      <point x="85" y="705" type="line"/>
    </contour>
  </outline>
</glyph>
<glyph name="W" format="2">
  <advance width="1091"/>
  <unicode hex="0057"/>
  <guideline x="241" y="65" angle="0"/>
  <anchor x="507" y="0" name="bottom"/>
  <anchor x="618" y="705" name="top"/>
  <outline>
    <contour>
      <point x="233" y="0" type="line"/>
      <point x="289" y="0" type="line"/>
      <point x="604" y="623" type="line"/>
      <point x="608" y="623" type="line"/>
      <point x="724" y="0" type="line"/>
      <point x="780" y="0" type="line"/>
      <point x="1106" y="705" type="line"/>
      <point x="1050" y="705" type="line"/>
      <point x="762" y="75" type="line"/>
      <point x="758" y="75" type="line"/>
      <point x="640" y="705" type="line"/>
      <point x="590" y="705" type="line"/>
      <point x="273" y="75" type="line"/>
      <point x="269" y="75" type="line"/>
      <point x="182" y="705" type="line"/>
      <point x="131" y="705" type="line"/>
    </contour>
  </outline>
</glyph>
<glyph name="X" format="2">
  <advance width="666"/>
  <unicode hex="0058"/>
  <anchor x="295" y="0" name="bottom"/>
  <anchor x="407" y="705" name="top"/>
  <outline>
    <contour>
      <point x="-6" y="0" type="line"/>
      <point x="59" y="0" type="line"/>
      <point x="343" y="333" type="line"/>
      <point x="347" y="333" type="line"/>
      <point x="528" y="0" type="line"/>
      <point x="584" y="0" type="line"/>
      <point x="382" y="372" type="line"/>
      <point x="382" y="348" type="line"/>
      <point x="691" y="705" type="line"/>
      <point x="626" y="705" type="line"/>
      <point x="359" y="396" type="line"/>
      <point x="355" y="396" type="line"/>
      <point x="188" y="705" type="line"/>
      <point x="132" y="705" type="line"/>
      <point x="320" y="357" type="line"/>
      <point x="324" y="386" type="line"/>
    </contour>
  </outline>
</glyph>
<glyph name="Y" format="2">
  <advance width="610"/>
  <unicode hex="0059"/>
  <anchor x="266" y="0" name="bottom"/>
  <anchor x="378" y="705" name="top"/>
  <anchor x="127" y="705" name="topleft"/>
  <outline>
    <contour>
      <point x="240" y="0" type="line"/>
      <point x="292" y="0" type="line"/>
      <point x="350" y="367" type="line"/>
      <point x="333" y="318" type="line"/>
      <point x="667" y="705" type="line"/>
      <point x="602" y="705" type="line"/>
      <point x="326" y="384" type="line"/>
      <point x="322" y="384" type="line"/>
      <point x="147" y="705" type="line"/>
      <point x="89" y="705" type="line"/>
      <point x="300" y="318" type="line"/>
      <point x="298" y="367" type="line"/>
    </contour>
  </outline>
</glyph>
<glyph name="Z" format="2">
  <advance width="595"/>
  <unicode hex="005A"/>
  <anchor x="266" y="0" name="bottom"/>
  <anchor x="369" y="705" name="top"/>
  <outline>
    <contour>
      <point x="11" y="0" type="line"/>
      <point x="510" y="0" type="line"/>
      <point x="518" y="50" type="line"/>
      <point x="65" y="50" type="line"/>
      <point x="71" y="16" type="line"/>
      <point x="607" y="674" type="line"/>
      <point x="612" y="705" type="line"/>
      <point x="123" y="705" type="line"/>
      <point x="115" y="655" type="line"/>
      <point x="558" y="655" type="line"/>
      <point x="552" y="689" type="line"/>
      <point x="16" y="31" type="line"/>
    </contour>
  </outline>
</glyph>
<glyph name="bracketleft" format="2">
  <advance width="311"/>
  <unicode hex="005B"/>
  <outline>
    <contour>
      <point x="44" y="-180" type="line"/>
      <point x="229" y="-180" type="line"/>
      <point x="237" y="-134" type="line"/>
      <point x="104" y="-134" type="line"/>
      <point x="229" y="659" type="line"/>
      <point x="362" y="659" type="line"/>
      <point x="370" y="705" type="line"/>
      <point x="185" y="705" type="line"/>
    </contour>
  </outline>
</glyph>
<glyph name="backslash" format="2">
  <advance width="276"/>
  <unicode hex="005C"/>
  <outline>
    <contour>
      <point x="193" y="-55" type="line"/>
      <point x="240" y="-45" type="line"/>
      <point x="114" y="744" type="line"/>
      <point x="67" y="734" type="line"/>
    </contour>
  </outline>
</glyph>
<glyph name="bracketright" format="2">
  <advance width="311"/>
  <unicode hex="005D"/>
  <outline>
    <contour>
      <point x="-54" y="-180" type="line"/>
      <point x="131" y="-180" type="line"/>
      <point x="272" y="705" type="line"/>
      <point x="87" y="705" type="line"/>
      <point x="79" y="659" type="line"/>
      <point x="212" y="659" type="line"/>
      <point x="87" y="-134" type="line"/>
      <point x="-46" y="-134" type="line"/>
    </contour>
  </outline>
</glyph>
<glyph name="a" format="2">
  <advance width="621"/>
  <unicode hex="0061"/>
  <anchor x="225" y="0" name="bottom"/>
  <anchor x="468" y="0" name="ogonek"/>
  <anchor x="352" y="484" name="top"/>
  <outline>
    <contour>
      <point x="228" y="-8" type="curve" smooth="yes"/>
      <point x="326" y="-8"/>
      <point x="403" y="45"/>
      <point x="441" y="110" type="curve"/>
      <point x="446" y="110" type="line"/>
      <point x="429" y="0" type="line"/>
      <point x="478" y="0" type="line"/>
      <point x="528" y="314" type="line" smooth="yes"/>
      <point x="549" y="447"/>
      <point x="470" y="502"/>
      <point x="347" y="502" type="curve" smooth="yes"/>
      <point x="277" y="502"/>
      <point x="196" y="481"/>
      <point x="132" y="443" type="curve"/>
      <point x="152" y="399" type="line"/>
      <point x="219" y="438"/>
      <point x="280" y="453"/>
      <point x="344" y="453" type="curve" smooth="yes"/>
      <point x="443" y="453"/>
      <point x="491" y="409"/>
      <point x="476" y="314" type="curve" smooth="yes"/>
      <point x="458" y="205" type="line" smooth="yes"/>
      <point x="445" y="118"/>
      <point x="342" y="41"/>
      <point x="238" y="41" type="curve" smooth="yes"/>
      <point x="164" y="41"/>
      <point x="111" y="74"/>
      <point x="121" y="137" type="curve" smooth="yes"/>
      <point x="133" y="217"/>
      <point x="214" y="234"/>
      <point x="387" y="234" type="curve" smooth="yes"/>
      <point x="475" y="234" type="line"/>
      <point x="483" y="281" type="line"/>
      <point x="393" y="281" type="line" smooth="yes"/>
      <point x="199" y="281"/>
      <point x="86" y="253"/>
      <point x="68" y="143" type="curve" smooth="yes"/>
      <point x="54" y="52"/>
      <point x="123" y="-8"/>
    </contour>
  </outline>
</glyph>
<glyph name="b" format="2">
  <advance width="651"/>
  <unicode hex="0062"/>
  <anchor x="312" y="0" name="bottom"/>
  <anchor x="418" y="705" name="top"/>
  <outline>
    <contour>
      <point x="305" y="-8" type="curve" smooth="yes"/>
      <point x="443" y="-8"/>
      <point x="552" y="89"/>
      <point x="575" y="237" type="curve" smooth="yes"/>
      <point x="600" y="395"/>
      <point x="524" y="502"/>
      <point x="386" y="502" type="curve" smooth="yes"/>
      <point x="301" y="502"/>
      <point x="231" y="467"/>
      <point x="185" y="386" type="curve"/>
      <point x="180" y="386" type="line"/>
      <point x="231" y="705" type="line"/>
      <point x="179" y="705" type="line"/>
      <point x="67" y="0" type="line"/>
      <point x="116" y="0" type="line"/>
      <point x="133" y="110" type="line"/>
      <point x="138" y="110" type="line"/>
      <point x="159" y="36"/>
      <point x="219" y="-8"/>
    </contour>
    <contour>
      <point x="308" y="41" type="curve" smooth="yes"/>
      <point x="195" y="41"/>
      <point x="138" y="123"/>
      <point x="158" y="246" type="curve" smooth="yes"/>
      <point x="178" y="370"/>
      <point x="261" y="453"/>
      <point x="373" y="453" type="curve" smooth="yes"/>
      <point x="486" y="453"/>
      <point x="544" y="370"/>
      <point x="524" y="246" type="curve" smooth="yes"/>
      <point x="504" y="123"/>
      <point x="421" y="41"/>
    </contour>
  </outline>
</glyph>
<glyph name="c" format="2">
  <advance width="522"/>
  <unicode hex="0063"/>
  <anchor x="278" y="0" name="bottom"/>
  <anchor x="355" y="484" name="top"/>
  <outline>
    <contour>
      <point x="286" y="-8" type="curve" smooth="yes"/>
      <point x="354" y="-8"/>
      <point x="419" y="17"/>
      <point x="462" y="58" type="curve"/>
      <point x="439" y="97" type="line"/>
      <point x="397" y="62"/>
      <point x="338" y="41"/>
      <point x="289" y="41" type="curve" smooth="yes"/>
      <point x="171" y="41"/>
      <point x="107" y="117"/>
      <point x="127" y="245" type="curve" smooth="yes"/>
      <point x="148" y="376"/>
      <point x="237" y="453"/>
      <point x="356" y="453" type="curve" smooth="yes"/>
      <point x="405" y="453"/>
      <point x="456" y="431"/>
      <point x="490" y="393" type="curve"/>
      <point x="516" y="433" type="line"/>
      <point x="482" y="476"/>
      <point x="425" y="502"/>
      <point x="358" y="502" type="curve" smooth="yes"/>
      <point x="214" y="502"/>
      <point x="100" y="409"/>
      <point x="75" y="256" type="curve" smooth="yes"/>
      <point x="50" y="95"/>
      <point x="131" y="-8"/>
    </contour>
  </outline>
</glyph>
<glyph name="e" format="2">
  <advance width="607"/>
  <unicode hex="0065"/>
  <anchor x="273" y="0" name="bottom"/>
  <anchor x="341" y="0" name="ogonek"/>
  <anchor x="350" y="484" name="top"/>
  <outline>
    <contour>
      <point x="295" y="-8" type="curve" smooth="yes"/>
      <point x="361" y="-8"/>
      <point x="442" y="10"/>
      <point x="500" y="57" type="curve"/>
      <point x="476" y="97" type="line"/>
      <point x="415" y="51"/>
      <point x="350" y="41"/>
      <point x="295" y="41" type="curve" smooth="yes"/>
      <point x="176" y="41"/>
      <point x="104" y="118"/>
      <point x="127" y="248" type="curve" smooth="yes"/>
      <point x="130" y="265" type="line" smooth="yes"/>
      <point x="149" y="374"/>
      <point x="235" y="454"/>
      <point x="343" y="454" type="curve" smooth="yes"/>
      <point x="453" y="454"/>
      <point x="505" y="379"/>
      <point x="486" y="256" type="curve"/>
      <point x="515" y="281" type="line"/>
      <point x="114" y="281" type="line"/>
      <point x="106" y="234" type="line"/>
      <point x="531" y="234" type="line"/>
      <point x="533" y="248" type="line" smooth="yes"/>
      <point x="557" y="398"/>
      <point x="500" y="502"/>
      <point x="347" y="502" type="curve" smooth="yes"/>
      <point x="196" y="502"/>
      <point x="98" y="400"/>
      <point x="76" y="258" type="curve" smooth="yes"/>
      <point x="49" y="88"/>
      <point x="137" y="-8"/>
    </contour>
  </outline>
</glyph>
<glyph name="g" format="2">
  <advance width="649"/>
  <unicode hex="0067"/>
  <anchor x="344" y="484" name="top"/>
  <outline>
    <contour>
      <point x="246" y="-187" type="curve" smooth="yes"/>
      <point x="381" y="-187"/>
      <point x="487" y="-114"/>
      <point x="510" y="35" type="curve" smooth="yes"/>
      <point x="582" y="494" type="line"/>
      <point x="533" y="494" type="line"/>
      <point x="515" y="381" type="line"/>
      <point x="510" y="381" type="line"/>
      <point x="495" y="454"/>
      <point x="434" y="502"/>
      <point x="351" y="502" type="curve" smooth="yes"/>
      <point x="207" y="502"/>
      <point x="100" y="409"/>
      <point x="76" y="261" type="curve" smooth="yes"/>
      <point x="53" y="113"/>
      <point x="129" y="10"/>
      <point x="273" y="10" type="curve" smooth="yes"/>
      <point x="356" y="10"/>
      <point x="430" y="46"/>
      <point x="467" y="124" type="curve"/>
      <point x="474" y="124" type="line"/>
      <point x="459" y="29" type="line" smooth="yes"/>
      <point x="442" y="-81"/>
      <point x="359" y="-138"/>
      <point x="250" y="-138" type="curve" smooth="yes"/>
      <point x="188" y="-138"/>
      <point x="115" y="-113"/>
      <point x="66" y="-75" type="curve"/>
      <point x="42" y="-118" type="line"/>
      <point x="89" y="-159"/>
      <point x="170" y="-187"/>
    </contour>
    <contour>
      <point x="280" y="59" type="curve" smooth="yes"/>
      <point x="168" y="59"/>
      <point x="110" y="138"/>
      <point x="129" y="256" type="curve" smooth="yes"/>
      <point x="147" y="374"/>
      <point x="231" y="453"/>
      <point x="343" y="453" type="curve" smooth="yes"/>
      <point x="455" y="453"/>
      <point x="513" y="374"/>
      <point x="495" y="256" type="curve" smooth="yes"/>
      <point x="476" y="138"/>
      <point x="392" y="59"/>
    </contour>
  </outline>
</glyph>
<glyph name="i" format="2">
  <advance width="264"/>
  <unicode hex="0069"/>
  <anchor x="88" y="0" name="bottom"/>
  <anchor x="119" y="0" name="ogonek"/>
  <outline>
    <contour>
      <point x="158" y="629" type="line"/>
      <point x="228" y="629" type="line"/>
      <point x="239" y="699" type="line"/>
      <point x="169" y="699" type="line"/>
    </contour>
    <contour>
      <point x="67" y="0" type="line"/>
      <point x="119" y="0" type="line"/>
      <point x="197" y="494" type="line"/>
      <point x="145" y="494" type="line"/>
    </contour>
  </outline>
</glyph>
<glyph name="k" format="2">
  <advance width="527"/>
  <unicode hex="006B"/>
  <anchor x="221" y="0" name="bottom"/>
  <anchor x="377" y="705" name="top"/>
  <outline>
    <contour>
      <point x="67" y="0" type="line"/>
      <point x="119" y="0" type="line"/>
      <point x="157" y="238" type="line"/>
      <point x="161" y="238" type="line"/>
      <point x="408" y="0" type="line"/>
      <point x="478" y="0" type="line"/>
      <point x="198" y="271" type="line"/>
      <point x="203" y="240" type="line"/>
      <point x="524" y="494" type="line"/>
      <point x="446" y="494" type="line"/>
      <point x="166" y="269" type="line"/>
      <point x="162" y="269" type="line"/>
      <point x="231" y="705" type="line"/>
      <point x="179" y="705" type="line"/>
    </contour>
  </outline>
</glyph>
<glyph name="n" format="2">
  <advance width="633"/>
  <unicode hex="006E"/>
  <anchor x="272" y="0" name="bottom"/>
  <anchor x="370" y="484" name="top"/>
  <outline>
    <contour>
      <point x="67" y="0" type="line"/>
      <point x="119" y="0" type="line"/>
      <point x="164" y="285" type="line" smooth="yes"/>
      <point x="178" y="370"/>
      <point x="269" y="453"/>
      <point x="375" y="453" type="curve" smooth="yes"/>
      <point x="477" y="453"/>
      <point x="500" y="390"/>
      <point x="487" y="311" type="curve" smooth="yes"/>
      <point x="438" y="0" type="line"/>
      <point x="490" y="0" type="line"/>
      <point x="540" y="315" type="line" smooth="yes"/>
      <point x="558" y="428"/>
      <point x="508" y="502"/>
      <point x="383" y="502" type="curve" smooth="yes"/>
      <point x="302" y="502"/>
      <point x="226" y="465"/>
      <point x="182" y="384" type="curve"/>
      <point x="177" y="384" type="line"/>
      <point x="194" y="494" type="line"/>
      <point x="145" y="494" type="line"/>
    </contour>
  </outline>
</glyph>
<glyph name="o" format="2">
  <advance width="620"/>
  <unicode hex="006F"/>
  <anchor x="269" y="-10" name="bottom"/>
  <anchor x="310" y="247" name="center"/>
  <anchor x="334" y="0" name="ogonek"/>
  <anchor x="349" y="484" name="top"/>
  <anchor x="397" y="484" name="topright"/>
  <outline>
    <contour>
      <point x="275" y="-8" type="curve" smooth="yes"/>
      <point x="415" y="-8"/>
      <point x="521" y="89"/>
      <point x="545" y="238" type="curve" smooth="yes"/>
      <point x="569" y="395"/>
      <point x="496" y="502"/>
      <point x="346" y="502" type="curve" smooth="yes"/>
      <point x="206" y="502"/>
      <point x="99" y="405"/>
      <point x="76" y="258" type="curve" smooth="yes"/>
      <point x="50" y="99"/>
      <point x="125" y="-8"/>
    </contour>
    <contour>
      <point x="276" y="41" type="curve" smooth="yes"/>
      <point x="164" y="41"/>
      <point x="108" y="124"/>
      <point x="127" y="248" type="curve" smooth="yes"/>
      <point x="147" y="371"/>
      <point x="230" y="453"/>
      <point x="343" y="453" type="curve" smooth="yes"/>
      <point x="456" y="453"/>
      <point x="513" y="371"/>
      <point x="493" y="248" type="curve" smooth="yes"/>
      <point x="474" y="124"/>
      <point x="389" y="41"/>
    </contour>
  </outline>
</glyph>
<glyph name="p" format="2">
  <advance width="651"/>
  <unicode hex="0070"/>
  <anchor x="292" y="0" name="bottom"/>
  <anchor x="373" y="484" name="top"/>
  <outline>
    <contour>
      <point x="38" y="-180" type="line"/>
      <point x="90" y="-180" type="line"/>
      <point x="136" y="108" type="line"/>
      <point x="141" y="108" type="line"/>
      <point x="160" y="35"/>
      <point x="220" y="-8"/>
      <point x="305" y="-8" type="curve" smooth="yes"/>
      <point x="443" y="-8"/>
      <point x="552" y="89"/>
      <point x="575" y="237" type="curve" smooth="yes"/>
      <point x="600" y="395"/>
      <point x="524" y="502"/>
      <point x="386" y="502" type="curve" smooth="yes"/>
      <point x="300" y="502"/>
      <point x="226" y="468"/>
      <point x="182" y="384" type="curve"/>
      <point x="177" y="384" type="line"/>
      <point x="194" y="494" type="line"/>
      <point x="145" y="494" type="line"/>
    </contour>
    <contour>
      <point x="307" y="41" type="curve" smooth="yes"/>
      <point x="195" y="41"/>
      <point x="139" y="124"/>
      <point x="158" y="248" type="curve" smooth="yes"/>
      <point x="178" y="371"/>
      <point x="261" y="453"/>
      <point x="374" y="453" type="curve" smooth="yes"/>
      <point x="487" y="453"/>
      <point x="544" y="371"/>
      <point x="524" y="248" type="curve" smooth="yes"/>
      <point x="505" y="124"/>
      <point x="420" y="41"/>
    </contour>
  </outline>
</glyph>
<glyph name="q" format="2">
  <advance width="651"/>
  <unicode hex="0071"/>
  <anchor x="276" y="0" name="bottom"/>
  <anchor x="353" y="489" name="top"/>
  <outline>
    <contour>
      <point x="425" y="-180" type="line"/>
      <point x="477" y="-180" type="line"/>
      <point x="584" y="494" type="line"/>
      <point x="535" y="494" type="line"/>
      <point x="518" y="384" type="line"/>
      <point x="513" y="384" type="line"/>
      <point x="493" y="458"/>
      <point x="433" y="502"/>
      <point x="347" y="502" type="curve" smooth="yes"/>
      <point x="209" y="502"/>
      <point x="99" y="405"/>
      <point x="76" y="257" type="curve" smooth="yes"/>
      <point x="50" y="99"/>
      <point x="128" y="-8"/>
      <point x="266" y="-8" type="curve" smooth="yes"/>
      <point x="351" y="-8"/>
      <point x="425" y="25"/>
      <point x="466" y="108" type="curve"/>
      <point x="471" y="108" type="line"/>
    </contour>
    <contour>
      <point x="278" y="41" type="curve" smooth="yes"/>
      <point x="165" y="41"/>
      <point x="108" y="124"/>
      <point x="127" y="248" type="curve" smooth="yes"/>
      <point x="147" y="371"/>
      <point x="230" y="453"/>
      <point x="343" y="453" type="curve" smooth="yes"/>
      <point x="456" y="453"/>
      <point x="513" y="371"/>
      <point x="493" y="248" type="curve" smooth="yes"/>
      <point x="474" y="124"/>
      <point x="390" y="41"/>
    </contour>
  </outline>
</glyph>
<glyph name="r" format="2">
  <advance width="423"/>
  <unicode hex="0072"/>
  <anchor x="94" y="0" name="bottom"/>
  <anchor x="273" y="484" name="top"/>
  <outline>
    <contour>
      <point x="67" y="0" type="line"/>
      <point x="119" y="0" type="line"/>
      <point x="165" y="292" type="line" smooth="yes"/>
      <point x="178" y="373"/>
      <point x="254" y="439"/>
      <point x="358" y="447" type="curve" smooth="yes"/>
      <point x="425" y="452" type="line"/>
      <point x="428" y="502" type="line"/>
      <point x="384" y="500" type="line" smooth="yes"/>
      <point x="299" y="496"/>
      <point x="220" y="455"/>
      <point x="184" y="390" type="curve"/>
      <point x="179" y="390" type="line"/>
      <point x="195" y="494" type="line"/>
      <point x="145" y="494" type="line"/>
    </contour>
  </outline>
</glyph>
<glyph name="s" format="2">
  <advance width="565"/>
  <unicode hex="0073"/>
  <anchor x="243" y="0" name="bottom"/>
  <anchor x="321" y="484" name="top"/>
  <outline>
    <contour>
      <point x="249" y="-8" type="curve" smooth="yes"/>
      <point x="372" y="-8"/>
      <point x="458" y="47"/>
      <point x="470" y="119" type="curve" smooth="yes"/>
      <point x="483" y="203"/>
      <point x="439" y="243"/>
      <point x="342" y="262" type="curve" smooth="yes"/>
      <point x="244" y="281" type="line" smooth="yes"/>
      <point x="178" y="294"/>
      <point x="154" y="318"/>
      <point x="162" y="365" type="curve" smooth="yes"/>
      <point x="170" y="418"/>
      <point x="232" y="453"/>
      <point x="315" y="453" type="curve" smooth="yes"/>
      <point x="373" y="453"/>
      <point x="442" y="437"/>
      <point x="481" y="396" type="curve"/>
      <point x="506" y="436" type="line"/>
      <point x="475" y="479"/>
      <point x="387" y="502"/>
      <point x="322" y="502" type="curve" smooth="yes"/>
      <point x="205" y="502"/>
      <point x="123" y="447"/>
      <point x="111" y="374" type="curve" smooth="yes"/>
      <point x="97" y="287"/>
      <point x="140" y="248"/>
      <point x="230" y="231" type="curve" smooth="yes"/>
      <point x="331" y="212" type="line" smooth="yes"/>
      <point x="402" y="199"/>
      <point x="426" y="173"/>
      <point x="419" y="127" type="curve" smooth="yes"/>
      <point x="411" y="75"/>
      <point x="345" y="41"/>
      <point x="254" y="41" type="curve" smooth="yes"/>
      <point x="191" y="41"/>
      <point x="120" y="56"/>
      <point x="76" y="100" type="curve"/>
      <point x="50" y="59" type="line"/>
      <point x="88" y="17"/>
      <point x="172" y="-8"/>
    </contour>
  </outline>
</glyph>
<glyph name="v" format="2">
  <advance width="555"/>
  <unicode hex="0076"/>
  <anchor x="239" y="0" name="bottom"/>
  <anchor x="316" y="484" name="top"/>
  <outline>
    <contour>
      <point x="212" y="0" type="line"/>
      <point x="266" y="0" type="line"/>
      <point x="551" y="494" type="line"/>
      <point x="493" y="494" type="line"/>
      <point x="249" y="65" type="line"/>
      <point x="243" y="65" type="line"/>
      <point x="136" y="494" type="line"/>
      <point x="82" y="494" type="line"/>
    </contour>
  </outline>
</glyph>
<glyph name="w" format="2">
  <advance width="868"/>
  <unicode hex="0077"/>
  <guideline x="-1322" y="56" angle="0"/>
  <anchor x="396" y="0" name="bottom"/>
  <anchor x="473" y="484" name="top"/>
  <outline>
    <contour>
      <point x="171" y="0" type="line"/>
      <point x="231" y="0" type="line"/>
      <point x="461" y="431" type="line"/>
      <point x="465" y="431" type="line"/>
      <point x="557" y="0" type="line"/>
      <point x="616" y="0" type="line"/>
      <point x="862" y="494" type="line"/>
      <point x="805" y="494" type="line"/>
      <point x="593" y="65" type="line"/>
      <point x="589" y="65" type="line"/>
      <point x="499" y="494" type="line"/>
      <point x="441" y="494" type="line"/>
      <point x="213" y="65" type="line"/>
      <point x="209" y="65" type="line"/>
      <point x="135" y="494" type="line"/>
      <point x="84" y="494" type="line"/>
    </contour>
  </outline>
</glyph>
<glyph name="x" format="2">
  <advance width="541"/>
  <unicode hex="0078"/>
  <anchor x="233" y="0" name="bottom"/>
  <anchor x="310" y="484" name="top"/>
  <outline>
    <contour>
      <point x="-1" y="0" type="line"/>
      <point x="67" y="0" type="line"/>
      <point x="263" y="215" type="line"/>
      <point x="267" y="215" type="line"/>
      <point x="395" y="0" type="line"/>
      <point x="454" y="0" type="line"/>
      <point x="294" y="264" type="line"/>
      <point x="301" y="245" type="line"/>
      <point x="530" y="494" type="line"/>
      <point x="462" y="494" type="line"/>
      <point x="279" y="291" type="line"/>
      <point x="275" y="291" type="line"/>
      <point x="156" y="494" type="line"/>
      <point x="98" y="494" type="line"/>
      <point x="250" y="242" type="line"/>
      <point x="244" y="268" type="line"/>
    </contour>
  </outline>
</glyph>
<glyph name="y" format="2">
  <advance width="555"/>
  <unicode hex="0079"/>
  <anchor x="342" y="0" name="bottom"/>
  <anchor x="314" y="484" name="top"/>
  <outline>
    <contour>
      <point x="104" y="-180" type="line"/>
      <point x="163" y="-180" type="line"/>
      <point x="551" y="494" type="line"/>
      <point x="493" y="494" type="line"/>
      <point x="249" y="63" type="line"/>
      <point x="243" y="63" type="line"/>
      <point x="136" y="494" type="line"/>
      <point x="82" y="494" type="line"/>
      <point x="217" y="-22" type="line"/>
      <point x="220" y="19" type="line"/>
    </contour>
  </outline>
</glyph>
<glyph name="z" format="2">
  <advance width="538"/>
  <unicode hex="007A"/>
  <anchor x="233" y="0" name="bottom"/>
  <anchor x="313" y="484" name="top"/>
  <outline>
    <contour>
      <point x="25" y="0" type="line"/>
      <point x="438" y="0" type="line"/>
      <point x="446" y="49" type="line"/>
      <point x="84" y="49" type="line"/>
      <point x="89" y="21" type="line"/>
      <point x="499" y="460" type="line"/>
      <point x="504" y="494" type="line"/>
      <point x="118" y="494" type="line"/>
      <point x="110" y="445" type="line"/>
      <point x="444" y="445" type="line"/>
      <point x="438" y="467" type="line"/>
      <point x="30" y="29" type="line"/>
    </contour>
  </outline>
</glyph>
<glyph name="braceleft" format="2">
  <advance width="358"/>
  <unicode hex="007B"/>
  <outline>
    <contour>
      <point x="173" y="-180" type="curve" smooth="yes"/>
      <point x="276" y="-180" type="line"/>
      <point x="284" y="-134" type="line"/>
      <point x="186" y="-134" type="line" smooth="yes"/>
      <point x="156" y="-134"/>
      <point x="142" y="-124"/>
      <point x="147" y="-93" type="curve" smooth="yes"/>
      <point x="191" y="182" type="line" smooth="yes"/>
      <point x="198" y="230"/>
      <point x="171" y="255"/>
      <point x="119" y="261" type="curve"/>
      <point x="120" y="265" type="line"/>
      <point x="174" y="271"/>
      <point x="209" y="296"/>
      <point x="216" y="344" type="curve" smooth="yes"/>
      <point x="260" y="618" type="line" smooth="yes"/>
      <point x="265" y="649"/>
      <point x="281" y="659"/>
      <point x="311" y="659" type="curve" smooth="yes"/>
      <point x="409" y="659" type="line"/>
      <point x="417" y="705" type="line"/>
      <point x="314" y="705" type="line" smooth="yes"/>
      <point x="260" y="705"/>
      <point x="217" y="676"/>
      <point x="208" y="620" type="curve" smooth="yes"/>
      <point x="168" y="364" type="line" smooth="yes"/>
      <point x="159" y="308"/>
      <point x="138" y="289"/>
      <point x="79" y="287" type="curve" smooth="yes"/>
      <point x="55" y="286" type="line"/>
      <point x="48" y="240" type="line"/>
      <point x="72" y="239" type="line" smooth="yes"/>
      <point x="130" y="237"/>
      <point x="145" y="218"/>
      <point x="136" y="162" type="curve" smooth="yes"/>
      <point x="95" y="-95" type="line" smooth="yes"/>
      <point x="86" y="-151"/>
      <point x="119" y="-180"/>
    </contour>
  </outline>
</glyph>
<glyph name="bar" format="2">
  <advance width="302"/>
  <unicode hex="007C"/>
  <outline>
    <contour>
      <point x="59" y="-180" type="line"/>
      <point x="107" y="-180" type="line"/>
      <point x="248" y="705" type="line"/>
      <point x="200" y="705" type="line"/>
    </contour>
  </outline>
</glyph>
<glyph name="exclamdown" format="2">
  <advance width="248"/>
  <unicode hex="00A1"/>
  <outline>
    <contour>
      <point x="24" y="-180" type="line"/>
      <point x="88" y="-180" type="line"/>
      <point x="155" y="316" type="line"/>
      <point x="115" y="316" type="line"/>
    </contour>
    <contour>
      <point x="111" y="416" type="line"/>
      <point x="191" y="416" type="line"/>
      <point x="203" y="494" type="line"/>
      <point x="123" y="494" type="line"/>
    </contour>
  </outline>
</glyph>
<glyph name="yen" format="2">
  <advance width="600"/>
  <unicode hex="00A5"/>
  <outline>
    <contour>
      <point x="235" y="0" type="line"/>
      <point x="287" y="0" type="line"/>
      <point x="316" y="182" type="line"/>
      <point x="515" y="182" type="line"/>
      <point x="522" y="227" type="line"/>
      <point x="323" y="227" type="line"/>
      <point x="340" y="332" type="line"/>
      <point x="539" y="332" type="line"/>
      <point x="546" y="377" type="line"/>
      <point x="371" y="377" type="line"/>
      <point x="377" y="369" type="line"/>
      <point x="661" y="705" type="line"/>
      <point x="598" y="705" type="line"/>
      <point x="320" y="375" type="line"/>
      <point x="316" y="375" type="line"/>
      <point x="143" y="705" type="line"/>
      <point x="84" y="705" type="line"/>
      <point x="264" y="369" type="line"/>
      <point x="274" y="377" type="line"/>
      <point x="97" y="377" type="line"/>
      <point x="90" y="332" type="line"/>
      <point x="288" y="332" type="line"/>
      <point x="271" y="227" type="line"/>
      <point x="73" y="227" type="line"/>
      <point x="66" y="182" type="line"/>
      <point x="264" y="182" type="line"/>
    </contour>
  </outline>
</glyph>
<glyph name="brokenbar" format="2">
  <advance width="302"/>
  <unicode hex="00A6"/>
  <outline>
    <contour>
      <point x="147" y="371" type="line"/>
      <point x="195" y="371" type="line"/>
      <point x="248" y="705" type="line"/>
      <point x="200" y="705" type="line"/>
    </contour>
    <contour>
      <point x="59" y="-180" type="line"/>
      <point x="107" y="-180" type="line"/>
      <point x="160" y="154" type="line"/>
      <point x="112" y="154" type="line"/>
    </contour>
  </outline>
</glyph>
<glyph name="section" format="2">
  <advance width="523"/>
  <unicode hex="00A7"/>
  <outline>
    <contour>
      <point x="175" y="-188" type="curve" smooth="yes"/>
      <point x="286" y="-188"/>
      <point x="385" y="-133"/>
      <point x="402" y="-23" type="curve" smooth="yes"/>
      <point x="410" y="31"/>
      <point x="402" y="56"/>
      <point x="396" y="68" type="curve"/>
      <point x="388" y="52" type="line"/>
      <point x="429" y="80"/>
      <point x="466" y="134"/>
      <point x="473" y="176" type="curve" smooth="yes"/>
      <point x="486" y="259"/>
      <point x="461" y="305"/>
      <point x="359" y="359" type="curve" smooth="yes"/>
      <point x="267" y="407" type="line" smooth="yes"/>
      <point x="197" y="444"/>
      <point x="179" y="482"/>
      <point x="188" y="539" type="curve" smooth="yes"/>
      <point x="201" y="621"/>
      <point x="271" y="668"/>
      <point x="352" y="668" type="curve" smooth="yes"/>
      <point x="411" y="668"/>
      <point x="471" y="647"/>
      <point x="505" y="609" type="curve"/>
      <point x="529" y="649" type="line"/>
      <point x="496" y="689"/>
      <point x="433" y="713"/>
      <point x="356" y="713" type="curve" smooth="yes"/>
      <point x="250" y="713"/>
      <point x="152" y="656"/>
      <point x="135" y="547" type="curve" smooth="yes"/>
      <point x="127" y="494"/>
      <point x="134" y="470"/>
      <point x="141" y="456" type="curve"/>
      <point x="150" y="473" type="line"/>
      <point x="109" y="445"/>
      <point x="71" y="390"/>
      <point x="64" y="349" type="curve" smooth="yes"/>
      <point x="50" y="261"/>
      <point x="82" y="215"/>
      <point x="178" y="165" type="curve" smooth="yes"/>
      <point x="270" y="117" type="line" smooth="yes"/>
      <point x="340" y="80"/>
      <point x="358" y="42"/>
      <point x="349" y="-15" type="curve" smooth="yes"/>
      <point x="336" y="-97"/>
      <point x="267" y="-143"/>
      <point x="180" y="-143" type="curve" smooth="yes"/>
      <point x="116" y="-143"/>
      <point x="53" y="-121"/>
      <point x="20" y="-83" type="curve"/>
      <point x="-4" y="-124" type="line"/>
      <point x="30" y="-164"/>
      <point x="93" y="-188"/>
    </contour>
    <contour>
      <point x="113" y="343" type="curve" smooth="yes"/>
      <point x="119" y="380"/>
      <point x="139" y="414"/>
      <point x="172" y="439" type="curve"/>
      <point x="152" y="440" type="line"/>
      <point x="166" y="412"/>
      <point x="199" y="382"/>
      <point x="251" y="354" type="curve" smooth="yes"/>
      <point x="329" y="314" type="line" smooth="yes"/>
      <point x="411" y="272"/>
      <point x="432" y="234"/>
      <point x="424" y="181" type="curve" smooth="yes"/>
      <point x="418" y="143"/>
      <point x="397" y="109"/>
      <point x="365" y="85" type="curve"/>
      <point x="385" y="84" type="line"/>
      <point x="371" y="112"/>
      <point x="340" y="142"/>
      <point x="287" y="170" type="curve" smooth="yes"/>
      <point x="208" y="210" type="line" smooth="yes"/>
      <point x="135" y="247"/>
      <point x="104" y="283"/>
    </contour>
  </outline>
</glyph>
<glyph name="copyright" format="2">
  <advance width="817"/>
  <unicode hex="00A9"/>
  <outline>
    <contour>
      <point x="426" y="-8" type="curve" smooth="yes"/>
      <point x="630" y="-8"/>
      <point x="787" y="149"/>
      <point x="787" y="353" type="curve" smooth="yes"/>
      <point x="787" y="557"/>
      <point x="630" y="713"/>
      <point x="426" y="713" type="curve" smooth="yes"/>
      <point x="221" y="713"/>
      <point x="64" y="557"/>
      <point x="64" y="353" type="curve" smooth="yes"/>
      <point x="64" y="149"/>
      <point x="222" y="-8"/>
    </contour>
    <contour>
      <point x="436" y="137" type="curve" smooth="yes"/>
      <point x="485" y="137"/>
      <point x="542" y="157"/>
      <point x="578" y="193" type="curve"/>
      <point x="558" y="231" type="line"/>
      <point x="520" y="196"/>
      <point x="477" y="181"/>
      <point x="437" y="181" type="curve" smooth="yes"/>
      <point x="341" y="181"/>
      <point x="284" y="249"/>
      <point x="284" y="355" type="curve" smooth="yes"/>
      <point x="284" y="462"/>
      <point x="341" y="524"/>
      <point x="437" y="524" type="curve" smooth="yes"/>
      <point x="477" y="524"/>
      <point x="520" y="510"/>
      <point x="558" y="475" type="curve"/>
      <point x="578" y="512" type="line"/>
      <point x="542" y="548"/>
      <point x="487" y="568"/>
      <point x="436" y="568" type="curve" smooth="yes"/>
      <point x="311" y="568"/>
      <point x="234" y="487"/>
      <point x="234" y="356" type="curve" smooth="yes"/>
      <point x="234" y="225"/>
      <point x="310" y="137"/>
    </contour>
    <contour>
      <point x="426" y="30" type="curve" smooth="yes"/>
      <point x="245" y="30"/>
      <point x="104" y="170"/>
      <point x="104" y="353" type="curve" smooth="yes"/>
      <point x="104" y="536"/>
      <point x="245" y="675"/>
      <point x="426" y="675" type="curve" smooth="yes"/>
      <point x="607" y="675"/>
      <point x="747" y="536"/>
      <point x="747" y="353" type="curve" smooth="yes"/>
      <point x="747" y="170"/>
      <point x="607" y="30"/>
    </contour>
  </outline>
</glyph>
<glyph name="ordfeminine" format="2">
  <advance width="361"/>
  <unicode hex="00AA"/>
  <outline>
    <contour>
      <point x="181" y="384" type="curve" smooth="yes"/>
      <point x="225" y="384"/>
      <point x="262" y="400"/>
      <point x="296" y="447" type="curve"/>
      <point x="298" y="447" type="line"/>
      <point x="289" y="389" type="line"/>
      <point x="332" y="389" type="line"/>
      <point x="363" y="584" type="line" smooth="yes"/>
      <point x="377" y="669"/>
      <point x="340" y="713"/>
      <point x="254" y="713" type="curve" smooth="yes"/>
      <point x="208" y="713"/>
      <point x="160" y="702"/>
      <point x="121" y="679" type="curve"/>
      <point x="131" y="640" type="line"/>
      <point x="169" y="663"/>
      <point x="210" y="673"/>
      <point x="251" y="673" type="curve" smooth="yes"/>
      <point x="305" y="673"/>
      <point x="330" y="650"/>
      <point x="321" y="596" type="curve" smooth="yes"/>
      <point x="312" y="534" type="line" smooth="yes"/>
      <point x="300" y="462"/>
      <point x="251" y="424"/>
      <point x="192" y="424" type="curve" smooth="yes"/>
      <point x="140" y="424"/>
      <point x="120" y="447"/>
      <point x="125" y="480" type="curve" smooth="yes"/>
      <point x="131" y="520"/>
      <point x="175" y="540"/>
      <point x="250" y="540" type="curve" smooth="yes"/>
      <point x="319" y="540" type="line"/>
      <point x="324" y="577" type="line"/>
      <point x="254" y="577" type="line" smooth="yes"/>
      <point x="160" y="577"/>
      <point x="90" y="545"/>
      <point x="80" y="485" type="curve" smooth="yes"/>
      <point x="71" y="428"/>
      <point x="114" y="384"/>
    </contour>
  </outline>
</glyph>
<glyph name="logicalnot" format="2">
  <advance width="600"/>
  <unicode hex="00AC"/>
  <outline>
    <contour>
      <point x="484" y="155" type="line"/>
      <point x="530" y="155" type="line"/>
      <point x="570" y="412" type="line"/>
      <point x="82" y="412" type="line"/>
      <point x="75" y="367" type="line"/>
      <point x="517" y="367" type="line"/>
    </contour>
  </outline>
</glyph>
<glyph name="registered" format="2">
  <advance width="817"/>
  <unicode hex="00AE"/>
  <outline>
    <contour>
      <point x="426" y="-8" type="curve" smooth="yes"/>
      <point x="630" y="-8"/>
      <point x="787" y="149"/>
      <point x="787" y="353" type="curve" smooth="yes"/>
      <point x="787" y="557"/>
      <point x="630" y="713"/>
      <point x="426" y="713" type="curve" smooth="yes"/>
      <point x="221" y="713"/>
      <point x="64" y="557"/>
      <point x="64" y="353" type="curve" smooth="yes"/>
      <point x="64" y="149"/>
      <point x="222" y="-8"/>
    </contour>
    <contour>
      <point x="426" y="30" type="curve" smooth="yes"/>
      <point x="245" y="30"/>
      <point x="104" y="170"/>
      <point x="104" y="353" type="curve" smooth="yes"/>
      <point x="104" y="536"/>
      <point x="245" y="675"/>
      <point x="426" y="675" type="curve" smooth="yes"/>
      <point x="607" y="675"/>
      <point x="747" y="536"/>
      <point x="747" y="353" type="curve" smooth="yes"/>
      <point x="747" y="170"/>
      <point x="607" y="30"/>
    </contour>
    <contour>
      <point x="289" y="142" type="line"/>
      <point x="337" y="142" type="line"/>
      <point x="337" y="330" type="line"/>
      <point x="325" y="321" type="line"/>
      <point x="409" y="321" type="line" smooth="yes"/>
      <point x="451" y="321"/>
      <point x="477" y="309"/>
      <point x="491" y="275" type="curve" smooth="yes"/>
      <point x="546" y="142" type="line"/>
      <point x="596" y="142" type="line"/>
      <point x="541" y="278" type="line" smooth="yes"/>
      <point x="532" y="300"/>
      <point x="520" y="317"/>
      <point x="496" y="324" type="curve"/>
      <point x="496" y="328" type="line"/>
      <point x="553" y="339"/>
      <point x="590" y="382"/>
      <point x="590" y="443" type="curve" smooth="yes"/>
      <point x="590" y="519"/>
      <point x="541" y="563"/>
      <point x="453" y="563" type="curve" smooth="yes"/>
      <point x="289" y="563" type="line"/>
    </contour>
    <contour>
      <point x="337" y="362" type="line"/>
      <point x="337" y="522" type="line"/>
      <point x="447" y="522" type="line" smooth="yes"/>
      <point x="506" y="522"/>
      <point x="542" y="501"/>
      <point x="542" y="442" type="curve" smooth="yes"/>
      <point x="542" y="382"/>
      <point x="505" y="362"/>
      <point x="447" y="362" type="curve" smooth="yes"/>
    </contour>
  </outline>
</glyph>
<glyph name="degree" format="2">
  <advance width="370"/>
  <unicode hex="00B0"/>
  <outline>
    <contour>
      <point x="236" y="426" type="curve" smooth="yes"/>
      <point x="316" y="426"/>
      <point x="379" y="488"/>
      <point x="379" y="570" type="curve" smooth="yes"/>
      <point x="379" y="651"/>
      <point x="316" y="713"/>
      <point x="236" y="713" type="curve" smooth="yes"/>
      <point x="155" y="713"/>
      <point x="93" y="650"/>
      <point x="93" y="570" type="curve" smooth="yes"/>
      <point x="93" y="489"/>
      <point x="155" y="426"/>
    </contour>
    <contour>
      <point x="236" y="470" type="curve" smooth="yes"/>
      <point x="180" y="470"/>
      <point x="140" y="511"/>
      <point x="140" y="570" type="curve" smooth="yes"/>
      <point x="140" y="628"/>
      <point x="180" y="669"/>
      <point x="236" y="669" type="curve" smooth="yes"/>
      <point x="292" y="669"/>
      <point x="332" y="628"/>
      <point x="332" y="570" type="curve" smooth="yes"/>
      <point x="332" y="511"/>
      <point x="292" y="470"/>
    </contour>
  </outline>
</glyph>
<glyph name="plusminus" format="2">
  <advance width="600"/>
  <unicode hex="00B1"/>
  <outline>
    <contour>
      <point x="256" y="113" type="line"/>
      <point x="302" y="113" type="line"/>
      <point x="332" y="300" type="line"/>
      <point x="553" y="300" type="line"/>
      <point x="559" y="344" type="line"/>
      <point x="338" y="344" type="line"/>
      <point x="368" y="528" type="line"/>
      <point x="322" y="528" type="line"/>
      <point x="292" y="344" type="line"/>
      <point x="71" y="344" type="line"/>
      <point x="65" y="300" type="line"/>
      <point x="286" y="300" type="line"/>
    </contour>
    <contour>
      <point x="17" y="0" type="line"/>
      <point x="505" y="0" type="line"/>
      <point x="512" y="45" type="line"/>
      <point x="24" y="45" type="line"/>
    </contour>
  </outline>
</glyph>
<glyph name="periodcentered" format="2">
  <advance width="252"/>
  <unicode hex="00B7"/>
  <outline>
    <contour>
      <point x="84" y="234" type="line"/>
      <point x="164" y="234" type="line"/>
      <point x="176" y="312" type="line"/>
      <point x="96" y="312" type="line"/>
    </contour>
  </outline>
</glyph>
<glyph name="ordmasculine" format="2">
  <advance width="379"/>
  <unicode hex="00BA"/>
  <outline>
    <contour>
      <point x="211" y="384" type="curve" smooth="yes"/>
      <point x="295" y="384"/>
      <point x="371" y="432"/>
      <point x="390" y="549" type="curve" smooth="yes"/>
      <point x="407" y="655"/>
      <point x="347" y="713"/>
      <point x="263" y="713" type="curve" smooth="yes"/>
      <point x="180" y="713"/>
      <point x="103" y="665"/>
      <point x="85" y="549" type="curve" smooth="yes"/>
      <point x="68" y="442"/>
      <point x="128" y="384"/>
    </contour>
    <contour>
      <point x="218" y="426" type="curve" smooth="yes"/>
      <point x="154" y="426"/>
      <point x="118" y="470"/>
      <point x="131" y="549" type="curve" smooth="yes"/>
      <point x="143" y="627"/>
      <point x="193" y="671"/>
      <point x="257" y="671" type="curve" smooth="yes"/>
      <point x="320" y="671"/>
      <point x="356" y="627"/>
      <point x="344" y="549" type="curve" smooth="yes"/>
      <point x="331" y="470"/>
      <point x="281" y="426"/>
    </contour>
  </outline>
</glyph>
<glyph name="questiondown" format="2">
  <advance width="470"/>
  <unicode hex="00BF"/>
  <outline>
    <contour>
      <point x="149" y="-187" type="curve" smooth="yes"/>
      <point x="226" y="-187"/>
      <point x="318" y="-151"/>
      <point x="384" y="-95" type="curve"/>
      <point x="367" y="-51" type="line"/>
      <point x="298" y="-108"/>
      <point x="228" y="-136"/>
      <point x="156" y="-136" type="curve" smooth="yes"/>
      <point x="79" y="-136"/>
      <point x="5" y="-115"/>
      <point x="18" y="-29" type="curve" smooth="yes"/>
      <point x="29" y="41"/>
      <point x="82" y="83"/>
      <point x="139" y="123" type="curve" smooth="yes"/>
      <point x="219" y="179"/>
      <point x="265" y="240"/>
      <point x="275" y="300" type="curve" smooth="yes"/>
      <point x="277" y="316" type="line"/>
      <point x="235" y="316" type="line"/>
      <point x="232" y="301" type="line" smooth="yes"/>
      <point x="221" y="251"/>
      <point x="189" y="214"/>
      <point x="113" y="160" type="curve" smooth="yes"/>
      <point x="52" y="116"/>
      <point x="-20" y="58"/>
      <point x="-34" y="-29" type="curve" smooth="yes"/>
      <point x="-50" y="-135"/>
      <point x="24" y="-187"/>
    </contour>
    <contour>
      <point x="231" y="416" type="line"/>
      <point x="311" y="416" type="line"/>
      <point x="323" y="494" type="line"/>
      <point x="243" y="494" type="line"/>
    </contour>
  </outline>
</glyph>
<glyph name="AE" format="2">
  <advance width="1042"/>
  <unicode hex="00C6"/>
  <guideline x="659" y="338" angle="101.863"/>
  <guideline x="753" y="413" angle="101.863"/>
  <anchor x="469" y="0" name="bottom"/>
  <anchor x="580" y="705" name="top"/>
  <outline>
    <contour>
      <point x="-27" y="0" type="line"/>
      <point x="33" y="0" type="line"/>
      <point x="189" y="208" type="line"/>
      <point x="155" y="190" type="line"/>
      <point x="560" y="190" type="line"/>
      <point x="544" y="207" type="line"/>
      <point x="554" y="0" type="line"/>
      <point x="913" y="0" type="line"/>
      <point x="921" y="50" type="line"/>
      <point x="576" y="50" type="line"/>
      <point x="602" y="20" type="line"/>
      <point x="585" y="348" type="line"/>
      <point x="550" y="332" type="line"/>
      <point x="946" y="332" type="line"/>
      <point x="954" y="382" type="line"/>
      <point x="550" y="382" type="line"/>
      <point x="584" y="366" type="line"/>
      <point x="568" y="690" type="line"/>
      <point x="545" y="655" type="line"/>
      <point x="1017" y="655" type="line"/>
      <point x="1025" y="705" type="line"/>
      <point x="495" y="705" type="line"/>
    </contour>
    <contour>
      <point x="516" y="655" type="line"/>
      <point x="521" y="655" type="line"/>
      <point x="543" y="225" type="line"/>
      <point x="550" y="240" type="line"/>
      <point x="173" y="240" type="line"/>
      <point x="202" y="225" type="line"/>
    </contour>
  </outline>
</glyph>
<glyph name="germandbls" format="2">
  <advance width="647"/>
  <unicode hex="00DF"/>
  <outline>
    <contour>
      <point x="389" y="-8" type="curve" smooth="yes"/>
      <point x="485" y="-8"/>
      <point x="565" y="47"/>
      <point x="576" y="114" type="curve" smooth="yes"/>
      <point x="589" y="194"/>
      <point x="550" y="228"/>
      <point x="453" y="269" type="curve" smooth="yes"/>
      <point x="392" y="295"/>
      <point x="376" y="317"/>
      <point x="382" y="352" type="curve" smooth="yes"/>
      <point x="386" y="379"/>
      <point x="416" y="410"/>
      <point x="461" y="449" type="curve" smooth="yes"/>
      <point x="520" y="500"/>
      <point x="550" y="535"/>
      <point x="557" y="576" type="curve" smooth="yes"/>
      <point x="570" y="661"/>
      <point x="493" y="709"/>
      <point x="392" y="709" type="curve" smooth="yes"/>
      <point x="261" y="709"/>
      <point x="168" y="639"/>
      <point x="145" y="495" type="curve" smooth="yes"/>
      <point x="67" y="0" type="line"/>
      <point x="119" y="0" type="line"/>
      <point x="198" y="496" type="line" smooth="yes"/>
      <point x="217" y="617"/>
      <point x="290" y="660"/>
      <point x="392" y="660" type="curve" smooth="yes"/>
      <point x="456" y="660"/>
      <point x="513" y="633"/>
      <point x="503" y="573" type="curve" smooth="yes"/>
      <point x="499" y="545"/>
      <point x="476" y="517"/>
      <point x="430" y="477" type="curve" smooth="yes"/>
      <point x="363" y="420"/>
      <point x="338" y="387"/>
      <point x="332" y="349" type="curve" smooth="yes"/>
      <point x="324" y="294"/>
      <point x="349" y="258"/>
      <point x="432" y="224" type="curve" smooth="yes"/>
      <point x="510" y="193"/>
      <point x="533" y="173"/>
      <point x="524" y="116" type="curve" smooth="yes"/>
      <point x="517" y="69"/>
      <point x="470" y="41"/>
      <point x="392" y="41" type="curve" smooth="yes"/>
      <point x="329" y="41"/>
      <point x="258" y="55"/>
      <point x="213" y="99" type="curve"/>
      <point x="189" y="56" type="line"/>
      <point x="226" y="14"/>
      <point x="312" y="-8"/>
    </contour>
  </outline>
</glyph>
<glyph name="ae" format="2">
  <advance width="995"/>
  <unicode hex="00E6"/>
  <anchor x="445" y="0" name="bottom"/>
  <anchor x="542" y="484" name="top"/>
  <outline>
    <contour>
      <point x="222" y="-8" type="curve" smooth="yes"/>
      <point x="344" y="-8"/>
      <point x="427" y="49"/>
      <point x="474" y="133" type="curve"/>
      <point x="479" y="133" type="line"/>
      <point x="488" y="58"/>
      <point x="558" y="-8"/>
      <point x="683" y="-8" type="curve" smooth="yes"/>
      <point x="758" y="-8"/>
      <point x="834" y="13"/>
      <point x="888" y="57" type="curve"/>
      <point x="864" y="97" type="line"/>
      <point x="803" y="56"/>
      <point x="755" y="41"/>
      <point x="683" y="41" type="curve" smooth="yes"/>
      <point x="555" y="41"/>
      <point x="496" y="125"/>
      <point x="515" y="245" type="curve"/>
      <point x="516" y="253" type="line" smooth="yes"/>
      <point x="536" y="376"/>
      <point x="621" y="454"/>
      <point x="735" y="454" type="curve" smooth="yes"/>
      <point x="847" y="454"/>
      <point x="893" y="378"/>
      <point x="874" y="256" type="curve"/>
      <point x="903" y="281" type="line"/>
      <point x="501" y="281" type="line"/>
      <point x="493" y="234" type="line"/>
      <point x="919" y="234" type="line"/>
      <point x="921" y="248" type="line" smooth="yes"/>
      <point x="945" y="399"/>
      <point x="885" y="502"/>
      <point x="739" y="502" type="curve" smooth="yes"/>
      <point x="649" y="502"/>
      <point x="571" y="458"/>
      <point x="527" y="392" type="curve"/>
      <point x="523" y="392" type="line"/>
      <point x="510" y="454"/>
      <point x="451" y="502"/>
      <point x="349" y="502" type="curve" smooth="yes"/>
      <point x="279" y="502"/>
      <point x="196" y="481"/>
      <point x="132" y="443" type="curve"/>
      <point x="152" y="399" type="line"/>
      <point x="219" y="438"/>
      <point x="282" y="453"/>
      <point x="346" y="453" type="curve" smooth="yes"/>
      <point x="442" y="453"/>
      <point x="491" y="409"/>
      <point x="477" y="324" type="curve" smooth="yes"/>
      <point x="458" y="205" type="line" smooth="yes"/>
      <point x="445" y="119"/>
      <point x="345" y="41"/>
      <point x="232" y="41" type="curve" smooth="yes"/>
      <point x="163" y="41"/>
      <point x="111" y="76"/>
      <point x="121" y="137" type="curve" smooth="yes"/>
      <point x="133" y="216"/>
      <point x="209" y="234"/>
      <point x="392" y="234" type="curve" smooth="yes"/>
      <point x="487" y="234" type="line"/>
      <point x="495" y="281" type="line"/>
      <point x="398" y="281" type="line" smooth="yes"/>
      <point x="194" y="281"/>
      <point x="86" y="253"/>
      <point x="69" y="143" type="curve" smooth="yes"/>
      <point x="55" y="54"/>
      <point x="121" y="-8"/>
    </contour>
  </outline>
</glyph>
<glyph name="eth" format="2">
  <advance width="605"/>
  <unicode hex="00F0"/>
  <outline>
    <contour>
      <point x="278" y="-7" type="curve" smooth="yes"/>
      <point x="417" y="-7"/>
      <point x="522" y="100"/>
      <point x="549" y="272" type="curve" smooth="yes"/>
      <point x="574" y="429"/>
      <point x="530" y="551"/>
      <point x="430" y="632" type="curve"/>
      <point x="428" y="622" type="line"/>
      <point x="542" y="667" type="line"/>
      <point x="529" y="710" type="line"/>
      <point x="385" y="653" type="line"/>
      <point x="402" y="652" type="line"/>
      <point x="365" y="676"/>
      <point x="322" y="696"/>
      <point x="272" y="710" type="curve"/>
      <point x="249" y="665" type="line"/>
      <point x="284" y="655"/>
      <point x="315" y="642"/>
      <point x="342" y="626" type="curve"/>
      <point x="344" y="637" type="line"/>
      <point x="207" y="583" type="line"/>
      <point x="220" y="540" type="line"/>
      <point x="388" y="606" type="line"/>
      <point x="374" y="606" type="line"/>
      <point x="464" y="545"/>
      <point x="512" y="457"/>
      <point x="506" y="360" type="curve"/>
      <point x="502" y="360" type="line"/>
      <point x="481" y="422"/>
      <point x="423" y="465"/>
      <point x="336" y="465" type="curve" smooth="yes"/>
      <point x="204" y="465"/>
      <point x="95" y="376"/>
      <point x="73" y="239" type="curve" smooth="yes"/>
      <point x="51" y="97"/>
      <point x="128" y="-7"/>
    </contour>
    <contour>
      <point x="275" y="42" type="curve" smooth="yes"/>
      <point x="167" y="42"/>
      <point x="107" y="117"/>
      <point x="124" y="229" type="curve" smooth="yes"/>
      <point x="142" y="341"/>
      <point x="226" y="416"/>
      <point x="335" y="416" type="curve" smooth="yes"/>
      <point x="449" y="416"/>
      <point x="505" y="347"/>
      <point x="486" y="229" type="curve" smooth="yes"/>
      <point x="468" y="111"/>
      <point x="389" y="42"/>
    </contour>
  </outline>
</glyph>
<glyph name="divide" format="2">
  <advance width="600"/>
  <unicode hex="00F7"/>
  <outline>
    <contour>
      <point x="58" y="261" type="line"/>
      <point x="546" y="261" type="line"/>
      <point x="553" y="306" type="line"/>
      <point x="65" y="306" type="line"/>
    </contour>
    <contour>
      <point x="219" y="40" type="line"/>
      <point x="303" y="40" type="line"/>
      <point x="317" y="125" type="line"/>
      <point x="233" y="125" type="line"/>
    </contour>
    <contour>
      <point x="283" y="442" type="line"/>
      <point x="367" y="442" type="line"/>
      <point x="380" y="527" type="line"/>
      <point x="296" y="527" type="line"/>
    </contour>
  </outline>
</glyph>
<glyph name="dcroat" format="2">
  <advance width="664"/>
  <unicode hex="0111"/>
  <outline>
    <contour>
      <point x="266" y="-8" type="curve" smooth="yes"/>
      <point x="352" y="-8"/>
      <point x="426" y="26"/>
      <point x="469" y="110" type="curve"/>
      <point x="474" y="110" type="line"/>
      <point x="457" y="0" type="line"/>
      <point x="506" y="0" type="line"/>
      <point x="595" y="560" type="line"/>
      <point x="688" y="560" type="line"/>
      <point x="695" y="605" type="line"/>
      <point x="602" y="605" type="line"/>
      <point x="618" y="705" type="line"/>
      <point x="566" y="705" type="line"/>
      <point x="550" y="605" type="line"/>
      <point x="352" y="605" type="line"/>
      <point x="345" y="560" type="line"/>
      <point x="543" y="560" type="line"/>
      <point x="514" y="378" type="line"/>
      <point x="509" y="378" type="line"/>
      <point x="490" y="451"/>
      <point x="430" y="494"/>
      <point x="345" y="494" type="curve" smooth="yes"/>
      <point x="207" y="494"/>
      <point x="98" y="397"/>
      <point x="75" y="253" type="curve" smooth="yes"/>
      <point x="50" y="95"/>
      <point x="128" y="-8"/>
    </contour>
    <contour>
      <point x="277" y="41" type="curve" smooth="yes"/>
      <point x="164" y="41"/>
      <point x="107" y="119"/>
      <point x="126" y="242" type="curve" smooth="yes"/>
      <point x="145" y="362"/>
      <point x="229" y="445"/>
      <point x="342" y="445" type="curve" smooth="yes"/>
      <point x="454" y="445"/>
      <point x="511" y="362"/>
      <point x="492" y="242" type="curve" smooth="yes"/>
      <point x="473" y="119"/>
      <point x="390" y="41"/>
    </contour>
  </outline>
</glyph>
<glyph name="hbar" format="2">
  <advance width="643"/>
  <unicode hex="0127"/>
  <outline>
    <contour>
      <point x="77" y="0" type="line"/>
      <point x="129" y="0" type="line"/>
      <point x="173" y="277" type="line" smooth="yes"/>
      <point x="186" y="362"/>
      <point x="277" y="445"/>
      <point x="383" y="445" type="curve" smooth="yes"/>
      <point x="485" y="445"/>
      <point x="509" y="382"/>
      <point x="496" y="303" type="curve" smooth="yes"/>
      <point x="448" y="0" type="line"/>
      <point x="500" y="0" type="line"/>
      <point x="549" y="307" type="line" smooth="yes"/>
      <point x="567" y="420"/>
      <point x="516" y="494"/>
      <point x="391" y="494" type="curve" smooth="yes"/>
      <point x="310" y="494"/>
      <point x="234" y="457"/>
      <point x="194" y="376" type="curve"/>
      <point x="189" y="376" type="line"/>
      <point x="218" y="560" type="line"/>
      <point x="416" y="560" type="line"/>
      <point x="423" y="605" type="line"/>
      <point x="225" y="605" type="line"/>
      <point x="241" y="705" type="line"/>
      <point x="189" y="705" type="line"/>
      <point x="173" y="605" type="line"/>
      <point x="80" y="605" type="line"/>
      <point x="73" y="560" type="line"/>
      <point x="166" y="560" type="line"/>
    </contour>
  </outline>
</glyph>
<glyph name="idotless" format="2">
  <advance width="264"/>
  <unicode hex="0131"/>
  <anchor x="93" y="0" name="bottom"/>
  <anchor x="119" y="0" name="ogonek"/>
  <anchor x="170" y="484" name="top"/>
  <outline>
    <contour>
      <point x="67" y="0" type="line"/>
      <point x="119" y="0" type="line"/>
      <point x="197" y="494" type="line"/>
      <point x="145" y="494" type="line"/>
    </contour>
  </outline>
</glyph>
<glyph name="kgreenlandic" format="2">
  <advance width="527"/>
  <unicode hex="0138"/>
  <anchor x="248" y="0" name="bottom"/>
  <anchor x="325" y="484" name="top"/>
  <outline>
    <contour>
      <point x="67" y="0" type="line"/>
      <point x="119" y="0" type="line"/>
      <point x="157" y="238" type="line"/>
      <point x="161" y="238" type="line"/>
      <point x="408" y="0" type="line"/>
      <point x="478" y="0" type="line"/>
      <point x="198" y="271" type="line"/>
      <point x="203" y="240" type="line"/>
      <point x="524" y="494" type="line"/>
      <point x="446" y="494" type="line"/>
      <point x="166" y="269" type="line"/>
      <point x="162" y="269" type="line"/>
      <point x="197" y="494" type="line"/>
      <point x="145" y="494" type="line"/>
    </contour>
  </outline>
</glyph>
<glyph name="Eng" format="2">
  <advance width="824"/>
  <unicode hex="014A"/>
  <anchor x="377" y="0" name="bottom"/>
  <anchor x="489" y="705" name="top"/>
  <outline>
    <contour>
      <point x="437" y="-193" type="line"/>
      <point x="481" y="-188" type="line" smooth="yes"/>
      <point x="577" y="-177"/>
      <point x="644" y="-120"/>
      <point x="660" y="-21" type="curve" smooth="yes"/>
      <point x="775" y="705" type="line"/>
      <point x="725" y="705" type="line"/>
      <point x="625" y="74" type="line"/>
      <point x="621" y="74" type="line"/>
      <point x="247" y="705" type="line"/>
      <point x="195" y="705" type="line"/>
      <point x="83" y="0" type="line"/>
      <point x="133" y="0" type="line"/>
      <point x="233" y="631" type="line"/>
      <point x="237" y="631" type="line"/>
      <point x="618" y="-16" type="line"/>
      <point x="620" y="45" type="line"/>
      <point x="609" y="-23" type="line" smooth="yes"/>
      <point x="597" y="-103"/>
      <point x="553" y="-131"/>
      <point x="484" y="-139" type="curve" smooth="yes"/>
      <point x="442" y="-144" type="line"/>
    </contour>
  </outline>
</glyph>
<glyph name="eng" format="2">
  <advance width="633"/>
  <unicode hex="014B"/>
  <outline>
    <contour>
      <point x="254" y="-193" type="line"/>
      <point x="308" y="-187" type="line" smooth="yes"/>
      <point x="405" y="-176"/>
      <point x="470" y="-124"/>
      <point x="487" y="-21" type="curve" smooth="yes"/>
      <point x="540" y="315" type="line" smooth="yes"/>
      <point x="558" y="428"/>
      <point x="507" y="502"/>
      <point x="381" y="502" type="curve" smooth="yes"/>
      <point x="300" y="502"/>
      <point x="226" y="465"/>
      <point x="182" y="384" type="curve"/>
      <point x="177" y="384" type="line"/>
      <point x="194" y="494" type="line"/>
      <point x="145" y="494" type="line"/>
      <point x="67" y="0" type="line"/>
      <point x="119" y="0" type="line"/>
      <point x="164" y="285" type="line" smooth="yes"/>
      <point x="178" y="370"/>
      <point x="267" y="453"/>
      <point x="373" y="453" type="curve" smooth="yes"/>
      <point x="478" y="453"/>
      <point x="500" y="390"/>
      <point x="487" y="311" type="curve" smooth="yes"/>
      <point x="435" y="-22" type="line" smooth="yes"/>
      <point x="422" y="-100"/>
      <point x="378" y="-130"/>
      <point x="311" y="-138" type="curve" smooth="yes"/>
      <point x="259" y="-144" type="line"/>
    </contour>
  </outline>
</glyph>
<glyph name="OE" format="2">
  <advance width="1143"/>
  <unicode hex="0152"/>
  <anchor x="592" y="0" name="bottom"/>
  <anchor x="704" y="705" name="top"/>
  <outline>
    <contour>
      <point x="395" y="0" type="curve" smooth="yes"/>
      <point x="1014" y="0" type="line"/>
      <point x="1022" y="50" type="line"/>
      <point x="630" y="50" type="line"/>
      <point x="675" y="332" type="line"/>
      <point x="1047" y="332" type="line"/>
      <point x="1055" y="382" type="line"/>
      <point x="683" y="382" type="line"/>
      <point x="726" y="655" type="line"/>
      <point x="1118" y="655" type="line"/>
      <point x="1126" y="705" type="line"/>
      <point x="507" y="705" type="line" smooth="yes"/>
      <point x="287" y="705"/>
      <point x="144" y="588"/>
      <point x="108" y="362" type="curve" smooth="yes"/>
      <point x="72" y="136"/>
      <point x="173" y="0"/>
    </contour>
    <contour>
      <point x="404" y="50" type="line" smooth="yes"/>
      <point x="214" y="50"/>
      <point x="128" y="144"/>
      <point x="161" y="352" type="curve" smooth="yes"/>
      <point x="194" y="560"/>
      <point x="311" y="655"/>
      <point x="500" y="655" type="curve" smooth="yes"/>
      <point x="674" y="655" type="line"/>
      <point x="578" y="50" type="line"/>
    </contour>
  </outline>
</glyph>
<glyph name="oe" format="2">
  <advance width="1026"/>
  <unicode hex="0153"/>
  <anchor x="479" y="0" name="bottom"/>
  <anchor x="556" y="484" name="top"/>
  <outline>
    <contour>
      <point x="275" y="-8" type="curve" smooth="yes"/>
      <point x="374" y="-8"/>
      <point x="465" y="54"/>
      <point x="500" y="146" type="curve"/>
      <point x="504" y="146" type="line"/>
      <point x="517" y="44"/>
      <point x="598" y="-8"/>
      <point x="709" y="-8" type="curve" smooth="yes"/>
      <point x="788" y="-8"/>
      <point x="861" y="10"/>
      <point x="919" y="57" type="curve"/>
      <point x="895" y="97" type="line"/>
      <point x="834" y="51"/>
      <point x="777" y="41"/>
      <point x="709" y="41" type="curve" smooth="yes"/>
      <point x="598" y="41"/>
      <point x="523" y="104"/>
      <point x="546" y="248" type="curve" smooth="yes"/>
      <point x="548" y="256" type="line" smooth="yes"/>
      <point x="567" y="379"/>
      <point x="656" y="454"/>
      <point x="766" y="454" type="curve" smooth="yes"/>
      <point x="884" y="454"/>
      <point x="922" y="364"/>
      <point x="905" y="256" type="curve"/>
      <point x="934" y="281" type="line"/>
      <point x="533" y="281" type="line"/>
      <point x="525" y="234" type="line"/>
      <point x="950" y="234" type="line"/>
      <point x="955" y="268" type="line" smooth="yes"/>
      <point x="976" y="396"/>
      <point x="907" y="502"/>
      <point x="770" y="502" type="curve" smooth="yes"/>
      <point x="663" y="502"/>
      <point x="575" y="444"/>
      <point x="535" y="347" type="curve"/>
      <point x="531" y="347" type="line"/>
      <point x="519" y="444"/>
      <point x="446" y="502"/>
      <point x="346" y="502" type="curve" smooth="yes"/>
      <point x="209" y="502"/>
      <point x="99" y="405"/>
      <point x="76" y="258" type="curve" smooth="yes"/>
      <point x="51" y="99"/>
      <point x="128" y="-8"/>
    </contour>
    <contour>
      <point x="276" y="41" type="curve" smooth="yes"/>
      <point x="167" y="41"/>
      <point x="108" y="124"/>
      <point x="127" y="248" type="curve" smooth="yes"/>
      <point x="147" y="371"/>
      <point x="233" y="453"/>
      <point x="343" y="453" type="curve" smooth="yes"/>
      <point x="453" y="453"/>
      <point x="513" y="371"/>
      <point x="493" y="248" type="curve" smooth="yes"/>
      <point x="474" y="124"/>
      <point x="386" y="41"/>
    </contour>
  </outline>
</glyph>
<glyph name="Bhook" format="2">
  <advance width="843"/>
  <unicode hex="0181"/>
  <outline>
    <contour>
      <point x="194" y="0" type="line"/>
      <point x="483" y="0" type="line" smooth="yes"/>
      <point x="629" y="0"/>
      <point x="719" y="55"/>
      <point x="739" y="181" type="curve" smooth="yes"/>
      <point x="757" y="293"/>
      <point x="697" y="350"/>
      <point x="637" y="360" type="curve"/>
      <point x="638" y="364" type="line"/>
      <point x="702" y="376"/>
      <point x="763" y="431"/>
      <point x="777" y="515" type="curve" smooth="yes"/>
      <point x="798" y="641"/>
      <point x="726" y="705"/>
      <point x="574" y="705" type="curve" smooth="yes"/>
      <point x="259" y="705" type="line" smooth="yes"/>
      <point x="152" y="705"/>
      <point x="91" y="654"/>
      <point x="74" y="551" type="curve" smooth="yes"/>
      <point x="67" y="506" type="line"/>
      <point x="117" y="506" type="line"/>
      <point x="124" y="548" type="line" smooth="yes"/>
      <point x="137" y="629"/>
      <point x="169" y="658"/>
      <point x="250" y="658" type="curve" smooth="yes"/>
      <point x="298" y="658" type="line"/>
    </contour>
    <contour>
      <point x="254" y="50" type="line"/>
      <point x="299" y="332" type="line"/>
      <point x="535" y="332" type="line" smooth="yes"/>
      <point x="649" y="332"/>
      <point x="703" y="286"/>
      <point x="687" y="186" type="curve" smooth="yes"/>
      <point x="674" y="98"/>
      <point x="613" y="50"/>
      <point x="490" y="50" type="curve" smooth="yes"/>
    </contour>
    <contour>
      <point x="307" y="382" type="line"/>
      <point x="350" y="655" type="line"/>
      <point x="571" y="655" type="line" smooth="yes"/>
      <point x="692" y="655"/>
      <point x="739" y="611"/>
      <point x="725" y="526" type="curve" smooth="yes"/>
      <point x="710" y="430"/>
      <point x="644" y="382"/>
      <point x="528" y="382" type="curve" smooth="yes"/>
    </contour>
  </outline>
</glyph>
<glyph name="Dhook" format="2">
  <advance width="894"/>
  <unicode hex="018A"/>
  <outline>
    <contour>
      <point x="194" y="0" type="line"/>
      <point x="421" y="0" type="line" smooth="yes"/>
      <point x="641" y="0"/>
      <point x="785" y="117"/>
      <point x="820" y="343" type="curve" smooth="yes"/>
      <point x="857" y="579"/>
      <point x="755" y="705"/>
      <point x="523" y="705" type="curve" smooth="yes"/>
      <point x="259" y="705" type="line" smooth="yes"/>
      <point x="152" y="705"/>
      <point x="91" y="654"/>
      <point x="74" y="551" type="curve" smooth="yes"/>
      <point x="67" y="506" type="line"/>
      <point x="117" y="506" type="line"/>
      <point x="124" y="548" type="line" smooth="yes"/>
      <point x="137" y="629"/>
      <point x="169" y="658"/>
      <point x="250" y="658" type="curve" smooth="yes"/>
      <point x="298" y="658" type="line"/>
    </contour>
    <contour>
      <point x="254" y="50" type="line"/>
      <point x="350" y="655" type="line"/>
      <point x="524" y="655" type="line" smooth="yes"/>
      <point x="714" y="655"/>
      <point x="800" y="561"/>
      <point x="767" y="353" type="curve" smooth="yes"/>
      <point x="734" y="145"/>
      <point x="617" y="50"/>
      <point x="428" y="50" type="curve" smooth="yes"/>
    </contour>
  </outline>
</glyph>
<glyph name="Schwa" format="2">
  <advance width="809"/>
  <unicode hex="018F"/>
  <anchor x="365" y="0" name="bottom"/>
  <anchor x="468" y="705" name="top"/>
  <outline>
    <contour>
      <point x="374" y="-8" type="curve" smooth="yes"/>
      <point x="548" y="-8"/>
      <point x="699" y="119"/>
      <point x="735" y="343" type="curve" smooth="yes"/>
      <point x="775" y="596"/>
      <point x="658" y="713"/>
      <point x="459" y="713" type="curve" smooth="yes"/>
      <point x="362" y="713"/>
      <point x="237" y="678"/>
      <point x="169" y="618" type="curve"/>
      <point x="188" y="573" type="line"/>
      <point x="263" y="634"/>
      <point x="373" y="663"/>
      <point x="463" y="663" type="curve" smooth="yes"/>
      <point x="643" y="663"/>
      <point x="714" y="551"/>
      <point x="683" y="353" type="curve" smooth="yes"/>
      <point x="651" y="151"/>
      <point x="532" y="43"/>
      <point x="372" y="43" type="curve" smooth="yes"/>
      <point x="214" y="43"/>
      <point x="127" y="151"/>
      <point x="160" y="353" type="curve"/>
      <point x="135" y="332" type="line"/>
      <point x="717" y="332" type="line"/>
      <point x="724" y="381" type="line"/>
      <point x="110" y="381" type="line"/>
      <point x="105" y="348" type="line" smooth="yes"/>
      <point x="72" y="131"/>
      <point x="182" y="-8"/>
    </contour>
  </outline>
</glyph>
<glyph name="gstroke" format="2">
  <advance width="649"/>
  <unicode hex="01E5"/>
  <outline>
    <contour>
      <point x="246" y="-187" type="curve" smooth="yes"/>
      <point x="341" y="-187"/>
      <point x="426" y="-141"/>
      <point x="473" y="-66" type="curve"/>
      <point x="464" y="-72" type="line"/>
      <point x="580" y="-72" type="line"/>
      <point x="587" y="-27" type="line"/>
      <point x="482" y="-27" type="line"/>
      <point x="488" y="-36" type="line"/>
      <point x="499" y="-14"/>
      <point x="506" y="10"/>
      <point x="510" y="35" type="curve" smooth="yes"/>
      <point x="582" y="494" type="line"/>
      <point x="533" y="494" type="line"/>
      <point x="515" y="381" type="line"/>
      <point x="510" y="381" type="line"/>
      <point x="495" y="454"/>
      <point x="434" y="502"/>
      <point x="351" y="502" type="curve" smooth="yes"/>
      <point x="207" y="502"/>
      <point x="100" y="409"/>
      <point x="79" y="276" type="curve" smooth="yes"/>
      <point x="56" y="133"/>
      <point x="132" y="30"/>
      <point x="276" y="30" type="curve" smooth="yes"/>
      <point x="359" y="30"/>
      <point x="433" y="66"/>
      <point x="470" y="144" type="curve"/>
      <point x="477" y="144" type="line"/>
      <point x="459" y="29" type="line" smooth="yes"/>
      <point x="455" y="6"/>
      <point x="448" y="-14"/>
      <point x="438" y="-33" type="curve"/>
      <point x="450" y="-27" type="line"/>
      <point x="252" y="-27" type="line"/>
      <point x="245" y="-72" type="line"/>
      <point x="421" y="-72" type="line"/>
      <point x="419" y="-62" type="line"/>
      <point x="381" y="-110"/>
      <point x="321" y="-138"/>
      <point x="250" y="-138" type="curve" smooth="yes"/>
      <point x="188" y="-138"/>
      <point x="114" y="-123"/>
      <point x="65" y="-85" type="curve"/>
      <point x="41" y="-128" type="line"/>
      <point x="87" y="-169"/>
      <point x="170" y="-187"/>
    </contour>
    <contour>
      <point x="284" y="79" type="curve" smooth="yes"/>
      <point x="172" y="79"/>
      <point x="113" y="158"/>
      <point x="130" y="266" type="curve" smooth="yes"/>
      <point x="147" y="374"/>
      <point x="231" y="453"/>
      <point x="343" y="453" type="curve" smooth="yes"/>
      <point x="455" y="453"/>
      <point x="513" y="374"/>
      <point x="495" y="256" type="curve" smooth="yes"/>
      <point x="479" y="158"/>
      <point x="396" y="79"/>
    </contour>
  </outline>
</glyph>
<glyph name="dhook" format="2">
  <advance width="651"/>
  <unicode hex="0257"/>
  <outline>
    <contour>
      <point x="266" y="-8" type="curve" smooth="yes"/>
      <point x="352" y="-8"/>
      <point x="426" y="26"/>
      <point x="469" y="110" type="curve"/>
      <point x="474" y="110" type="line"/>
      <point x="457" y="0" type="line"/>
      <point x="506" y="0" type="line"/>
      <point x="594" y="555" type="line" smooth="yes"/>
      <point x="605" y="625"/>
      <point x="635" y="666"/>
      <point x="703" y="666" type="curve" smooth="yes"/>
      <point x="727" y="666"/>
      <point x="757" y="663"/>
      <point x="771" y="656" type="curve"/>
      <point x="784" y="702" type="line"/>
      <point x="767" y="709"/>
      <point x="737" y="713"/>
      <point x="709" y="713" type="curve" smooth="yes"/>
      <point x="615" y="713"/>
      <point x="557" y="650"/>
      <point x="542" y="553" type="curve" smooth="yes"/>
      <point x="515" y="386" type="line"/>
      <point x="510" y="386" type="line"/>
      <point x="492" y="459"/>
      <point x="432" y="502"/>
      <point x="347" y="502" type="curve" smooth="yes"/>
      <point x="209" y="502"/>
      <point x="99" y="406"/>
      <point x="76" y="257" type="curve" smooth="yes"/>
      <point x="50" y="99"/>
      <point x="128" y="-8"/>
    </contour>
    <contour>
      <point x="277" y="41" type="curve" smooth="yes"/>
      <point x="164" y="41"/>
      <point x="107" y="123"/>
      <point x="127" y="246" type="curve" smooth="yes"/>
      <point x="147" y="370"/>
      <point x="231" y="453"/>
      <point x="344" y="453" type="curve" smooth="yes"/>
      <point x="456" y="453"/>
      <point x="513" y="370"/>
      <point x="493" y="246" type="curve" smooth="yes"/>
      <point x="473" y="123"/>
      <point x="390" y="41"/>
    </contour>
  </outline>
</glyph>
<glyph name="schwa" format="2">
  <advance width="607"/>
  <unicode hex="0259"/>
  <outline>
    <contour>
      <point x="261" y="-8" type="curve" smooth="yes"/>
      <point x="412" y="-8"/>
      <point x="509" y="94"/>
      <point x="532" y="236" type="curve" smooth="yes"/>
      <point x="559" y="406"/>
      <point x="471" y="502"/>
      <point x="313" y="502" type="curve" smooth="yes"/>
      <point x="247" y="502"/>
      <point x="166" y="484"/>
      <point x="107" y="437" type="curve"/>
      <point x="131" y="397" type="line"/>
      <point x="192" y="443"/>
      <point x="257" y="453"/>
      <point x="312" y="453" type="curve" smooth="yes"/>
      <point x="431" y="453"/>
      <point x="501" y="378"/>
      <point x="480" y="246" type="curve" smooth="yes"/>
      <point x="479" y="238" type="line" smooth="yes"/>
      <point x="459" y="115"/>
      <point x="368" y="40"/>
      <point x="264" y="40" type="curve" smooth="yes"/>
      <point x="154" y="40"/>
      <point x="103" y="115"/>
      <point x="125" y="238" type="curve"/>
      <point x="93" y="213" type="line"/>
      <point x="494" y="213" type="line"/>
      <point x="501" y="260" type="line"/>
      <point x="76" y="260" type="line"/>
      <point x="74" y="246" type="line" smooth="yes"/>
      <point x="54" y="105"/>
      <point x="108" y="-8"/>
    </contour>
  </outline>
</glyph>
<glyph name="commaturnedmod" format="2">
  <advance width="500"/>
  <unicode hex="02BB"/>
  <anchor x="288" y="484" name="_top"/>
  <anchor x="319" y="685" name="top"/>
  <outline>
    <contour>
      <point x="261" y="570" type="line"/>
      <point x="341" y="570" type="line"/>
      <point x="354" y="648" type="line"/>
      <point x="307" y="648" type="line"/>
      <point x="312" y="640" type="line"/>
      <point x="318" y="677"/>
      <point x="331" y="710"/>
      <point x="368" y="741" type="curve"/>
      <point x="342" y="766" type="line"/>
      <point x="302" y="729"/>
      <point x="279" y="684"/>
      <point x="271" y="631" type="curve" smooth="yes"/>
    </contour>
  </outline>
</glyph>
<glyph name="apostrophemod" format="2">
  <advance width="300"/>
  <unicode hex="02BC"/>
  <outline>
    <contour>
      <point x="188" y="547" type="line"/>
      <point x="227" y="584"/>
      <point x="251" y="629"/>
      <point x="259" y="682" type="curve" smooth="yes"/>
      <point x="269" y="743" type="line"/>
      <point x="189" y="743" type="line"/>
      <point x="176" y="665" type="line"/>
      <point x="223" y="665" type="line"/>
      <point x="218" y="673" type="line"/>
      <point x="212" y="636"/>
      <point x="199" y="603"/>
      <point x="162" y="572" type="curve"/>
    </contour>
  </outline>
</glyph>
<glyph name="ringhalfleft" format="2">
  <advance width="500"/>
  <unicode hex="02BF"/>
  <anchor x="288" y="484" name="_top"/>
  <anchor x="319" y="685" name="top"/>
  <outline>
    <contour>
      <point x="300" y="561" type="curve"/>
      <point x="307" y="603" type="line"/>
      <point x="273" y="603"/>
      <point x="252" y="625"/>
      <point x="257" y="659" type="curve" smooth="yes"/>
      <point x="263" y="693"/>
      <point x="290" y="715"/>
      <point x="324" y="715" type="curve"/>
      <point x="331" y="757" type="line"/>
      <point x="269" y="757"/>
      <point x="219" y="718"/>
      <point x="209" y="659" type="curve" smooth="yes"/>
      <point x="200" y="600"/>
      <point x="238" y="561"/>
    </contour>
  </outline>
</glyph>
<glyph name="firsttonechinese" format="2">
  <advance width="500"/>
  <unicode hex="02C9"/>
  <anchor x="288" y="484" name="_top"/>
  <anchor x="322" y="699" name="top"/>
  <outline>
    <contour>
      <point x="159" y="643" type="line"/>
      <point x="467" y="643" type="line"/>
      <point x="474" y="688" type="line"/>
      <point x="166" y="688" type="line"/>
    </contour>
  </outline>
</glyph>
<glyph name="secondtonechinese" format="2">
  <advance width="500"/>
  <unicode hex="02CA"/>
  <anchor x="288" y="484" name="_top"/>
  <anchor x="319" y="685" name="top"/>
  <outline>
    <contour>
      <point x="279" y="560" type="line"/>
      <point x="321" y="560" type="line"/>
      <point x="476" y="749" type="line"/>
      <point x="413" y="749" type="line"/>
    </contour>
  </outline>
</glyph>
<glyph name="verticallinelowmod" format="2">
  <advance width="500"/>
  <unicode hex="02CC"/>
  <outline>
    <contour>
      <point x="144" y="-270" type="line"/>
      <point x="192" y="-270" type="line"/>
      <point x="224" y="-72" type="line"/>
      <point x="176" y="-72" type="line"/>
    </contour>
  </outline>
</glyph>
<glyph name="circumflexcomb" format="2">
  <unicode hex="0302"/>
  <anchor x="38" y="484" name="_top"/>
  <anchor x="69" y="685" name="top"/>
  <outline>
    <contour>
      <point x="-86" y="570" type="line"/>
      <point x="-45" y="570" type="line"/>
      <point x="73" y="706" type="line"/>
      <point x="148" y="570" type="line"/>
      <point x="188" y="570" type="line"/>
      <point x="108" y="749" type="line"/>
      <point x="52" y="749" type="line"/>
    </contour>
  </outline>
</glyph>
<glyph name="tildecomb" format="2">
  <unicode hex="0303"/>
  <anchor x="38" y="484" name="_top"/>
  <anchor x="71" y="695" name="top"/>
  <outline>
    <contour>
      <point x="-75" y="604" type="line"/>
      <point x="-59" y="658"/>
      <point x="-36" y="686"/>
      <point x="-1" y="686" type="curve" smooth="yes"/>
      <point x="19" y="686"/>
      <point x="34" y="670"/>
      <point x="50" y="652" type="curve" smooth="yes"/>
      <point x="70" y="630"/>
      <point x="93" y="606"/>
      <point x="130" y="606" type="curve" smooth="yes"/>
      <point x="183" y="606"/>
      <point x="227" y="651"/>
      <point x="248" y="730" type="curve"/>
      <point x="209" y="733" type="line"/>
      <point x="192" y="678"/>
      <point x="170" y="650"/>
      <point x="135" y="650" type="curve" smooth="yes"/>
      <point x="115" y="650"/>
      <point x="99" y="666"/>
      <point x="83" y="684" type="curve" smooth="yes"/>
      <point x="63" y="706"/>
      <point x="41" y="730"/>
      <point x="5" y="730" type="curve" smooth="yes"/>
      <point x="-50" y="730"/>
      <point x="-94" y="685"/>
      <point x="-114" y="606" type="curve"/>
    </contour>
  </outline>
</glyph>
<glyph name="macroncomb" format="2">
  <unicode hex="0304"/>
  <anchor x="38" y="484" name="_top"/>
  <anchor x="71" y="695" name="top"/>
  <outline>
    <contour>
      <point x="-91" y="643" type="line"/>
      <point x="217" y="643" type="line"/>
      <point x="224" y="688" type="line"/>
      <point x="-84" y="688" type="line"/>
    </contour>
  </outline>
</glyph>
<glyph name="brevecomb" format="2">
  <unicode hex="0306"/>
  <anchor x="38" y="484" name="_top"/>
  <anchor x="71" y="695" name="top"/>
  <outline>
    <contour>
      <point x="49" y="557" type="curve" smooth="yes"/>
      <point x="133" y="557"/>
      <point x="200" y="628"/>
      <point x="226" y="745" type="curve"/>
      <point x="185" y="750" type="line"/>
      <point x="164" y="653"/>
      <point x="120" y="602"/>
      <point x="56" y="602" type="curve" smooth="yes"/>
      <point x="-9" y="602"/>
      <point x="-36" y="653"/>
      <point x="-25" y="750" type="curve"/>
      <point x="-68" y="745" type="line"/>
      <point x="-80" y="628"/>
      <point x="-36" y="557"/>
    </contour>
  </outline>
</glyph>
<glyph name="dotaccentcomb" format="2">
  <unicode hex="0307"/>
  <anchor x="38" y="484" name="_top"/>
  <anchor x="73" y="705" name="top"/>
  <outline>
    <contour>
      <point x="26" y="629" type="line"/>
      <point x="96" y="629" type="line"/>
      <point x="107" y="699" type="line"/>
      <point x="37" y="699" type="line"/>
    </contour>
  </outline>
</glyph>
<glyph name="dieresiscomb" format="2">
  <unicode hex="0308"/>
  <anchor x="38" y="484" name="_top"/>
  <anchor x="71" y="695" name="top"/>
  <outline>
    <contour>
      <point x="119" y="630" type="line"/>
      <point x="187" y="630" type="line"/>
      <point x="197" y="697" type="line"/>
      <point x="129" y="697" type="line"/>
    </contour>
    <contour>
      <point x="-65" y="630" type="line"/>
      <point x="3" y="630" type="line"/>
      <point x="13" y="697" type="line"/>
      <point x="-55" y="697" type="line"/>
    </contour>
  </outline>
</glyph>
<glyph name="ringcomb" format="2">
  <unicode hex="030A"/>
  <anchor x="38" y="484" name="_top"/>
  <anchor x="71" y="695" name="top"/>
  <outline>
    <contour>
      <point x="67" y="557" type="curve" smooth="yes"/>
      <point x="135" y="557"/>
      <point x="183" y="606"/>
      <point x="183" y="668" type="curve" smooth="yes"/>
      <point x="183" y="730"/>
      <point x="135" y="779"/>
      <point x="67" y="779" type="curve" smooth="yes"/>
      <point x="-1" y="779"/>
      <point x="-49" y="730"/>
      <point x="-49" y="668" type="curve" smooth="yes"/>
      <point x="-49" y="606"/>
      <point x="-1" y="557"/>
    </contour>
    <contour>
      <point x="67" y="594" type="curve" smooth="yes"/>
      <point x="23" y="594"/>
      <point x="-9" y="625"/>
      <point x="-9" y="668" type="curve" smooth="yes"/>
      <point x="-9" y="712"/>
      <point x="23" y="743"/>
      <point x="67" y="743" type="curve" smooth="yes"/>
      <point x="111" y="743"/>
      <point x="143" y="712"/>
      <point x="143" y="668" type="curve" smooth="yes"/>
      <point x="143" y="625"/>
      <point x="111" y="594"/>
    </contour>
  </outline>
</glyph>
<glyph name="hungarumlautcomb" format="2">
  <unicode hex="030B"/>
  <anchor x="38" y="484" name="_top"/>
  <anchor x="69" y="685" name="top"/>
  <outline>
    <contour>
      <point x="91" y="560" type="line"/>
      <point x="123" y="560" type="line"/>
      <point x="233" y="749" type="line"/>
      <point x="178" y="749" type="line"/>
    </contour>
    <contour>
      <point x="-23" y="560" type="line"/>
      <point x="9" y="560" type="line"/>
      <point x="119" y="749" type="line"/>
      <point x="64" y="749" type="line"/>
    </contour>
  </outline>
</glyph>
<glyph name="caroncomb" format="2">
  <unicode hex="030C"/>
  <anchor x="38" y="484" name="_top"/>
  <anchor x="69" y="685" name="top"/>
  <outline>
    <contour>
      <point x="22" y="560" type="line"/>
      <point x="78" y="560" type="line"/>
      <point x="217" y="749" type="line"/>
      <point x="177" y="749" type="line"/>
      <point x="57" y="603" type="line"/>
      <point x="-16" y="749" type="line"/>
      <point x="-57" y="749" type="line"/>
    </contour>
  </outline>
</glyph>
<glyph name="dblgravecomb" format="2">
  <unicode hex="030F"/>
  <anchor x="38" y="484" name="_top"/>
  <anchor x="69" y="685" name="top"/>
  <outline>
    <contour>
      <point x="91" y="560" type="line"/>
      <point x="123" y="560" type="line"/>
      <point x="96" y="749" type="line"/>
      <point x="41" y="749" type="line"/>
    </contour>
    <contour>
      <point x="-23" y="560" type="line"/>
      <point x="9" y="560" type="line"/>
      <point x="-18" y="749" type="line"/>
      <point x="-73" y="749" type="line"/>
    </contour>
  </outline>
</glyph>
<glyph name="breveinvertedcomb" format="2">
  <unicode hex="0311"/>
  <anchor x="38" y="484" name="_top"/>
  <anchor x="71" y="695" name="top"/>
  <outline>
    <contour>
      <point x="-56" y="557" type="line"/>
      <point x="-35" y="654"/>
      <point x="9" y="705"/>
      <point x="73" y="705" type="curve" smooth="yes"/>
      <point x="138" y="705"/>
      <point x="165" y="654"/>
      <point x="154" y="557" type="curve"/>
      <point x="197" y="562" type="line"/>
      <point x="209" y="679"/>
      <point x="165" y="750"/>
      <point x="80" y="750" type="curve" smooth="yes"/>
      <point x="-4" y="750"/>
      <point x="-71" y="679"/>
      <point x="-97" y="562" type="curve"/>
    </contour>
  </outline>
</glyph>
<glyph name="dieresisbelowcomb" format="2">
  <unicode hex="0324"/>
  <anchor x="-39" y="0" name="_bottom"/>
  <anchor x="-66" y="-170" name="bottom"/>
  <outline>
    <contour>
      <point x="-9" y="-174" type="line"/>
      <point x="59" y="-174" type="line"/>
      <point x="70" y="-107" type="line"/>
      <point x="2" y="-107" type="line"/>
    </contour>
    <contour>
      <point x="-193" y="-174" type="line"/>
      <point x="-125" y="-174" type="line"/>
      <point x="-114" y="-107" type="line"/>
      <point x="-182" y="-107" type="line"/>
    </contour>
  </outline>
</glyph>
<glyph name="cedillacomb" format="2">
  <unicode hex="0327"/>
  <anchor x="-39" y="0" name="_bottom"/>
  <outline>
    <contour>
      <point x="-65" y="-190" type="curve" smooth="yes"/>
      <point x="-1" y="-190"/>
      <point x="51" y="-157"/>
      <point x="59" y="-110" type="curve" smooth="yes"/>
      <point x="65" y="-68"/>
      <point x="33" y="-43"/>
      <point x="-11" y="-43" type="curve" smooth="yes"/>
      <point x="-26" y="-43"/>
      <point x="-43" y="-46"/>
      <point x="-60" y="-50" type="curve"/>
      <point x="-41" y="-55" type="line"/>
      <point x="-16" y="20" type="line"/>
      <point x="-58" y="20" type="line"/>
      <point x="-88" y="-75" type="line"/>
      <point x="-74" y="-89" type="line"/>
      <point x="-52" y="-81"/>
      <point x="-36" y="-79"/>
      <point x="-23" y="-79" type="curve" smooth="yes"/>
      <point x="2" y="-79"/>
      <point x="14" y="-91"/>
      <point x="11" y="-110" type="curve" smooth="yes"/>
      <point x="6" y="-137"/>
      <point x="-21" y="-150"/>
      <point x="-57" y="-150" type="curve" smooth="yes"/>
      <point x="-89" y="-150"/>
      <point x="-104" y="-145"/>
      <point x="-127" y="-133" type="curve"/>
      <point x="-143" y="-171" type="line"/>
      <point x="-126" y="-183"/>
      <point x="-94" y="-190"/>
    </contour>
  </outline>
</glyph>
<glyph name="ogonekcomb" format="2">
  <unicode hex="0328"/>
  <anchor x="-39" y="0" name="_ogonek"/>
  <outline>
    <contour>
      <point x="-87" y="-191" type="curve" smooth="yes"/>
      <point x="-54" y="-191"/>
      <point x="-27" y="-183"/>
      <point x="-12" y="-174" type="curve"/>
      <point x="-21" y="-134" type="line"/>
      <point x="-41" y="-143"/>
      <point x="-61" y="-147"/>
      <point x="-75" y="-147" type="curve" smooth="yes"/>
      <point x="-107" y="-147"/>
      <point x="-131" y="-133"/>
      <point x="-125" y="-92" type="curve" smooth="yes"/>
      <point x="-117" y="-46"/>
      <point x="-71" y="-13"/>
      <point x="-39" y="0" type="curve"/>
      <point x="-57" y="32" type="line"/>
      <point x="-120" y="2"/>
      <point x="-165" y="-47"/>
      <point x="-174" y="-98" type="curve" smooth="yes"/>
      <point x="-182" y="-154"/>
      <point x="-144" y="-191"/>
    </contour>
  </outline>
</glyph>
<glyph name="brevebelowcomb" format="2">
  <unicode hex="032E"/>
  <anchor x="-39" y="0" name="_bottom"/>
  <anchor x="-66" y="-170" name="bottom"/>
  <outline>
    <contour>
      <point x="-73" y="-215" type="curve" smooth="yes"/>
      <point x="10" y="-215"/>
      <point x="75" y="-162"/>
      <point x="97" y="-68" type="curve"/>
      <point x="58" y="-63" type="line"/>
      <point x="42" y="-133"/>
      <point x="-2" y="-171"/>
      <point x="-66" y="-171" type="curve" smooth="yes"/>
      <point x="-131" y="-171"/>
      <point x="-162" y="-133"/>
      <point x="-156" y="-63" type="curve"/>
      <point x="-197" y="-68" type="line"/>
      <point x="-205" y="-164"/>
      <point x="-155" y="-215"/>
    </contour>
  </outline>
</glyph>
<glyph name="macronbelowcomb" format="2">
  <unicode hex="0331"/>
  <anchor x="-39" y="0" name="_bottom"/>
  <anchor x="-66" y="-170" name="bottom"/>
  <outline>
    <contour>
      <point x="-217" y="-150" type="line"/>
      <point x="91" y="-150" type="line"/>
      <point x="98" y="-105" type="line"/>
      <point x="-210" y="-105" type="line"/>
    </contour>
  </outline>
</glyph>
<glyph name="strokeshortcomb" format="2">
  <unicode hex="0335"/>
  <anchor x="47" y="544" name="_stroke"/>
  <outline>
    <contour>
      <point x="-122" y="523" type="line"/>
      <point x="211" y="523" type="line"/>
      <point x="218" y="569" type="line"/>
      <point x="-115" y="569" type="line"/>
    </contour>
  </outline>
</glyph>
<glyph name="slashshortcomb" format="2">
  <unicode hex="0337"/>
  <anchor x="18" y="357" name="_center"/>
  <outline>
    <contour>
      <point x="-104" y="268" type="line"/>
      <point x="156" y="406" type="line"/>
      <point x="140" y="446" type="line"/>
      <point x="-121" y="308" type="line"/>
    </contour>
  </outline>
</glyph>
<glyph name="Delta" format="2">
  <advance width="600"/>
  <unicode hex="0394"/>
  <outline>
    <contour>
      <point x="2" y="0" type="line"/>
      <point x="520" y="0" type="line"/>
      <point x="526" y="41" type="line"/>
      <point x="400" y="705" type="line"/>
      <point x="347" y="705" type="line"/>
      <point x="8" y="41" type="line"/>
    </contour>
    <contour>
      <point x="360" y="625" type="line"/>
      <point x="364" y="625" type="line"/>
      <point x="479" y="20" type="line"/>
      <point x="482" y="50" type="line"/>
      <point x="61" y="50" type="line"/>
      <point x="54" y="20" type="line"/>
    </contour>
  </outline>
</glyph>
<glyph name="Sigma" format="2">
  <advance width="600"/>
  <unicode hex="03A3"/>
  <outline>
    <contour>
      <point x="-14" y="-180" type="line"/>
      <point x="478" y="-180" type="line"/>
      <point x="486" y="-130" type="line"/>
      <point x="43" y="-130" type="line"/>
      <point x="41" y="-158" type="line"/>
      <point x="380" y="242" type="line"/>
      <point x="387" y="284" type="line"/>
      <point x="177" y="677" type="line"/>
      <point x="171" y="655" type="line"/>
      <point x="611" y="655" type="line"/>
      <point x="619" y="705" type="line"/>
      <point x="127" y="705" type="line"/>
      <point x="121" y="667" type="line"/>
      <point x="342" y="264" type="line"/>
      <point x="346" y="285" type="line"/>
      <point x="-7" y="-142" type="line"/>
    </contour>
  </outline>
</glyph>
<glyph name="Omega" format="2">
  <advance width="781"/>
  <unicode hex="03A9"/>
  <outline>
    <contour>
      <point x="13" y="0" type="line"/>
      <point x="291" y="0" type="line"/>
      <point x="298" y="46" type="line"/>
      <point x="161" y="180"/>
      <point x="130" y="292"/>
      <point x="148" y="401" type="curve" smooth="yes"/>
      <point x="174" y="567"/>
      <point x="292" y="663"/>
      <point x="456" y="663" type="curve" smooth="yes"/>
      <point x="622" y="663"/>
      <point x="708" y="567"/>
      <point x="682" y="401" type="curve" smooth="yes"/>
      <point x="664" y="292"/>
      <point x="599" y="180"/>
      <point x="418" y="46" type="curve"/>
      <point x="411" y="0" type="line"/>
      <point x="689" y="0" type="line"/>
      <point x="697" y="48" type="line"/>
      <point x="494" y="48" type="line"/>
      <point x="494" y="52" type="line"/>
      <point x="661" y="178"/>
      <point x="720" y="298"/>
      <point x="736" y="396" type="curve" smooth="yes"/>
      <point x="767" y="595"/>
      <point x="658" y="713"/>
      <point x="454" y="713" type="curve" smooth="yes"/>
      <point x="270" y="713"/>
      <point x="124" y="605"/>
      <point x="95" y="416" type="curve" smooth="yes"/>
      <point x="76" y="298"/>
      <point x="97" y="178"/>
      <point x="228" y="52" type="curve"/>
      <point x="228" y="48" type="line"/>
      <point x="21" y="48" type="line"/>
    </contour>
  </outline>
</glyph>
<glyph name="E-cy" format="2">
  <advance width="717"/>
  <unicode hex="0404"/>
  <anchor x="363" y="0" name="bottom"/>
  <anchor x="477" y="713" name="top"/>
  <outline>
    <contour>
      <point x="368" y="-8" type="curve" smooth="yes"/>
      <point x="466" y="-8"/>
      <point x="552" y="26"/>
      <point x="623" y="87" type="curve"/>
      <point x="598" y="127" type="line"/>
      <point x="525" y="68"/>
      <point x="456" y="43"/>
      <point x="370" y="43" type="curve" smooth="yes"/>
      <point x="209" y="43"/>
      <point x="129" y="150"/>
      <point x="161" y="353" type="curve"/>
      <point x="137" y="333" type="line"/>
      <point x="555" y="333" type="line"/>
      <point x="563" y="383" type="line"/>
      <point x="146" y="383" type="line"/>
      <point x="162" y="362" type="line"/>
      <point x="196" y="558"/>
      <point x="308" y="662"/>
      <point x="468" y="662" type="curve" smooth="yes"/>
      <point x="554" y="662"/>
      <point x="615" y="637"/>
      <point x="670" y="578" type="curve"/>
      <point x="697" y="618" type="line"/>
      <point x="646" y="681"/>
      <point x="570" y="713"/>
      <point x="472" y="713" type="curve" smooth="yes"/>
      <point x="281" y="713"/>
      <point x="143" y="587"/>
      <point x="107" y="363" type="curve" smooth="yes"/>
      <point x="71" y="138"/>
      <point x="168" y="-8"/>
    </contour>
  </outline>
</glyph>
<glyph name="Lje-cy" format="2">
  <advance width="1154"/>
  <unicode hex="0409"/>
  <outline>
    <contour>
      <point x="1" y="-13" type="line"/>
      <point x="154" y="57"/>
      <point x="234" y="192"/>
      <point x="280" y="481" type="curve" smooth="yes"/>
      <point x="308" y="655" type="line"/>
      <point x="644" y="655" type="line"/>
      <point x="540" y="0" type="line"/>
      <point x="815" y="0" type="line" smooth="yes"/>
      <point x="961" y="0"/>
      <point x="1054" y="54"/>
      <point x="1074" y="182" type="curve" smooth="yes"/>
      <point x="1096" y="320"/>
      <point x="1022" y="383"/>
      <point x="876" y="383" type="curve" smooth="yes"/>
      <point x="653" y="383" type="line"/>
      <point x="704" y="705" type="line"/>
      <point x="266" y="705" type="line"/>
      <point x="232" y="494" type="line" smooth="yes"/>
      <point x="185" y="195"/>
      <point x="113" y="92"/>
      <point x="-14" y="31" type="curve"/>
    </contour>
    <contour>
      <point x="600" y="50" type="line"/>
      <point x="645" y="333" type="line"/>
      <point x="865" y="333" type="line" smooth="yes"/>
      <point x="984" y="333"/>
      <point x="1037" y="289"/>
      <point x="1021" y="191" type="curve" smooth="yes"/>
      <point x="1006" y="93"/>
      <point x="942" y="50"/>
      <point x="820" y="50" type="curve" smooth="yes"/>
    </contour>
  </outline>
</glyph>
<glyph name="Tshe-cy" format="2">
  <advance width="893"/>
  <unicode hex="040B"/>
  <outline>
    <contour>
      <point x="255" y="0" type="line"/>
      <point x="307" y="0" type="line"/>
      <point x="360" y="334" type="line"/>
      <point x="418" y="364"/>
      <point x="498" y="379"/>
      <point x="563" y="379" type="curve" smooth="yes"/>
      <point x="706" y="379"/>
      <point x="788" y="303"/>
      <point x="762" y="138" type="curve" smooth="yes"/>
      <point x="740" y="0" type="line"/>
      <point x="792" y="0" type="line"/>
      <point x="815" y="144" type="line" smooth="yes"/>
      <point x="845" y="332"/>
      <point x="748" y="429"/>
      <point x="563" y="429" type="curve" smooth="yes"/>
      <point x="499" y="429"/>
      <point x="417" y="413"/>
      <point x="368" y="388" type="curve"/>
      <point x="411" y="655" type="line"/>
      <point x="675" y="655" type="line"/>
      <point x="683" y="705" type="line"/>
      <point x="103" y="705" type="line"/>
      <point x="95" y="655" type="line"/>
      <point x="359" y="655" type="line"/>
    </contour>
  </outline>
</glyph>
<glyph name="Dzhe-cy" format="2">
  <advance width="804"/>
  <unicode hex="040F"/>
  <outline>
    <contour>
      <point x="314" y="-152" type="line"/>
      <point x="364" y="-152" type="line"/>
      <point x="388" y="0" type="line"/>
      <point x="643" y="0" type="line"/>
      <point x="755" y="705" type="line"/>
      <point x="703" y="705" type="line"/>
      <point x="599" y="50" type="line"/>
      <point x="143" y="50" type="line"/>
      <point x="247" y="705" type="line"/>
      <point x="195" y="705" type="line"/>
      <point x="83" y="0" type="line"/>
      <point x="338" y="0" type="line"/>
    </contour>
  </outline>
</glyph>
<glyph name="Be-cy" format="2">
  <advance width="709"/>
  <unicode hex="0411"/>
  <outline>
    <contour>
      <point x="83" y="0" type="line"/>
      <point x="370" y="0" type="line" smooth="yes"/>
      <point x="516" y="0"/>
      <point x="609" y="54"/>
      <point x="629" y="182" type="curve" smooth="yes"/>
      <point x="651" y="320"/>
      <point x="577" y="383"/>
      <point x="431" y="383" type="curve" smooth="yes"/>
      <point x="196" y="383" type="line"/>
      <point x="239" y="655" type="line"/>
      <point x="639" y="655" type="line"/>
      <point x="647" y="705" type="line"/>
      <point x="195" y="705" type="line"/>
    </contour>
    <contour>
      <point x="143" y="50" type="line"/>
      <point x="188" y="333" type="line"/>
      <point x="420" y="333" type="line" smooth="yes"/>
      <point x="539" y="333"/>
      <point x="592" y="289"/>
      <point x="576" y="191" type="curve" smooth="yes"/>
      <point x="561" y="93"/>
      <point x="497" y="50"/>
      <point x="375" y="50" type="curve" smooth="yes"/>
    </contour>
  </outline>
</glyph>
<glyph name="Ge-cy" format="2">
  <advance width="604"/>
  <unicode hex="0413"/>
  <anchor x="84" y="0" name="bottomright"/>
  <anchor x="195" y="353" name="stroke"/>
  <anchor x="377" y="705" name="top"/>
  <outline>
    <contour>
      <point x="83" y="0" type="line"/>
      <point x="135" y="0" type="line"/>
      <point x="239" y="655" type="line"/>
      <point x="630" y="655" type="line"/>
      <point x="638" y="705" type="line"/>
      <point x="195" y="705" type="line"/>
    </contour>
  </outline>
</glyph>
<glyph name="De-cy" format="2">
  <advance width="796"/>
  <unicode hex="0414"/>
  <outline>
    <contour>
      <point x="-34" y="-152" type="line"/>
      <point x="16" y="-152" type="line"/>
      <point x="40" y="0" type="line"/>
      <point x="674" y="0" type="line"/>
      <point x="650" y="-152" type="line"/>
      <point x="700" y="-152" type="line"/>
      <point x="732" y="50" type="line"/>
      <point x="632" y="50" type="line"/>
      <point x="736" y="705" type="line"/>
      <point x="278" y="705" type="line"/>
      <point x="249" y="524" type="line" smooth="yes"/>
      <point x="216" y="314"/>
      <point x="163" y="152"/>
      <point x="66" y="50" type="curve"/>
      <point x="-2" y="50" type="line"/>
    </contour>
    <contour>
      <point x="124" y="50" type="line"/>
      <point x="212" y="154"/>
      <point x="263" y="299"/>
      <point x="299" y="523" type="curve" smooth="yes"/>
      <point x="320" y="655" type="line"/>
      <point x="676" y="655" type="line"/>
      <point x="580" y="50" type="line"/>
    </contour>
  </outline>
</glyph>
<glyph name="Zhe-cy" format="2">
  <advance width="972"/>
  <unicode hex="0416"/>
  <anchor x="855" y="0" name="bottomright"/>
  <anchor x="559" y="705" name="top"/>
  <outline>
    <contour>
      <point x="-19" y="0" type="line"/>
      <point x="43" y="0" type="line"/>
      <point x="175" y="209" type="line" smooth="yes"/>
      <point x="231" y="298"/>
      <point x="288" y="334"/>
      <point x="367" y="334" type="curve" smooth="yes"/>
      <point x="474" y="334" type="line"/>
      <point x="421" y="0" type="line"/>
      <point x="473" y="0" type="line"/>
      <point x="526" y="334" type="line"/>
      <point x="634" y="334" type="line" smooth="yes"/>
      <point x="717" y="334"/>
      <point x="760" y="292"/>
      <point x="787" y="209" type="curve" smooth="yes"/>
      <point x="855" y="0" type="line"/>
      <point x="909" y="0" type="line"/>
      <point x="829" y="241" type="line" smooth="yes"/>
      <point x="801" y="324"/>
      <point x="756" y="374"/>
      <point x="681" y="381" type="curve"/>
      <point x="697" y="362" type="line"/>
      <point x="987" y="705" type="line"/>
      <point x="922" y="705" type="line"/>
      <point x="639" y="368" type="line"/>
      <point x="667" y="384" type="line"/>
      <point x="534" y="384" type="line"/>
      <point x="585" y="705" type="line"/>
      <point x="533" y="705" type="line"/>
      <point x="482" y="384" type="line"/>
      <point x="351" y="384" type="line"/>
      <point x="367" y="368" type="line"/>
      <point x="192" y="705" type="line"/>
      <point x="135" y="705" type="line"/>
      <point x="315" y="362" type="line"/>
      <point x="334" y="381" type="line"/>
      <point x="256" y="374"/>
      <point x="189" y="324"/>
      <point x="135" y="240" type="curve" smooth="yes"/>
    </contour>
  </outline>
</glyph>
<glyph name="Ka-cy" format="2">
  <advance width="674"/>
  <unicode hex="041A"/>
  <anchor x="557" y="0" name="bottomright"/>
  <anchor x="377" y="353" name="center"/>
  <anchor x="420" y="705" name="top"/>
  <anchor x="247" y="705" name="topleft"/>
  <outline>
    <contour>
      <point x="83" y="0" type="line"/>
      <point x="135" y="0" type="line"/>
      <point x="188" y="334" type="line"/>
      <point x="336" y="334" type="line" smooth="yes"/>
      <point x="419" y="334"/>
      <point x="462" y="292"/>
      <point x="489" y="209" type="curve" smooth="yes"/>
      <point x="557" y="0" type="line"/>
      <point x="611" y="0" type="line"/>
      <point x="531" y="241" type="line" smooth="yes"/>
      <point x="503" y="324"/>
      <point x="458" y="374"/>
      <point x="383" y="381" type="curve"/>
      <point x="399" y="362" type="line"/>
      <point x="689" y="705" type="line"/>
      <point x="624" y="705" type="line"/>
      <point x="341" y="368" type="line"/>
      <point x="369" y="384" type="line"/>
      <point x="196" y="384" type="line"/>
      <point x="247" y="705" type="line"/>
      <point x="195" y="705" type="line"/>
    </contour>
  </outline>
</glyph>
<glyph name="El-cy" format="2">
  <advance width="773"/>
  <unicode hex="041B"/>
  <anchor x="560" y="0" name="bottomright"/>
  <outline>
    <contour>
      <point x="0" y="-13" type="line"/>
      <point x="153" y="57"/>
      <point x="233" y="192"/>
      <point x="279" y="481" type="curve" smooth="yes"/>
      <point x="307" y="655" type="line"/>
      <point x="663" y="655" type="line"/>
      <point x="559" y="0" type="line"/>
      <point x="611" y="0" type="line"/>
      <point x="723" y="705" type="line"/>
      <point x="265" y="705" type="line"/>
      <point x="231" y="494" type="line" smooth="yes"/>
      <point x="183" y="195"/>
      <point x="112" y="92"/>
      <point x="-15" y="31" type="curve"/>
    </contour>
  </outline>
</glyph>
<glyph name="Pe-cy" format="2">
  <advance width="805"/>
  <unicode hex="041F"/>
  <anchor x="592" y="0" name="bottomright"/>
  <outline>
    <contour>
      <point x="83" y="0" type="line"/>
      <point x="135" y="0" type="line"/>
      <point x="239" y="655" type="line"/>
      <point x="696" y="655" type="line"/>
      <point x="592" y="0" type="line"/>
      <point x="644" y="0" type="line"/>
      <point x="756" y="705" type="line"/>
      <point x="195" y="705" type="line"/>
    </contour>
  </outline>
</glyph>
<glyph name="U-cy" format="2">
  <advance width="628"/>
  <unicode hex="0423"/>
  <anchor x="388" y="705" name="top"/>
  <outline>
    <contour>
      <point x="164" y="0" type="line"/>
      <point x="225" y="0" type="line"/>
      <point x="700" y="705" type="line"/>
      <point x="639" y="705" type="line"/>
      <point x="343" y="266" type="line"/>
      <point x="339" y="266" type="line"/>
      <point x="134" y="705" type="line"/>
      <point x="78" y="705" type="line"/>
      <point x="315" y="198" type="line"/>
      <point x="316" y="225" type="line"/>
    </contour>
  </outline>
</glyph>
<glyph name="Ef-cy" format="2">
  <advance width="926"/>
  <unicode hex="0424"/>
  <outline>
    <contour>
      <point x="395" y="-22" type="line"/>
      <point x="447" y="-22" type="line"/>
      <point x="466" y="102" type="line"/>
      <point x="448" y="87" type="line"/>
      <point x="472" y="87" type="line" smooth="yes"/>
      <point x="665" y="87"/>
      <point x="825" y="170"/>
      <point x="853" y="348" type="curve" smooth="yes"/>
      <point x="884" y="538"/>
      <point x="754" y="628"/>
      <point x="557" y="628" type="curve" smooth="yes"/>
      <point x="533" y="628" type="line"/>
      <point x="547" y="613" type="line"/>
      <point x="566" y="732" type="line"/>
      <point x="514" y="732" type="line"/>
      <point x="495" y="613" type="line"/>
      <point x="513" y="628" type="line"/>
      <point x="489" y="628" type="line" smooth="yes"/>
      <point x="292" y="628"/>
      <point x="137" y="548"/>
      <point x="108" y="368" type="curve" smooth="yes"/>
      <point x="79" y="180"/>
      <point x="210" y="87"/>
      <point x="404" y="87" type="curve" smooth="yes"/>
      <point x="428" y="87" type="line"/>
      <point x="414" y="102" type="line"/>
    </contour>
    <contour>
      <point x="417" y="118" type="line"/>
      <point x="436" y="137" type="line"/>
      <point x="402" y="137" type="line" smooth="yes"/>
      <point x="254" y="137"/>
      <point x="136" y="202"/>
      <point x="161" y="358" type="curve" smooth="yes"/>
      <point x="186" y="519"/>
      <point x="321" y="578"/>
      <point x="472" y="578" type="curve" smooth="yes"/>
      <point x="506" y="578" type="line"/>
      <point x="493" y="597" type="line"/>
    </contour>
    <contour>
      <point x="469" y="118" type="line"/>
      <point x="545" y="597" type="line"/>
      <point x="526" y="578" type="line"/>
      <point x="560" y="578" type="line" smooth="yes"/>
      <point x="711" y="578"/>
      <point x="826" y="518"/>
      <point x="801" y="358" type="curve" smooth="yes"/>
      <point x="776" y="202"/>
      <point x="638" y="137"/>
      <point x="490" y="137" type="curve" smooth="yes"/>
      <point x="456" y="137" type="line"/>
    </contour>
  </outline>
</glyph>
<glyph name="Tse-cy" format="2">
  <advance width="816"/>
  <unicode hex="0426"/>
  <outline>
    <contour>
      <point x="670" y="-152" type="line"/>
      <point x="720" y="-152" type="line"/>
      <point x="751" y="47" type="line"/>
      <point x="651" y="47" type="line"/>
      <point x="756" y="705" type="line"/>
      <point x="703" y="705" type="line"/>
      <point x="599" y="50" type="line"/>
      <point x="143" y="50" type="line"/>
      <point x="247" y="705" type="line"/>
      <point x="195" y="705" type="line"/>
      <point x="83" y="0" type="line"/>
      <point x="694" y="0" type="line"/>
    </contour>
  </outline>
</glyph>
<glyph name="Sha-cy" format="2">
  <advance width="1098"/>
  <unicode hex="0428"/>
  <outline>
    <contour>
      <point x="83" y="0" type="line"/>
      <point x="937" y="0" type="line"/>
      <point x="1049" y="705" type="line"/>
      <point x="997" y="705" type="line"/>
      <point x="893" y="50" type="line"/>
      <point x="544" y="50" type="line"/>
      <point x="648" y="705" type="line"/>
      <point x="596" y="705" type="line"/>
      <point x="492" y="50" type="line"/>
      <point x="143" y="50" type="line"/>
      <point x="247" y="705" type="line"/>
      <point x="195" y="705" type="line"/>
    </contour>
  </outline>
</glyph>
<glyph name="Shcha-cy" format="2">
  <advance width="1108"/>
  <unicode hex="0429"/>
  <outline>
    <contour>
      <point x="962" y="-152" type="line"/>
      <point x="1012" y="-152" type="line"/>
      <point x="1043" y="47" type="line"/>
      <point x="944" y="47" type="line"/>
      <point x="1049" y="705" type="line"/>
      <point x="997" y="705" type="line"/>
      <point x="893" y="50" type="line"/>
      <point x="544" y="50" type="line"/>
      <point x="648" y="705" type="line"/>
      <point x="596" y="705" type="line"/>
      <point x="492" y="50" type="line"/>
      <point x="143" y="50" type="line"/>
      <point x="247" y="705" type="line"/>
      <point x="195" y="705" type="line"/>
      <point x="83" y="0" type="line"/>
      <point x="986" y="0" type="line"/>
    </contour>
  </outline>
</glyph>
<glyph name="Hardsign-cy" format="2">
  <advance width="847"/>
  <unicode hex="042A"/>
  <outline>
    <contour>
      <point x="231" y="0" type="line"/>
      <point x="508" y="0" type="line" smooth="yes"/>
      <point x="654" y="0"/>
      <point x="747" y="55"/>
      <point x="767" y="183" type="curve" smooth="yes"/>
      <point x="789" y="321"/>
      <point x="715" y="383"/>
      <point x="569" y="383" type="curve" smooth="yes"/>
      <point x="345" y="383" type="line"/>
      <point x="396" y="705" type="line"/>
      <point x="103" y="705" type="line"/>
      <point x="95" y="655" type="line"/>
      <point x="335" y="655" type="line"/>
    </contour>
    <contour>
      <point x="292" y="50" type="line"/>
      <point x="337" y="333" type="line"/>
      <point x="558" y="333" type="line" smooth="yes"/>
      <point x="677" y="333"/>
      <point x="730" y="290"/>
      <point x="714" y="192" type="curve" smooth="yes"/>
      <point x="699" y="94"/>
      <point x="632" y="50"/>
      <point x="513" y="50" type="curve" smooth="yes"/>
    </contour>
  </outline>
</glyph>
<glyph name="Yeru-cy" format="2">
  <advance width="909"/>
  <unicode hex="042B"/>
  <anchor x="528" y="705" name="top"/>
  <outline>
    <contour>
      <point x="83" y="0" type="line"/>
      <point x="358" y="0" type="line" smooth="yes"/>
      <point x="504" y="0"/>
      <point x="597" y="54"/>
      <point x="617" y="182" type="curve" smooth="yes"/>
      <point x="639" y="320"/>
      <point x="565" y="383"/>
      <point x="419" y="383" type="curve" smooth="yes"/>
      <point x="196" y="383" type="line"/>
      <point x="247" y="705" type="line"/>
      <point x="195" y="705" type="line"/>
    </contour>
    <contour>
      <point x="143" y="50" type="line"/>
      <point x="188" y="333" type="line"/>
      <point x="408" y="333" type="line" smooth="yes"/>
      <point x="527" y="333"/>
      <point x="580" y="289"/>
      <point x="564" y="191" type="curve" smooth="yes"/>
      <point x="549" y="93"/>
      <point x="485" y="50"/>
      <point x="363" y="50" type="curve" smooth="yes"/>
    </contour>
    <contour>
      <point x="696" y="0" type="line"/>
      <point x="748" y="0" type="line"/>
      <point x="860" y="705" type="line"/>
      <point x="808" y="705" type="line"/>
    </contour>
  </outline>
</glyph>
<glyph name="Ereversed-cy" format="2">
  <advance width="717"/>
  <unicode hex="042D"/>
  <anchor x="280" y="0" name="bottom"/>
  <anchor x="392" y="705" name="top"/>
  <outline>
    <contour>
      <point x="279" y="-8" type="curve" smooth="yes"/>
      <point x="469" y="-8"/>
      <point x="608" y="118"/>
      <point x="643" y="343" type="curve" smooth="yes"/>
      <point x="679" y="571"/>
      <point x="588" y="713"/>
      <point x="383" y="713" type="curve" smooth="yes"/>
      <point x="285" y="713"/>
      <point x="197" y="680"/>
      <point x="128" y="618" type="curve"/>
      <point x="153" y="578" type="line"/>
      <point x="224" y="631"/>
      <point x="295" y="662"/>
      <point x="381" y="662" type="curve" smooth="yes"/>
      <point x="545" y="662"/>
      <point x="620" y="562"/>
      <point x="591" y="362" type="curve"/>
      <point x="615" y="383" type="line"/>
      <point x="198" y="383" type="line"/>
      <point x="190" y="333" type="line"/>
      <point x="608" y="333" type="line"/>
      <point x="590" y="353" type="line"/>
      <point x="558" y="150"/>
      <point x="444" y="43"/>
      <point x="283" y="43" type="curve" smooth="yes"/>
      <point x="197" y="43"/>
      <point x="136" y="68"/>
      <point x="81" y="127" type="curve"/>
      <point x="54" y="87" type="line"/>
      <point x="105" y="24"/>
      <point x="181" y="-8"/>
    </contour>
  </outline>
</glyph>
<glyph name="Iu-cy" format="2">
  <advance width="1044"/>
  <unicode hex="042E"/>
  <outline>
    <contour>
      <point x="615" y="-8" type="curve" smooth="yes"/>
      <point x="798" y="-8"/>
      <point x="935" y="120"/>
      <point x="970" y="343" type="curve" smooth="yes"/>
      <point x="1006" y="566"/>
      <point x="913" y="713"/>
      <point x="719" y="713" type="curve" smooth="yes"/>
      <point x="544" y="713"/>
      <point x="413" y="598"/>
      <point x="367" y="381" type="curve"/>
      <point x="196" y="381" type="line"/>
      <point x="248" y="705" type="line"/>
      <point x="195" y="705" type="line"/>
      <point x="83" y="0" type="line"/>
      <point x="136" y="0" type="line"/>
      <point x="189" y="334" type="line"/>
      <point x="360" y="334" type="line"/>
      <point x="335" y="132"/>
      <point x="429" y="-8"/>
    </contour>
    <contour>
      <point x="619" y="42" type="curve" smooth="yes"/>
      <point x="461" y="42"/>
      <point x="388" y="156"/>
      <point x="419" y="353" type="curve" smooth="yes"/>
      <point x="450" y="550"/>
      <point x="559" y="663"/>
      <point x="717" y="663" type="curve" smooth="yes"/>
      <point x="875" y="663"/>
      <point x="947" y="550"/>
      <point x="916" y="353" type="curve" smooth="yes"/>
      <point x="885" y="157"/>
      <point x="777" y="42"/>
    </contour>
  </outline>
</glyph>
<glyph name="Ia-cy" format="2">
  <advance width="734"/>
  <unicode hex="042F"/>
  <outline>
    <contour>
      <point x="39" y="0" type="line"/>
      <point x="101" y="0" type="line"/>
      <point x="256" y="226" type="line" smooth="yes"/>
      <point x="300" y="291"/>
      <point x="330" y="307"/>
      <point x="408" y="307" type="curve" smooth="yes"/>
      <point x="570" y="307" type="line"/>
      <point x="521" y="0" type="line"/>
      <point x="573" y="0" type="line"/>
      <point x="685" y="705" type="line"/>
      <point x="411" y="705" type="line" smooth="yes"/>
      <point x="267" y="705"/>
      <point x="174" y="649"/>
      <point x="153" y="520" type="curve" smooth="yes"/>
      <point x="135" y="402"/>
      <point x="182" y="330"/>
      <point x="280" y="316" type="curve"/>
      <point x="279" y="312" type="line"/>
      <point x="274" y="310" type="line" smooth="yes"/>
      <point x="253" y="302"/>
      <point x="233" y="283"/>
      <point x="205" y="242" type="curve" smooth="yes"/>
    </contour>
    <contour>
      <point x="351" y="356" type="line" smooth="yes"/>
      <point x="230" y="356"/>
      <point x="189" y="405"/>
      <point x="206" y="511" type="curve" smooth="yes"/>
      <point x="222" y="615"/>
      <point x="283" y="655"/>
      <point x="407" y="655" type="curve" smooth="yes"/>
      <point x="625" y="655" type="line"/>
      <point x="577" y="356" type="line"/>
    </contour>
  </outline>
</glyph>
<glyph name="be-cy" format="2">
  <advance width="626"/>
  <unicode hex="0431"/>
  <outline>
    <contour>
      <point x="278" y="-8" type="curve" smooth="yes"/>
      <point x="418" y="-8"/>
      <point x="524" y="87"/>
      <point x="548" y="237" type="curve" smooth="yes"/>
      <point x="574" y="396"/>
      <point x="500" y="502"/>
      <point x="360" y="502" type="curve" smooth="yes"/>
      <point x="275" y="502"/>
      <point x="202" y="470"/>
      <point x="154" y="384" type="curve"/>
      <point x="150" y="384" type="line"/>
      <point x="152" y="399" type="line" smooth="yes"/>
      <point x="170" y="514"/>
      <point x="239" y="596"/>
      <point x="371" y="630" type="curve" smooth="yes"/>
      <point x="585" y="685" type="line"/>
      <point x="572" y="732" type="line"/>
      <point x="377" y="680" type="line" smooth="yes"/>
      <point x="148" y="619"/>
      <point x="114" y="481"/>
      <point x="93" y="346" type="curve" smooth="yes"/>
      <point x="82" y="278" type="line" smooth="yes"/>
      <point x="53" y="94"/>
      <point x="127" y="-8"/>
    </contour>
    <contour>
      <point x="279" y="41" type="curve" smooth="yes"/>
      <point x="165" y="41"/>
      <point x="109" y="111"/>
      <point x="132" y="256" type="curve" smooth="yes"/>
      <point x="151" y="379"/>
      <point x="233" y="453"/>
      <point x="346" y="453" type="curve" smooth="yes"/>
      <point x="459" y="453"/>
      <point x="517" y="379"/>
      <point x="496" y="246" type="curve" smooth="yes"/>
      <point x="475" y="111"/>
      <point x="393" y="41"/>
    </contour>
  </outline>
</glyph>
<glyph name="ve-cy" format="2">
  <advance width="625"/>
  <unicode hex="0432"/>
  <outline>
    <contour>
      <point x="71" y="0" type="line"/>
      <point x="334" y="0" type="line" smooth="yes"/>
      <point x="446" y="0"/>
      <point x="522" y="46"/>
      <point x="535" y="130" type="curve" smooth="yes"/>
      <point x="545" y="192"/>
      <point x="514" y="234"/>
      <point x="458" y="250" type="curve"/>
      <point x="459" y="254" type="line"/>
      <point x="509" y="272"/>
      <point x="548" y="313"/>
      <point x="555" y="359" type="curve" smooth="yes"/>
      <point x="569" y="445"/>
      <point x="517" y="494"/>
      <point x="403" y="494" type="curve" smooth="yes"/>
      <point x="149" y="494" type="line"/>
    </contour>
    <contour>
      <point x="130" y="47" type="line"/>
      <point x="159" y="227" type="line"/>
      <point x="373" y="227" type="line" smooth="yes"/>
      <point x="453" y="227"/>
      <point x="494" y="197"/>
      <point x="484" y="131" type="curve" smooth="yes"/>
      <point x="475" y="74"/>
      <point x="424" y="47"/>
      <point x="344" y="47" type="curve" smooth="yes"/>
    </contour>
    <contour>
      <point x="166" y="274" type="line"/>
      <point x="194" y="447" type="line"/>
      <point x="399" y="447" type="line" smooth="yes"/>
      <point x="474" y="447"/>
      <point x="513" y="420"/>
      <point x="503" y="363" type="curve" smooth="yes"/>
      <point x="494" y="305"/>
      <point x="446" y="274"/>
      <point x="371" y="274" type="curve" smooth="yes"/>
    </contour>
  </outline>
</glyph>
<glyph name="ge-cy" format="2">
  <advance width="483"/>
  <unicode hex="0433"/>
  <anchor x="72" y="0" name="bottomright"/>
  <anchor x="164" y="248" name="center"/>
  <anchor x="306" y="494" name="top"/>
  <outline>
    <contour>
      <point x="71" y="0" type="line"/>
      <point x="123" y="0" type="line"/>
      <point x="194" y="447" type="line"/>
      <point x="486" y="447" type="line"/>
      <point x="493" y="494" type="line"/>
      <point x="149" y="494" type="line"/>
    </contour>
  </outline>
</glyph>
<glyph name="zhe-cy" format="2">
  <advance width="848"/>
  <unicode hex="0436"/>
  <anchor x="738" y="0" name="bottomright"/>
  <anchor x="463" y="494" name="top"/>
  <outline>
    <contour>
      <point x="-18" y="0" type="line"/>
      <point x="44" y="0" type="line"/>
      <point x="168" y="153" type="line" smooth="yes"/>
      <point x="214" y="210"/>
      <point x="238" y="234"/>
      <point x="318" y="234" type="curve" smooth="yes"/>
      <point x="396" y="234" type="line"/>
      <point x="359" y="0" type="line"/>
      <point x="411" y="0" type="line"/>
      <point x="448" y="234" type="line"/>
      <point x="526" y="234" type="line" smooth="yes"/>
      <point x="607" y="234"/>
      <point x="626" y="210"/>
      <point x="654" y="153" type="curve" smooth="yes"/>
      <point x="730" y="0" type="line"/>
      <point x="788" y="0" type="line"/>
      <point x="707" y="161" type="line" smooth="yes"/>
      <point x="664" y="247"/>
      <point x="640" y="271"/>
      <point x="575" y="277" type="curve"/>
      <point x="599" y="264" type="line"/>
      <point x="836" y="494" type="line"/>
      <point x="771" y="494" type="line"/>
      <point x="551" y="281" type="line"/>
      <point x="456" y="281" type="line"/>
      <point x="489" y="494" type="line"/>
      <point x="437" y="494" type="line"/>
      <point x="404" y="281" type="line"/>
      <point x="305" y="281" type="line"/>
      <point x="151" y="494" type="line"/>
      <point x="94" y="494" type="line"/>
      <point x="259" y="264" type="line"/>
      <point x="283" y="277" type="line"/>
      <point x="206" y="270"/>
      <point x="169" y="230"/>
      <point x="113" y="161" type="curve" smooth="yes"/>
    </contour>
  </outline>
</glyph>
<glyph name="ze-cy" format="2">
  <advance width="559"/>
  <unicode hex="0437"/>
  <anchor x="235" y="0" name="bottom"/>
  <anchor x="313" y="494" name="top"/>
  <outline>
    <contour>
      <point x="242" y="-8" type="curve" smooth="yes"/>
      <point x="379" y="-8"/>
      <point x="456" y="44"/>
      <point x="469" y="130" type="curve" smooth="yes"/>
      <point x="479" y="192"/>
      <point x="452" y="236"/>
      <point x="384" y="253" type="curve"/>
      <point x="384" y="257" type="line"/>
      <point x="443" y="275"/>
      <point x="481" y="315"/>
      <point x="488" y="358" type="curve" smooth="yes"/>
      <point x="501" y="445"/>
      <point x="452" y="502"/>
      <point x="320" y="502" type="curve" smooth="yes"/>
      <point x="239" y="502"/>
      <point x="153" y="482"/>
      <point x="89" y="440" type="curve"/>
      <point x="108" y="394" type="line"/>
      <point x="172" y="436"/>
      <point x="245" y="453"/>
      <point x="316" y="453" type="curve" smooth="yes"/>
      <point x="408" y="453"/>
      <point x="446" y="419"/>
      <point x="437" y="362" type="curve" smooth="yes"/>
      <point x="428" y="305"/>
      <point x="376" y="275"/>
      <point x="306" y="275" type="curve" smooth="yes"/>
      <point x="183" y="275" type="line"/>
      <point x="175" y="228" type="line"/>
      <point x="307" y="228" type="line" smooth="yes"/>
      <point x="387" y="228"/>
      <point x="427" y="197"/>
      <point x="418" y="136" type="curve" smooth="yes"/>
      <point x="408" y="73"/>
      <point x="357" y="41"/>
      <point x="244" y="41" type="curve" smooth="yes"/>
      <point x="170" y="41"/>
      <point x="95" y="55"/>
      <point x="53" y="98" type="curve"/>
      <point x="29" y="58" type="line"/>
      <point x="67" y="17"/>
      <point x="155" y="-8"/>
    </contour>
  </outline>
</glyph>
<glyph name="ii-cy" format="2">
  <advance width="647"/>
  <unicode hex="0438"/>
  <anchor x="448" y="0" name="bottomright"/>
  <anchor x="363" y="494" name="top"/>
  <outline>
    <contour>
      <point x="71" y="0" type="line"/>
      <point x="123" y="0" type="line"/>
      <point x="510" y="414" type="line"/>
      <point x="514" y="414" type="line"/>
      <point x="448" y="0" type="line"/>
      <point x="498" y="0" type="line"/>
      <point x="576" y="494" type="line"/>
      <point x="524" y="494" type="line"/>
      <point x="137" y="81" type="line"/>
      <point x="133" y="81" type="line"/>
      <point x="199" y="494" type="line"/>
      <point x="149" y="494" type="line"/>
    </contour>
  </outline>
</glyph>
<glyph name="ka-cy" format="2">
  <advance width="574"/>
  <unicode hex="043A"/>
  <anchor x="464" y="0" name="bottomright"/>
  <anchor x="278" y="248" name="center"/>
  <anchor x="355" y="494" name="top"/>
  <outline>
    <contour>
      <point x="71" y="0" type="line"/>
      <point x="123" y="0" type="line"/>
      <point x="160" y="234" type="line"/>
      <point x="257" y="234" type="line" smooth="yes"/>
      <point x="335" y="234"/>
      <point x="354" y="206"/>
      <point x="382" y="150" type="curve" smooth="yes"/>
      <point x="456" y="0" type="line"/>
      <point x="510" y="0" type="line"/>
      <point x="429" y="161" type="line" smooth="yes"/>
      <point x="391" y="236"/>
      <point x="373" y="269"/>
      <point x="306" y="277" type="curve"/>
      <point x="320" y="260" type="line"/>
      <point x="562" y="494" type="line"/>
      <point x="497" y="494" type="line"/>
      <point x="277" y="281" type="line"/>
      <point x="168" y="281" type="line"/>
      <point x="201" y="494" type="line"/>
      <point x="149" y="494" type="line"/>
    </contour>
  </outline>
</glyph>
<glyph name="el-cy" format="2">
  <advance width="634"/>
  <unicode hex="043B"/>
  <anchor x="433" y="0" name="bottomright"/>
  <outline>
    <contour>
      <point x="29" y="-9" type="line"/>
      <point x="171" y="51"/>
      <point x="214" y="172"/>
      <point x="248" y="386" type="curve" smooth="yes"/>
      <point x="258" y="447" type="line"/>
      <point x="504" y="447" type="line"/>
      <point x="433" y="0" type="line"/>
      <point x="485" y="0" type="line"/>
      <point x="563" y="494" type="line"/>
      <point x="215" y="494" type="line"/>
      <point x="198" y="387" type="line" smooth="yes"/>
      <point x="165" y="179"/>
      <point x="130" y="84"/>
      <point x="10" y="31" type="curve"/>
    </contour>
  </outline>
</glyph>
<glyph name="em-cy" format="2">
  <advance width="743"/>
  <unicode hex="043C"/>
  <anchor x="545" y="0" name="bottomright"/>
  <outline>
    <contour>
      <point x="71" y="0" type="line"/>
      <point x="120" y="0" type="line"/>
      <point x="183" y="397" type="line"/>
      <point x="187" y="397" type="line"/>
      <point x="330" y="79" type="line"/>
      <point x="361" y="79" type="line"/>
      <point x="604" y="397" type="line"/>
      <point x="608" y="397" type="line"/>
      <point x="545" y="0" type="line"/>
      <point x="594" y="0" type="line"/>
      <point x="672" y="494" type="line"/>
      <point x="622" y="494" type="line"/>
      <point x="352" y="139" type="line"/>
      <point x="193" y="494" type="line"/>
      <point x="149" y="494" type="line"/>
    </contour>
  </outline>
</glyph>
<glyph name="en-cy" format="2">
  <advance width="649"/>
  <unicode hex="043D"/>
  <anchor x="449" y="0" name="bottomright"/>
  <outline>
    <contour>
      <point x="71" y="0" type="line"/>
      <point x="123" y="0" type="line"/>
      <point x="160" y="234" type="line"/>
      <point x="485" y="234" type="line"/>
      <point x="448" y="0" type="line"/>
      <point x="500" y="0" type="line"/>
      <point x="578" y="494" type="line"/>
      <point x="526" y="494" type="line"/>
      <point x="493" y="281" type="line"/>
      <point x="168" y="281" type="line"/>
      <point x="201" y="494" type="line"/>
      <point x="149" y="494" type="line"/>
    </contour>
  </outline>
</glyph>
<glyph name="pe-cy" format="2">
  <advance width="646"/>
  <unicode hex="043F"/>
  <anchor x="445" y="0" name="bottomright"/>
  <outline>
    <contour>
      <point x="71" y="0" type="line"/>
      <point x="123" y="0" type="line"/>
      <point x="194" y="447" type="line"/>
      <point x="516" y="447" type="line"/>
      <point x="445" y="0" type="line"/>
      <point x="497" y="0" type="line"/>
      <point x="575" y="494" type="line"/>
      <point x="149" y="494" type="line"/>
    </contour>
  </outline>
</glyph>
<glyph name="ef-cy" format="2">
  <advance width="939"/>
  <unicode hex="0444"/>
  <outline>
    <contour>
      <point x="376" y="-180" type="line"/>
      <point x="428" y="-180" type="line"/>
      <point x="472" y="92" type="line"/>
      <point x="476" y="92" type="line"/>
      <point x="489" y="37"/>
      <point x="544" y="-8"/>
      <point x="617" y="-8" type="curve" smooth="yes"/>
      <point x="740" y="-8"/>
      <point x="837" y="87"/>
      <point x="861" y="237" type="curve" smooth="yes"/>
      <point x="887" y="397"/>
      <point x="821" y="502"/>
      <point x="698" y="502" type="curve" smooth="yes"/>
      <point x="625" y="502"/>
      <point x="555" y="462"/>
      <point x="525" y="402" type="curve"/>
      <point x="521" y="402" type="line"/>
      <point x="565" y="679" type="line"/>
      <point x="513" y="679" type="line"/>
      <point x="469" y="402" type="line"/>
      <point x="465" y="402" type="line"/>
      <point x="451" y="457"/>
      <point x="396" y="502"/>
      <point x="323" y="502" type="curve" smooth="yes"/>
      <point x="199" y="502"/>
      <point x="103" y="408"/>
      <point x="79" y="257" type="curve" smooth="yes"/>
      <point x="53" y="96"/>
      <point x="118" y="-8"/>
      <point x="242" y="-8" type="curve" smooth="yes"/>
      <point x="315" y="-8"/>
      <point x="385" y="32"/>
      <point x="416" y="92" type="curve"/>
      <point x="420" y="92" type="line"/>
    </contour>
    <contour>
      <point x="253" y="41" type="curve" smooth="yes"/>
      <point x="159" y="41"/>
      <point x="108" y="112"/>
      <point x="129" y="247" type="curve" smooth="yes"/>
      <point x="151" y="382"/>
      <point x="225" y="453"/>
      <point x="319" y="453" type="curve" smooth="yes"/>
      <point x="405" y="453"/>
      <point x="466" y="381"/>
      <point x="445" y="247" type="curve" smooth="yes"/>
      <point x="424" y="113"/>
      <point x="339" y="41"/>
    </contour>
    <contour>
      <point x="618" y="41" type="curve" smooth="yes"/>
      <point x="534" y="41"/>
      <point x="473" y="112"/>
      <point x="494" y="247" type="curve" smooth="yes"/>
      <point x="516" y="382"/>
      <point x="600" y="453"/>
      <point x="684" y="453" type="curve" smooth="yes"/>
      <point x="779" y="453"/>
      <point x="832" y="382"/>
      <point x="810" y="247" type="curve" smooth="yes"/>
      <point x="789" y="112"/>
      <point x="713" y="41"/>
    </contour>
  </outline>
</glyph>
<glyph name="tse-cy" format="2">
  <advance width="661"/>
  <unicode hex="0446"/>
  <outline>
    <contour>
      <point x="495" y="-133" type="line"/>
      <point x="545" y="-133" type="line"/>
      <point x="573" y="45" type="line"/>
      <point x="493" y="45" type="line"/>
      <point x="564" y="494" type="line"/>
      <point x="512" y="494" type="line"/>
      <point x="441" y="47" type="line"/>
      <point x="130" y="47" type="line"/>
      <point x="201" y="494" type="line"/>
      <point x="149" y="494" type="line"/>
      <point x="71" y="0" type="line"/>
      <point x="516" y="0" type="line"/>
    </contour>
  </outline>
</glyph>
<glyph name="che-cy" format="2">
  <advance width="610"/>
  <unicode hex="0447"/>
  <anchor x="409" y="0" name="bottomright"/>
  <anchor x="287" y="204" name="center"/>
  <anchor x="333" y="494" name="top"/>
  <outline>
    <contour>
      <point x="409" y="0" type="line"/>
      <point x="461" y="0" type="line"/>
      <point x="539" y="494" type="line"/>
      <point x="487" y="494" type="line"/>
      <point x="451" y="267" type="line"/>
      <point x="401" y="236"/>
      <point x="355" y="224"/>
      <point x="294" y="224" type="curve" smooth="yes"/>
      <point x="173" y="224"/>
      <point x="144" y="277"/>
      <point x="159" y="373" type="curve" smooth="yes"/>
      <point x="178" y="494" type="line"/>
      <point x="126" y="494" type="line"/>
      <point x="107" y="371" type="line" smooth="yes"/>
      <point x="88" y="252"/>
      <point x="139" y="175"/>
      <point x="286" y="175" type="curve" smooth="yes"/>
      <point x="346" y="175"/>
      <point x="398" y="192"/>
      <point x="445" y="225" type="curve"/>
    </contour>
  </outline>
</glyph>
<glyph name="sha-cy" format="2">
  <advance width="872"/>
  <unicode hex="0448"/>
  <outline>
    <contour>
      <point x="71" y="0" type="line"/>
      <point x="723" y="0" type="line"/>
      <point x="801" y="494" type="line"/>
      <point x="749" y="494" type="line"/>
      <point x="678" y="47" type="line"/>
      <point x="430" y="47" type="line"/>
      <point x="501" y="494" type="line"/>
      <point x="449" y="494" type="line"/>
      <point x="378" y="47" type="line"/>
      <point x="130" y="47" type="line"/>
      <point x="201" y="494" type="line"/>
      <point x="149" y="494" type="line"/>
    </contour>
  </outline>
</glyph>
<glyph name="shcha-cy" format="2">
  <advance width="898"/>
  <unicode hex="0449"/>
  <outline>
    <contour>
      <point x="732" y="-133" type="line"/>
      <point x="782" y="-133" type="line"/>
      <point x="810" y="45" type="line"/>
      <point x="730" y="45" type="line"/>
      <point x="801" y="494" type="line"/>
      <point x="749" y="494" type="line"/>
      <point x="678" y="47" type="line"/>
      <point x="430" y="47" type="line"/>
      <point x="501" y="494" type="line"/>
      <point x="449" y="494" type="line"/>
      <point x="378" y="47" type="line"/>
      <point x="130" y="47" type="line"/>
      <point x="201" y="494" type="line"/>
      <point x="149" y="494" type="line"/>
      <point x="71" y="0" type="line"/>
      <point x="753" y="0" type="line"/>
    </contour>
  </outline>
</glyph>
<glyph name="hardsign-cy" format="2">
  <advance width="704"/>
  <unicode hex="044A"/>
  <outline>
    <contour>
      <point x="155" y="0" type="line"/>
      <point x="401" y="0" type="line" smooth="yes"/>
      <point x="529" y="0"/>
      <point x="607" y="57"/>
      <point x="622" y="149" type="curve" smooth="yes"/>
      <point x="639" y="257"/>
      <point x="579" y="318"/>
      <point x="451" y="318" type="curve" smooth="yes"/>
      <point x="257" y="318" type="line"/>
      <point x="285" y="494" type="line"/>
      <point x="61" y="494" type="line"/>
      <point x="54" y="447" type="line"/>
      <point x="226" y="447" type="line"/>
    </contour>
    <contour>
      <point x="214" y="47" type="line"/>
      <point x="250" y="271" type="line"/>
      <point x="444" y="271" type="line" smooth="yes"/>
      <point x="535" y="271"/>
      <point x="583" y="237"/>
      <point x="570" y="159" type="curve" smooth="yes"/>
      <point x="558" y="81"/>
      <point x="498" y="47"/>
      <point x="408" y="47" type="curve" smooth="yes"/>
    </contour>
  </outline>
</glyph>
<glyph name="yeru-cy" format="2">
  <advance width="814"/>
  <unicode hex="044B"/>
  <anchor x="451" y="494" name="top"/>
  <outline>
    <contour>
      <point x="71" y="0" type="line"/>
      <point x="306" y="0" type="line" smooth="yes"/>
      <point x="434" y="0"/>
      <point x="513" y="57"/>
      <point x="528" y="149" type="curve" smooth="yes"/>
      <point x="545" y="257"/>
      <point x="485" y="318"/>
      <point x="356" y="318" type="curve" smooth="yes"/>
      <point x="173" y="318" type="line"/>
      <point x="201" y="494" type="line"/>
      <point x="149" y="494" type="line"/>
    </contour>
    <contour>
      <point x="130" y="47" type="line"/>
      <point x="166" y="271" type="line"/>
      <point x="350" y="271" type="line" smooth="yes"/>
      <point x="440" y="271"/>
      <point x="489" y="237"/>
      <point x="476" y="159" type="curve" smooth="yes"/>
      <point x="464" y="81"/>
      <point x="404" y="47"/>
      <point x="314" y="47" type="curve" smooth="yes"/>
    </contour>
    <contour>
      <point x="613" y="0" type="line"/>
      <point x="665" y="0" type="line"/>
      <point x="743" y="494" type="line"/>
      <point x="691" y="494" type="line"/>
    </contour>
  </outline>
</glyph>
<glyph name="softsign-cy" format="2">
  <advance width="620"/>
  <unicode hex="044C"/>
  <outline>
    <contour>
      <point x="71" y="0" type="line"/>
      <point x="316" y="0" type="line" smooth="yes"/>
      <point x="444" y="0"/>
      <point x="523" y="57"/>
      <point x="538" y="149" type="curve" smooth="yes"/>
      <point x="555" y="257"/>
      <point x="495" y="318"/>
      <point x="366" y="318" type="curve" smooth="yes"/>
      <point x="173" y="318" type="line"/>
      <point x="201" y="494" type="line"/>
      <point x="149" y="494" type="line"/>
    </contour>
    <contour>
      <point x="130" y="47" type="line"/>
      <point x="166" y="271" type="line"/>
      <point x="360" y="271" type="line" smooth="yes"/>
      <point x="450" y="271"/>
      <point x="499" y="237"/>
      <point x="486" y="159" type="curve" smooth="yes"/>
      <point x="474" y="81"/>
      <point x="414" y="47"/>
      <point x="324" y="47" type="curve" smooth="yes"/>
    </contour>
  </outline>
</glyph>
<glyph name="ereversed-cy" format="2">
  <advance width="561"/>
  <unicode hex="044D"/>
  <anchor x="275" y="494" name="top"/>
  <outline>
    <contour>
      <point x="197" y="-8" type="curve" smooth="yes"/>
      <point x="353" y="-8"/>
      <point x="459" y="89"/>
      <point x="483" y="241" type="curve" smooth="yes"/>
      <point x="508" y="401"/>
      <point x="434" y="502"/>
      <point x="266" y="502" type="curve" smooth="yes"/>
      <point x="179" y="502"/>
      <point x="104" y="465"/>
      <point x="66" y="434" type="curve"/>
      <point x="88" y="395" type="line"/>
      <point x="142" y="438"/>
      <point x="208" y="453"/>
      <point x="265" y="453" type="curve" smooth="yes"/>
      <point x="407" y="453"/>
      <point x="447" y="369"/>
      <point x="434" y="263" type="curve"/>
      <point x="446" y="277" type="line"/>
      <point x="138" y="277" type="line"/>
      <point x="130" y="230" type="line"/>
      <point x="438" y="230" type="line"/>
      <point x="431" y="244" type="line"/>
      <point x="409" y="119"/>
      <point x="334" y="41"/>
      <point x="199" y="41" type="curve" smooth="yes"/>
      <point x="135" y="41"/>
      <point x="77" y="56"/>
      <point x="42" y="98" type="curve"/>
      <point x="17" y="59" type="line"/>
      <point x="44" y="18"/>
      <point x="113" y="-8"/>
    </contour>
  </outline>
</glyph>
<glyph name="iu-cy" format="2">
  <advance width="854"/>
  <unicode hex="044E"/>
  <outline>
    <contour>
      <point x="506" y="-8" type="curve" smooth="yes"/>
      <point x="646" y="-8"/>
      <point x="752" y="89"/>
      <point x="776" y="238" type="curve" smooth="yes"/>
      <point x="800" y="395"/>
      <point x="727" y="502"/>
      <point x="577" y="502" type="curve" smooth="yes"/>
      <point x="448" y="502"/>
      <point x="347" y="420"/>
      <point x="313" y="282" type="curve"/>
      <point x="168" y="282" type="line"/>
      <point x="201" y="494" type="line"/>
      <point x="149" y="494" type="line"/>
      <point x="71" y="0" type="line"/>
      <point x="123" y="0" type="line"/>
      <point x="160" y="235" type="line"/>
      <point x="303" y="235" type="line"/>
      <point x="286" y="93"/>
      <point x="360" y="-8"/>
    </contour>
    <contour>
      <point x="507" y="41" type="curve" smooth="yes"/>
      <point x="395" y="41"/>
      <point x="339" y="124"/>
      <point x="358" y="248" type="curve" smooth="yes"/>
      <point x="378" y="371"/>
      <point x="461" y="453"/>
      <point x="574" y="453" type="curve" smooth="yes"/>
      <point x="687" y="453"/>
      <point x="744" y="371"/>
      <point x="724" y="248" type="curve" smooth="yes"/>
      <point x="705" y="124"/>
      <point x="620" y="41"/>
    </contour>
  </outline>
</glyph>
<glyph name="ia-cy" format="2">
  <advance width="618"/>
  <unicode hex="044F"/>
  <outline>
    <contour>
      <point x="27" y="0" type="line"/>
      <point x="92" y="0" type="line"/>
      <point x="184" y="120" type="line" smooth="yes"/>
      <point x="219" y="166"/>
      <point x="267" y="199"/>
      <point x="336" y="199" type="curve" smooth="yes"/>
      <point x="449" y="199" type="line"/>
      <point x="417" y="0" type="line"/>
      <point x="469" y="0" type="line"/>
      <point x="547" y="494" type="line"/>
      <point x="313" y="494" type="line" smooth="yes"/>
      <point x="189" y="494"/>
      <point x="120" y="441"/>
      <point x="108" y="359" type="curve" smooth="yes"/>
      <point x="91" y="255"/>
      <point x="157" y="208"/>
      <point x="240" y="206" type="curve"/>
      <point x="239" y="202" type="line"/>
      <point x="233" y="202" type="line" smooth="yes"/>
      <point x="200" y="202"/>
      <point x="162" y="175"/>
      <point x="132" y="136" type="curve" smooth="yes"/>
    </contour>
    <contour>
      <point x="282" y="245" type="line" smooth="yes"/>
      <point x="186" y="245"/>
      <point x="148" y="282"/>
      <point x="158" y="349" type="curve" smooth="yes"/>
      <point x="169" y="415"/>
      <point x="218" y="447"/>
      <point x="314" y="447" type="curve" smooth="yes"/>
      <point x="488" y="447" type="line"/>
      <point x="456" y="245" type="line"/>
    </contour>
  </outline>
</glyph>
<glyph name="dje-cy" format="2">
  <advance width="646"/>
  <unicode hex="0452"/>
  <outline>
    <contour>
      <point x="321" y="-187" type="line"/>
      <point x="418" y="-176"/>
      <point x="483" y="-124"/>
      <point x="500" y="-21" type="curve" smooth="yes"/>
      <point x="552" y="307" type="line" smooth="yes"/>
      <point x="570" y="420"/>
      <point x="519" y="494"/>
      <point x="394" y="494" type="curve" smooth="yes"/>
      <point x="313" y="494"/>
      <point x="237" y="457"/>
      <point x="197" y="376" type="curve"/>
      <point x="192" y="376" type="line"/>
      <point x="221" y="560" type="line"/>
      <point x="419" y="560" type="line"/>
      <point x="426" y="605" type="line"/>
      <point x="228" y="605" type="line"/>
      <point x="244" y="705" type="line"/>
      <point x="192" y="705" type="line"/>
      <point x="176" y="605" type="line"/>
      <point x="83" y="605" type="line"/>
      <point x="76" y="560" type="line"/>
      <point x="169" y="560" type="line"/>
      <point x="80" y="0" type="line"/>
      <point x="132" y="0" type="line"/>
      <point x="176" y="277" type="line" smooth="yes"/>
      <point x="189" y="362"/>
      <point x="280" y="445"/>
      <point x="386" y="445" type="curve" smooth="yes"/>
      <point x="488" y="445"/>
      <point x="512" y="382"/>
      <point x="499" y="303" type="curve" smooth="yes"/>
      <point x="448" y="-22" type="line" smooth="yes"/>
      <point x="435" y="-100"/>
      <point x="387" y="-131"/>
      <point x="320" y="-139" type="curve"/>
    </contour>
  </outline>
</glyph>
<glyph name="e-cy" format="2">
  <advance width="561"/>
  <unicode hex="0454"/>
  <outline>
    <contour>
      <point x="294" y="-8" type="curve" smooth="yes"/>
      <point x="388" y="-8"/>
      <point x="455" y="18"/>
      <point x="494" y="59" type="curve"/>
      <point x="473" y="98" type="line"/>
      <point x="424" y="56"/>
      <point x="370" y="41"/>
      <point x="296" y="41" type="curve" smooth="yes"/>
      <point x="171" y="41"/>
      <point x="112" y="119"/>
      <point x="130" y="244" type="curve"/>
      <point x="117" y="230" type="line"/>
      <point x="425" y="230" type="line"/>
      <point x="433" y="277" type="line"/>
      <point x="125" y="277" type="line"/>
      <point x="133" y="263" type="line"/>
      <point x="152" y="369"/>
      <point x="230" y="453"/>
      <point x="362" y="453" type="curve" smooth="yes"/>
      <point x="434" y="453"/>
      <point x="485" y="437"/>
      <point x="521" y="395" type="curve"/>
      <point x="545" y="434" type="line"/>
      <point x="518" y="470"/>
      <point x="465" y="502"/>
      <point x="367" y="502" type="curve" smooth="yes"/>
      <point x="219" y="502"/>
      <point x="103" y="411"/>
      <point x="79" y="261" type="curve" smooth="yes"/>
      <point x="53" y="99"/>
      <point x="138" y="-8"/>
    </contour>
  </outline>
</glyph>
<glyph name="lje-cy" format="2">
  <advance width="982"/>
  <unicode hex="0459"/>
  <outline>
    <contour>
      <point x="29" y="-9" type="line"/>
      <point x="171" y="51"/>
      <point x="214" y="172"/>
      <point x="248" y="386" type="curve" smooth="yes"/>
      <point x="258" y="447" type="line"/>
      <point x="504" y="447" type="line"/>
      <point x="433" y="0" type="line"/>
      <point x="679" y="0" type="line" smooth="yes"/>
      <point x="807" y="0"/>
      <point x="885" y="57"/>
      <point x="900" y="149" type="curve" smooth="yes"/>
      <point x="917" y="257"/>
      <point x="857" y="318"/>
      <point x="729" y="318" type="curve" smooth="yes"/>
      <point x="535" y="318" type="line"/>
      <point x="563" y="494" type="line"/>
      <point x="215" y="494" type="line"/>
      <point x="198" y="387" type="line" smooth="yes"/>
      <point x="165" y="179"/>
      <point x="130" y="84"/>
      <point x="10" y="31" type="curve"/>
    </contour>
    <contour>
      <point x="492" y="47" type="line"/>
      <point x="528" y="271" type="line"/>
      <point x="722" y="271" type="line" smooth="yes"/>
      <point x="813" y="271"/>
      <point x="861" y="237"/>
      <point x="848" y="159" type="curve" smooth="yes"/>
      <point x="836" y="81"/>
      <point x="776" y="47"/>
      <point x="686" y="47" type="curve" smooth="yes"/>
    </contour>
  </outline>
</glyph>
<glyph name="nje-cy" format="2">
  <advance width="997"/>
  <unicode hex="045A"/>
  <outline>
    <contour>
      <point x="71" y="0" type="line"/>
      <point x="123" y="0" type="line"/>
      <point x="160" y="234" type="line"/>
      <point x="485" y="234" type="line"/>
      <point x="448" y="0" type="line"/>
      <point x="693" y="0" type="line" smooth="yes"/>
      <point x="822" y="0"/>
      <point x="899" y="52"/>
      <point x="914" y="144" type="curve" smooth="yes"/>
      <point x="931" y="252"/>
      <point x="871" y="308"/>
      <point x="742" y="308" type="curve" smooth="yes"/>
      <point x="549" y="308" type="line"/>
      <point x="578" y="494" type="line"/>
      <point x="526" y="494" type="line"/>
      <point x="493" y="281" type="line"/>
      <point x="168" y="281" type="line"/>
      <point x="201" y="494" type="line"/>
      <point x="149" y="494" type="line"/>
    </contour>
    <contour>
      <point x="507" y="47" type="line"/>
      <point x="541" y="261" type="line"/>
      <point x="735" y="261" type="line" smooth="yes"/>
      <point x="826" y="261"/>
      <point x="875" y="232"/>
      <point x="862" y="154" type="curve" smooth="yes"/>
      <point x="850" y="77"/>
      <point x="792" y="47"/>
      <point x="701" y="47" type="curve" smooth="yes"/>
    </contour>
  </outline>
</glyph>
<glyph name="dzhe-cy" format="2">
  <advance width="646"/>
  <unicode hex="045F"/>
  <outline>
    <contour>
      <point x="238" y="-133" type="line"/>
      <point x="288" y="-133" type="line"/>
      <point x="309" y="0" type="line"/>
      <point x="497" y="0" type="line"/>
      <point x="575" y="494" type="line"/>
      <point x="523" y="494" type="line"/>
      <point x="452" y="47" type="line"/>
      <point x="130" y="47" type="line"/>
      <point x="201" y="494" type="line"/>
      <point x="149" y="494" type="line"/>
      <point x="71" y="0" type="line"/>
      <point x="259" y="0" type="line"/>
    </contour>
  </outline>
</glyph>
<glyph name="Yusbig-cy" format="2">
  <advance width="974"/>
  <unicode hex="046A"/>
  <outline>
    <contour>
      <point x="-19" y="0" type="line"/>
      <point x="43" y="0" type="line"/>
      <point x="175" y="209" type="line" smooth="yes"/>
      <point x="231" y="298"/>
      <point x="288" y="334"/>
      <point x="367" y="334" type="curve" smooth="yes"/>
      <point x="475" y="334" type="line"/>
      <point x="422" y="0" type="line"/>
      <point x="474" y="0" type="line"/>
      <point x="527" y="334" type="line"/>
      <point x="635" y="334" type="line" smooth="yes"/>
      <point x="714" y="334"/>
      <point x="763" y="298"/>
      <point x="791" y="209" type="curve" smooth="yes"/>
      <point x="857" y="0" type="line"/>
      <point x="911" y="0" type="line"/>
      <point x="833" y="240" type="line" smooth="yes"/>
      <point x="802" y="336"/>
      <point x="744" y="384"/>
      <point x="627" y="384" type="curve" smooth="yes"/>
      <point x="545" y="384" type="line"/>
      <point x="542" y="355" type="line"/>
      <point x="917" y="705" type="line"/>
      <point x="201" y="705" type="line"/>
      <point x="464" y="355" type="line"/>
      <point x="471" y="384" type="line"/>
      <point x="391" y="384" type="line" smooth="yes"/>
      <point x="274" y="384"/>
      <point x="197" y="336"/>
      <point x="135" y="240" type="curve" smooth="yes"/>
    </contour>
    <contour>
      <point x="505" y="384" type="line"/>
      <point x="275" y="690" type="line"/>
      <point x="254" y="655" type="line"/>
      <point x="845" y="655" type="line"/>
      <point x="834" y="690" type="line"/>
      <point x="507" y="384" type="line"/>
    </contour>
  </outline>
</glyph>
<glyph name="yusbig-cy" format="2">
  <advance width="848"/>
  <unicode hex="046B"/>
  <outline>
    <contour>
      <point x="-18" y="0" type="line"/>
      <point x="44" y="0" type="line"/>
      <point x="168" y="153" type="line" smooth="yes"/>
      <point x="214" y="210"/>
      <point x="238" y="234"/>
      <point x="318" y="234" type="curve" smooth="yes"/>
      <point x="396" y="234" type="line"/>
      <point x="359" y="0" type="line"/>
      <point x="411" y="0" type="line"/>
      <point x="448" y="234" type="line"/>
      <point x="526" y="234" type="line" smooth="yes"/>
      <point x="607" y="234"/>
      <point x="626" y="210"/>
      <point x="654" y="153" type="curve" smooth="yes"/>
      <point x="730" y="0" type="line"/>
      <point x="784" y="0" type="line"/>
      <point x="703" y="161" type="line" smooth="yes"/>
      <point x="650" y="267"/>
      <point x="622" y="281"/>
      <point x="533" y="281" type="curve" smooth="yes"/>
      <point x="472" y="281" type="line"/>
      <point x="470" y="266" type="line"/>
      <point x="744" y="494" type="line"/>
      <point x="181" y="494" type="line"/>
      <point x="384" y="266" type="line"/>
      <point x="388" y="281" type="line"/>
      <point x="327" y="281" type="line" smooth="yes"/>
      <point x="223" y="281"/>
      <point x="187" y="251"/>
      <point x="113" y="161" type="curve" smooth="yes"/>
    </contour>
    <contour>
      <point x="426" y="289" type="line"/>
      <point x="265" y="471" type="line"/>
      <point x="258" y="447" type="line"/>
      <point x="647" y="447" type="line"/>
      <point x="648" y="471" type="line"/>
      <point x="430" y="289" type="line"/>
    </contour>
  </outline>
</glyph>
<glyph name="Izhitsa-cy" format="2">
  <advance width="752"/>
  <unicode hex="0474"/>
  <outline>
    <contour>
      <point x="273" y="0" type="line"/>
      <point x="321" y="0" type="line"/>
      <point x="627" y="524" type="line" smooth="yes"/>
      <point x="692" y="637"/>
      <point x="739" y="663"/>
      <point x="828" y="663" type="curve"/>
      <point x="831" y="713" type="line"/>
      <point x="703" y="713"/>
      <point x="642" y="651"/>
      <point x="573" y="531" type="curve" smooth="yes"/>
      <point x="309" y="73" type="line"/>
      <point x="305" y="73" type="line"/>
      <point x="139" y="705" type="line"/>
      <point x="85" y="705" type="line"/>
    </contour>
  </outline>
</glyph>
<glyph name="izhitsa-cy" format="2">
  <advance width="622"/>
  <unicode hex="0475"/>
  <outline>
    <contour>
      <point x="222" y="0" type="line"/>
      <point x="276" y="0" type="line"/>
      <point x="487" y="367" type="line" smooth="yes"/>
      <point x="528" y="433"/>
      <point x="551" y="449"/>
      <point x="629" y="454" type="curve"/>
      <point x="632" y="502" type="line"/>
      <point x="535" y="502"/>
      <point x="489" y="467"/>
      <point x="445" y="390" type="curve" smooth="yes"/>
      <point x="260" y="65" type="line"/>
      <point x="254" y="65" type="line"/>
      <point x="147" y="494" type="line"/>
      <point x="92" y="494" type="line"/>
    </contour>
  </outline>
</glyph>
<glyph name="Iishorttail-cy" format="2">
  <advance width="834"/>
  <unicode hex="048A"/>
  <outline>
    <contour>
      <point x="626" y="-147" type="line"/>
      <point x="679" y="-147" type="line"/>
      <point x="773" y="47" type="line"/>
      <point x="670" y="47" type="line"/>
      <point x="775" y="705" type="line"/>
      <point x="722" y="705" type="line"/>
      <point x="151" y="87" type="line"/>
      <point x="147" y="87" type="line"/>
      <point x="245" y="705" type="line"/>
      <point x="195" y="705" type="line"/>
      <point x="83" y="0" type="line"/>
      <point x="135" y="0" type="line"/>
      <point x="707" y="618" type="line"/>
      <point x="711" y="618" type="line"/>
      <point x="613" y="0" type="line"/>
      <point x="699" y="0" type="line"/>
    </contour>
    <contour>
      <point x="492" y="770" type="curve" smooth="yes"/>
      <point x="570" y="770"/>
      <point x="646" y="803"/>
      <point x="703" y="898" type="curve"/>
      <point x="667" y="913" type="line"/>
      <point x="614" y="838"/>
      <point x="567" y="815"/>
      <point x="498" y="815" type="curve" smooth="yes"/>
      <point x="436" y="815"/>
      <point x="389" y="840"/>
      <point x="371" y="914" type="curve"/>
      <point x="327" y="898" type="line"/>
      <point x="344" y="812"/>
      <point x="410" y="770"/>
    </contour>
  </outline>
</glyph>
